<svg width="40" height="40" viewBox="0 0 40 40" fill="none" xmlns="http://www.w3.org/2000/svg">
<rect width="40" height="40" rx="8" fill="#FFFEFB"/>
<path d="M32.8725 13.081L33.6245 11.5222H34.3114L34.5941 18.0076H33.8638C33.3851 16.1837 32.7815 14.8394 32.0549 13.9747C31.1538 12.892 30.0784 12.3507 28.8286 12.3507C27.477 12.3507 26.3762 12.9537 25.526 14.16C24.6757 15.3662 24.2507 17.4081 24.2507 20.2857C24.2507 22.7055 24.7375 24.5512 25.7112 25.8228C26.5397 26.8982 27.7023 27.4359 29.1991 27.4359C30.5071 27.4359 31.6044 27.0181 32.4909 26.1824C33.377 25.3395 33.9544 24.0715 34.2236 22.3785H34.9985C34.7726 24.2968 34.1154 25.7719 33.0254 26.8037C31.9349 27.8355 30.5616 28.3514 28.9048 28.3514C27.5606 28.3514 26.3252 28.0136 25.199 27.3378C24.0799 26.6621 23.1825 25.6919 22.5067 24.4276C21.8382 23.1559 21.5039 21.7643 21.5039 20.2529C21.5039 18.647 21.8492 17.1393 22.5394 15.7296C23.237 14.3199 24.1272 13.2626 25.2099 12.5577C26.2926 11.8456 27.4589 11.4895 28.7086 11.4895C29.4063 11.4895 30.0821 11.6095 30.7361 11.8492C31.3901 12.089 32.1021 12.4996 32.8725 13.081Z" fill="#A4A5F8"/>
<path d="M4 11.827H10.7905V12.6444H9.61324C9.12639 12.6444 8.79588 12.7025 8.62142 12.8188C8.44697 12.9352 8.35988 13.0914 8.35988 13.2876C8.35988 13.4401 8.4252 13.6618 8.55597 13.9524L8.64319 14.1814L12.8833 24.9829L16.6436 14.6719C16.7163 14.4683 16.7526 14.2212 16.7526 13.9306C16.7526 13.5237 16.6327 13.2077 16.3929 12.9824C16.1604 12.757 15.8371 12.6444 15.4229 12.6444H14.322V11.827H20.2732V12.6444H19.7937C19.4303 12.6444 19.0671 12.8152 18.7037 13.1568C18.3476 13.4983 18.0243 14.0614 17.7336 14.8462L12.7415 28.3292H11.9458L6.25614 13.9197C6.06005 13.4401 5.8311 13.1095 5.56955 12.9279C5.31517 12.7389 4.96639 12.6444 4.52309 12.6444H4V11.827Z" fill="#A4A5F8"/>
</svg>
