<svg width="52" height="62" viewBox="0 0 52 62" fill="none" xmlns="http://www.w3.org/2000/svg">
<g filter="url(#filter0_d_195_856)">
<path d="M47.9968 11.6585L43.5207 16.0629C32.9297 26.4825 24.2933 38.8252 18.0463 52.4734L17.3603 53.9714C17.3603 53.9714 5.63583 55.0409 4 44.1064C14.2851 32.1257 22.7541 19.3379 29.7418 5.11182L31.8606 0L48 11.6585H47.9968Z" fill="#466EB6"/>
<path d="M32.0669 0.201608C31.5007 1.04858 34.5911 4.32396 38.9658 7.51663C43.3405 10.7093 47.3672 12.6481 47.9334 11.8011C48.4997 10.9542 45.3903 7.63903 41.0124 4.44636C36.6377 1.25369 32.6299 -0.645359 32.0669 0.201608Z" fill="#86B1F2"/>
<path d="M31.0538 0.0162894L31.0671 0C31.0671 0 40.2232 7.65418 44 8.43395L42.8336 10C41.4557 9.26264 39.8895 8.30669 38.277 7.19739C33.7601 4.08482 30.5549 0.89394 31.0505 0.0130235L31.0538 0.0162894Z" fill="#355389"/>
<path d="M20.2945 23C20.2786 24.3224 20.7712 30.0376 30 32.4206C29.393 33.2717 28.7956 34.1326 28.2108 35C22.3697 33.2226 19.7415 30.1326 18.5625 27.7791C18.375 27.4059 18.1494 26.9083 18 26.5221C18.7786 25.3568 19.5445 24.1817 20.2977 23H20.2945Z" fill="#B75742"/>
<path d="M29.5628 30.4688L43 30L39.8151 32.6353L41.7172 36L29 32.8407L29.5628 30.4688Z" fill="#B75742"/>
<path d="M28.1546 34L33 42.5904L29.5909 41.2718L28.2791 44L26 34.9646L28.1546 34Z" fill="#B75742"/>
<path d="M26.173 35.9893C28.6497 36.1592 30.8061 34.2866 30.9878 31.8078C31.1694 29.3291 29.307 27.1807 26.827 27.0107C24.3503 26.8408 22.1939 28.7134 22.0122 31.1921C21.8306 33.6709 23.693 35.8193 26.173 35.9893Z" fill="#F47458"/>
</g>
<defs>
<filter id="filter0_d_195_856" x="0" y="0" width="52" height="62" filterUnits="userSpaceOnUse" color-interpolation-filters="sRGB">
<feFlood flood-opacity="0" result="BackgroundImageFix"/>
<feColorMatrix in="SourceAlpha" type="matrix" values="0 0 0 0 0 0 0 0 0 0 0 0 0 0 0 0 0 0 127 0" result="hardAlpha"/>
<feOffset dy="4"/>
<feGaussianBlur stdDeviation="2"/>
<feComposite in2="hardAlpha" operator="out"/>
<feColorMatrix type="matrix" values="0 0 0 0 0 0 0 0 0 0 0 0 0 0 0 0 0 0 0.25 0"/>
<feBlend mode="normal" in2="BackgroundImageFix" result="effect1_dropShadow_195_856"/>
<feBlend mode="normal" in="SourceGraphic" in2="effect1_dropShadow_195_856" result="shape"/>
</filter>
</defs>
</svg>
