<svg width="76" height="63" viewBox="0 0 76 63" fill="none" xmlns="http://www.w3.org/2000/svg">
<path d="M13.2886 62.9604L74.16 51.1836C75.3815 50.9483 76.1884 49.7255 75.9619 48.4564L68.3362 5.91181C68.1098 4.64266 66.933 3.80428 65.7114 4.03956L4.84005 15.8165C3.61854 16.0517 2.81163 17.2745 3.03807 18.5436L10.6637 61.0882C10.8902 62.3574 12.067 63.1957 13.2886 62.9604Z" fill="#F7CC7F"/>
<path d="M41.7932 14.9597L60.1747 11.3108C61.3864 11.0714 62.1869 9.82694 61.9622 8.53531L60.8106 1.94565C60.586 0.654023 59.4186 -0.199181 58.2068 0.0402588L39.8253 3.68917C38.6136 3.92861 37.8131 5.17304 38.0378 6.46467L39.1894 13.0543C39.414 14.346 40.5814 15.1992 41.7932 14.9597Z" fill="#F7CC7F"/>
<path d="M10.1167 61.3175C10.4334 62.4663 11.5562 63.1798 12.7046 62.9605L74.155 51.2531C75.297 51.0338 76.0935 49.9668 75.9912 48.7787L72.7763 11.1101C72.7219 10.462 72.3988 9.86633 71.8934 9.4703C71.3848 9.07755 70.7386 8.92044 70.1148 9.03827L1.84766 22.0451C1.22388 22.1629 0.67688 22.5458 0.340996 23.099C0.00511169 23.6521 -0.0876694 24.3198 0.0850677 24.9449L10.1167 61.3142V61.3175Z" fill="#FAE0B2"/>
</svg>
