<svg width="63" height="55" viewBox="0 0 63 55" fill="none" xmlns="http://www.w3.org/2000/svg">
<path d="M50.8071 53.0776L62.7895 21.9669C63.3927 20.4012 62.6554 18.6273 61.1424 18.0029L18.0232 0.217893C16.5102 -0.406434 14.7962 0.356644 14.1929 1.92242L2.21055 33.033C1.60728 34.5988 2.34458 36.3727 3.85754 36.997L46.9736 54.7821C48.4866 55.4064 50.2006 54.6434 50.8039 53.0776H50.8071Z" fill="#FAE0B2"/>
<path d="M10.5708 35.4434L20.9421 7.21047C21.1081 6.75677 20.9052 6.24299 20.487 6.06285C20.0688 5.8827 19.5953 6.10287 19.4292 6.55658L9.05793 34.7895C8.89189 35.2432 9.09482 35.757 9.51299 35.9372C9.93116 36.1173 10.4047 35.8971 10.5708 35.4434Z" fill="#466EB6"/>
<path d="M14.7029 31.4423L23.9372 8.21293C24.1172 7.75831 23.8972 7.24349 23.4438 7.06298C22.9904 6.88246 22.4771 7.10308 22.2971 7.55771L13.0628 30.7871C12.8828 31.2417 13.1028 31.7565 13.5562 31.937C14.0096 32.1175 14.5229 31.8969 14.7029 31.4423Z" fill="#466EB6"/>
<path d="M16.5707 38.4434L26.9421 10.2105C27.1081 9.75677 26.9052 9.24299 26.487 9.06285C26.0688 8.8827 25.5953 9.10287 25.4293 9.55658L15.0579 37.7895C14.8919 38.2432 15.0948 38.757 15.513 38.9372C15.9312 39.1173 16.4047 38.8971 16.5707 38.4434Z" fill="#466EB6"/>
<path d="M21.6301 32.4566L29.9399 11.1818C30.1122 10.7388 29.9016 10.2372 29.4676 10.0614C29.0336 9.88548 28.5422 10.1004 28.3699 10.5434L20.0601 31.8182C19.8878 32.2612 20.0984 32.7628 20.5324 32.9386C20.9664 33.1145 21.4578 32.8996 21.6301 32.4566Z" fill="#466EB6"/>
<path d="M10.0289 3.80843L10.2438 3.25643C10.3228 3.05187 10.5377 2.94799 10.7241 3.02591L14.7752 4.68508C14.9616 4.75975 15.0501 4.98706 14.9711 5.19161L14.7562 5.74357C14.6772 5.94813 14.4623 6.05201 14.2759 5.97409L10.2248 4.31492C10.0384 4.24025 9.94994 4.01298 10.0289 3.80843Z" fill="#355389"/>
<path d="M9.02762 5.80839L9.24253 5.25643C9.32155 5.05187 9.53649 4.94799 9.72298 5.02591L13.7751 6.68508C13.9616 6.75975 14.0501 6.98702 13.9711 7.19157L13.7561 7.74357C13.6771 7.94813 13.4622 8.05201 13.2757 7.97409L9.22355 6.31492C9.03706 6.237 8.95176 6.01294 9.02762 5.80839Z" fill="#355389"/>
<path d="M8.02893 8.80841L8.24378 8.25646C8.32278 8.05191 8.53766 7.94798 8.72409 8.02591L12.7751 9.68509C12.9616 9.75977 13.0501 9.98703 12.9711 10.1916L12.7561 10.7435C12.6771 10.9481 12.4623 11.052 12.2758 10.9741L8.22488 9.31495C8.03844 9.24027 7.94993 9.01297 8.02893 8.80841Z" fill="#355389"/>
<path d="M7.02894 10.8084L7.24379 10.2564C7.32279 10.0519 7.53768 9.94799 7.72411 10.0259L11.7752 11.6851C11.9616 11.763 12.0501 11.9871 11.9711 12.1916L11.7562 12.7436C11.6772 12.9481 11.4623 13.052 11.2759 12.9741L7.22482 11.3149C7.03838 11.237 6.94994 11.013 7.02894 10.8084Z" fill="#355389"/>
<path d="M6.02893 13.8084L6.24386 13.2564C6.32286 13.0519 6.53774 12.948 6.72417 13.0259L10.7751 14.6851C10.9616 14.763 11.0501 14.9903 10.9711 15.1916L10.7562 15.7436C10.6772 15.9481 10.4623 16.052 10.2759 15.9741L6.22488 14.3149C6.03844 14.237 5.94993 14.0129 6.02893 13.8084Z" fill="#355389"/>
<path d="M5.02893 15.8084L5.24378 15.2565C5.32278 15.0519 5.53766 14.948 5.72409 15.0259L9.77512 16.6851C9.96156 16.763 10.0501 16.987 9.97107 17.1916L9.75614 17.7435C9.67714 17.9481 9.46226 18.052 9.27583 17.9741L5.22488 16.3149C5.03844 16.237 4.94993 16.013 5.02893 15.8084Z" fill="#355389"/>
<path d="M5.02894 18.8084L5.24379 18.2564C5.32279 18.0519 5.53768 17.948 5.72411 18.0259L9.77518 19.6851C9.96162 19.763 10.0501 19.9871 9.97106 20.1916L9.75621 20.7436C9.67721 20.9481 9.46232 21.052 9.27589 20.9741L5.22482 19.3149C5.03838 19.237 4.94994 19.013 5.02894 18.8084Z" fill="#355389"/>
<path d="M4.02893 20.8084L4.24386 20.2564C4.32286 20.0519 4.53774 19.948 4.72417 20.0259L8.77512 21.6851C8.96156 21.763 9.05007 21.987 8.97107 22.1916L8.75614 22.7436C8.67714 22.9481 8.46234 23.052 8.27591 22.9741L4.22488 21.3149C4.03844 21.237 3.94993 21.013 4.02893 20.8084Z" fill="#355389"/>
<path d="M3.02894 23.8084L3.24379 23.2565C3.32279 23.0519 3.53768 22.948 3.72411 23.0259L7.77518 24.6851C7.96162 24.763 8.05006 24.987 7.97106 25.1916L7.75621 25.7436C7.67721 25.9481 7.46232 26.052 7.27589 25.9741L3.22482 24.3149C3.03838 24.237 2.94994 24.013 3.02894 23.8084Z" fill="#355389"/>
<path d="M2.02894 25.8084L2.2438 25.2564C2.32279 25.0519 2.53768 24.948 2.72411 25.0259L6.77512 26.6851C6.96155 26.763 7.05007 26.987 6.97107 27.1916L6.75622 27.7435C6.67722 27.9481 6.46233 28.052 6.2759 27.9741L2.22482 26.3149C2.03838 26.237 1.94994 26.0097 2.02894 25.8084Z" fill="#355389"/>
<path d="M1.02893 27.8117L1.24378 27.2564C1.32278 27.0519 1.53766 26.948 1.72409 27.0259L5.77512 28.6851C5.96156 28.763 6.05007 28.9871 5.97107 29.1916L5.75614 29.7436C5.67714 29.9481 5.46226 30.052 5.27583 29.9741L1.22488 28.3149C1.03844 28.237 0.94993 28.013 1.02893 27.8084V27.8117Z" fill="#355389"/>
<path d="M0.0289403 30.8084L0.243795 30.2564C0.322794 30.0519 0.537676 29.948 0.724113 30.0259L4.77518 31.6851C4.96162 31.7598 5.05006 31.987 4.97106 32.1916L4.75621 32.7436C4.67721 32.9481 4.46232 33.052 4.27589 32.9741L0.224817 31.3149C0.03838 31.237 -0.0500583 31.0129 0.0289403 30.8084Z" fill="#355389"/>
</svg>
