<svg width="23" height="32" viewBox="0 0 23 32" fill="none" xmlns="http://www.w3.org/2000/svg">
<path d="M4.08792 0.297038L21.139 25.3953C21.1772 25.4511 21.2058 25.5136 21.2281 25.5793L22.9646 31.0928C23.1682 31.7339 22.4494 32.2632 21.9278 31.8588L17.3637 28.3016C17.3064 28.2588 17.2587 28.2062 17.2173 28.147L0.121759 2.98309C-0.0977007 2.6609 -0.0117973 2.21707 0.30944 2.00337L3.17832 0.109658C3.48047 -0.0908907 3.87808 -0.00871947 4.08481 0.293748L4.08792 0.297038Z" fill="#B75742"/>
<path d="M17 28.5393L17.044 28.6012L21.723 32L23 31.1763L21.25 26C19.8784 26.7227 18.2365 27.465 17.0034 28.5393H17Z" fill="#F7CC7F"/>
</svg>
