<svg width="87" height="63" viewBox="0 0 87 63" fill="none" xmlns="http://www.w3.org/2000/svg">
<g id="arrow">
<path id="Vector" d="M1.73215 27.8331C10.4857 33.2799 20.3978 37.0848 30.7551 39.0317C41.186 41.005 52.0324 41.1903 62.5736 39.4901C68.4772 38.5446 74.2937 37.0028 79.8244 34.8336C81.4961 34.1833 81.9764 35.1482 80.3047 35.7986C69.9945 39.7613 59.1877 41.7409 48.1198 41.8796C37.155 41.9746 26.8208 40.2678 16.6214 36.6422C10.8856 34.5806 6.07199 32.1658 0.934488 28.9874C-0.50585 27.9853 0.262239 26.9011 1.73215 27.8331Z" fill="#5A95ED"/>
<path id="Vector_2" d="M63.9794 51.3336C71.0517 47.2399 77.3916 41.9119 81.1598 34.8906C81.6746 35.4803 81.0263 34.6614 81.5411 35.2511C74.491 35.873 68.0378 36.2836 61.1911 34.915C60.4467 34.7688 59.8802 34.201 59.9776 33.4672C60.0454 32.8038 60.8305 33.3042 61.5748 33.4504C68.2005 34.7395 74.9829 34.7737 81.8043 34.191C82.7629 34.131 83.0474 34.0794 82.507 35.0586C78.3467 42.7077 72.2342 48.5802 64.431 53.099C63.8034 53.4804 63.4507 53.6927 63.1866 53.1122C62.908 52.3647 63.3001 51.7368 63.9794 51.3336Z" fill="#5A95ED"/>
</g>
</svg>
