<svg width="34" height="34" viewBox="0 0 34 34" fill="none" xmlns="http://www.w3.org/2000/svg">
<g id="Frame" clip-path="url(#clip0_217_1760)">
<path id="Vector" d="M27.6239 17.8102L16.9989 28.3332L6.37388 17.8102C5.67306 17.1283 5.12104 16.3086 4.75257 15.4028C4.38411 14.497 4.20718 13.5247 4.23293 12.5472C4.25867 11.5697 4.48654 10.6081 4.90219 9.72294C5.31783 8.83781 5.91224 8.04833 6.64799 7.40421C7.38373 6.76008 8.24488 6.27528 9.1772 5.98032C10.1095 5.68535 11.0928 5.58663 12.0652 5.69035C13.0375 5.79408 13.9778 6.09801 14.827 6.583C15.6761 7.068 16.4156 7.72355 16.9989 8.50838C17.5847 7.72925 18.3251 7.07942 19.1736 6.59957C20.0221 6.11973 20.9606 5.82019 21.9302 5.7197C22.8998 5.61922 23.8797 5.71996 24.8086 6.01561C25.7375 6.31126 26.5954 6.79545 27.3286 7.4379C28.0617 8.08034 28.6544 8.8672 29.0695 9.74923C29.4845 10.6313 29.7131 11.5895 29.7408 12.5639C29.7685 13.5383 29.5948 14.508 29.2306 15.4122C28.8663 16.3164 28.3193 17.1356 27.6239 17.8187" stroke="#1D1E1F" stroke-width="2" stroke-linecap="round" stroke-linejoin="round"/>
<path id="Vector_2" d="M17.0017 8.5L12.3367 13.1651C12.0711 13.4307 11.9219 13.791 11.9219 14.1667C11.9219 14.5423 12.0711 14.9026 12.3367 15.1682L13.1059 15.9375C14.0834 16.915 15.6701 16.915 16.6476 15.9375L18.0642 14.5208C18.9096 13.6755 20.0562 13.2005 21.2517 13.2005C22.4473 13.2005 23.5939 13.6755 24.4392 14.5208L27.6267 17.7083" stroke="#1D1E1F" stroke-width="2" stroke-linecap="round" stroke-linejoin="round"/>
<path id="Vector_3" d="M17.707 21.958L20.5404 24.7913" stroke="#1D1E1F" stroke-width="2" stroke-linecap="round" stroke-linejoin="round"/>
<path id="Vector_4" d="M21.25 18.417L24.0833 21.2503" stroke="#1D1E1F" stroke-width="2" stroke-linecap="round" stroke-linejoin="round"/>
</g>
<defs>
<clipPath id="clip0_217_1760">
<rect width="34" height="34" fill="white"/>
</clipPath>
</defs>
</svg>
