<svg width="58" height="59" viewBox="0 0 58 59" fill="none" xmlns="http://www.w3.org/2000/svg">
<mask id="mask0_96_3870" style="mask-type:alpha" maskUnits="userSpaceOnUse" x="0" y="0" width="58" height="59">
<circle cx="29" cy="29.5" r="28.5" fill="#D9D9D9" stroke="black"/>
</mask>
<g mask="url(#mask0_96_3870)">
<path d="M60.9046 36.8962C64.9339 19.3312 53.9611 1.82542 36.3961 -2.20397C18.831 -6.23336 1.32524 4.73947 -2.70415 22.3045C-6.73353 39.8696 4.23929 57.3754 21.8043 61.4047C39.3694 65.4341 56.8752 54.4613 60.9046 36.8962Z" fill="#B9C4E1"/>
<path d="M29.0948 43.0021C36.1046 43.0021 41.7872 35.1313 41.7872 25.4222C41.7872 15.7131 36.1046 7.84229 29.0948 7.84229C22.0849 7.84229 16.4023 15.7131 16.4023 25.4222C16.4023 35.1313 22.0849 43.0021 29.0948 43.0021Z" fill="white"/>
<path d="M28.8922 41.8784C18.2656 41.8784 8.76771 44.423 2.44922 48.4237C8.35958 56.7727 18.0842 62.2246 29.0937 62.2246C40.1032 62.2246 49.6868 56.8483 55.6123 48.6C49.2988 44.4985 39.6749 41.8784 28.8972 41.8784H28.8922Z" fill="white"/>
<path d="M31.0294 29.5942H27.1597C24.4827 29.5942 22.3125 31.7644 22.3125 34.4414V45.4711C22.3125 48.1481 24.4827 50.3183 27.1597 50.3183H31.0294C33.7064 50.3183 35.8766 48.1481 35.8766 45.4711V34.4414C35.8766 31.7644 33.7064 29.5942 31.0294 29.5942Z" fill="white"/>
<path d="M18.4073 26.4198C18.7852 29.2364 18.1604 31.6802 17.0116 31.8767C15.8577 32.0732 14.6182 29.9469 14.2353 27.1252C13.8574 24.3086 14.4821 21.8649 15.631 21.6684C16.7848 21.4718 18.0243 23.5982 18.4073 26.4198Z" fill="white"/>
<path d="M39.786 26.4198C39.4081 29.2364 40.0329 31.6802 41.1817 31.8767C42.3356 32.0732 43.5751 29.9469 43.9581 27.1252C44.336 24.3086 43.7112 21.8649 42.5624 21.6684C41.4135 21.4718 40.169 23.5982 39.786 26.4198Z" fill="white"/>
<path d="M16.8424 24.7318C16.4141 21.9152 15.9908 19.1036 15.5626 16.287C15.4064 15.2642 15.2602 14.1859 15.6331 13.2235C16.006 12.2611 17.0993 11.4902 18.0668 11.853C17.6788 9.89295 19.8454 8.44685 21.7349 7.79687C24.8992 6.70851 28.2902 6.15426 31.6057 6.58255C34.9211 7.01083 38.161 8.47709 40.3982 10.9662C41.1036 11.7522 41.7133 12.6491 42.0509 13.6518C42.7008 15.5816 42.2877 17.6928 41.8695 19.6831C41.5369 21.2652 41.2044 22.8524 40.8718 24.4346C40.7962 24.7973 40.7106 25.1752 40.4637 25.4524C40.0707 25.8907 39.4055 25.921 38.816 25.926C32.5227 25.9411 26.2294 25.9512 19.9311 25.9663C18.747 25.9663 17.2001 25.6791 17.0439 24.5051" fill="white"/>
</g>
</svg>
