<svg width="58" height="58" viewBox="0 0 58 58" fill="none" xmlns="http://www.w3.org/2000/svg">
<path d="M29 58C45.0163 58 58 45.0163 58 29C58 12.9837 45.0163 0 29 0C12.9837 0 0 12.9837 0 29C0 45.0163 12.9837 58 29 58Z" fill="#B9C4E1"/>
<path d="M28.999 38.8337C35.2289 38.8337 40.2793 32.3038 40.2793 24.2487C40.2793 16.1935 35.2289 9.66357 28.999 9.66357C22.7691 9.66357 17.7188 16.1935 17.7188 24.2487C17.7188 32.3038 22.7691 38.8337 28.999 38.8337Z" fill="white"/>
<path d="M29.0006 39.9175C19.9235 39.9175 11.9302 43.1954 7.24609 48.1661C12.5616 54.1936 20.3355 57.9999 29.0006 57.9999C37.6656 57.9999 45.4396 54.1936 50.7551 48.1661C46.071 43.191 38.0776 39.9175 29.0006 39.9175Z" fill="white"/>
<path d="M29.7821 29H28.2103C25.8311 29 23.9023 30.9287 23.9023 33.3079V43.1104C23.9023 45.4896 25.8311 47.4183 28.2103 47.4183H29.7821C32.1612 47.4183 34.09 45.4896 34.09 43.1104V33.3079C34.09 30.9287 32.1612 29 29.7821 29Z" fill="white"/>
<path d="M19.2718 24.9248C19.9301 26.8146 19.6659 28.6237 18.6897 28.9641C17.7135 29.3044 16.388 28.0461 15.7297 26.1563C15.0714 24.2666 15.3356 22.4574 16.3118 22.1171C17.2881 21.7768 18.6136 23.0351 19.2718 24.9248Z" fill="white"/>
<path d="M38.7219 24.9248C38.0636 26.8146 38.3278 28.6237 39.304 28.9641C40.2802 29.3044 41.6058 28.0461 42.264 26.1563C42.9223 24.2666 42.6581 22.4574 41.6819 22.1171C40.7057 21.7768 39.3802 23.0351 38.7219 24.9248Z" fill="white"/>
<path d="M42.8408 26.1877C42.5945 22.5873 42.7154 18.8929 41.5556 15.4717C40.2525 11.6295 37.2566 8.34705 33.4548 6.93198C29.6529 5.51691 25.1166 6.10353 21.9372 8.62469C20.8221 9.50687 19.8235 10.7742 19.9355 12.1937C18.0054 11.5399 15.8559 12.9102 14.9514 14.7373C14.0513 16.5643 14.096 18.6959 14.2214 20.7289C14.5976 26.6848 15.5066 32.7928 13.8945 38.5337C18.8383 38.6815 23.7821 38.8338 28.7259 38.9815C30.3067 39.0308 31.8919 39.0756 33.4771 39.0084C37.5164 38.8338 41.6989 37.9247 45.5008 39.295C44.0409 35.0677 43.1453 30.6478 42.8363 26.1832L42.8408 26.1877Z" fill="white"/>
</svg>
