<svg xmlns="http://www.w3.org/2000/svg" width="58" height="58" viewBox="0 0 58 58" fill="none">
  <mask id="mask0_96_3852" style="mask-type:alpha" maskUnits="userSpaceOnUse" x="0" y="0" width="58" height="58">
    <circle cx="29" cy="29" r="28.5" fill="#D9D9D9" stroke="black"/>
  </mask>
  <g mask="url(#mask0_96_3852)">
    <path d="M50.5 49.5C62.3741 37.6259 62.3741 18.3741 50.5 6.5C38.6259 -5.37412 19.3741 -5.37412 7.5 6.5C-4.37412 18.3741 -4.37412 37.6259 7.5 49.5C19.3741 61.3741 38.6259 61.3741 50.5 49.5Z" fill="#B9C4E1"/>
    <path d="M28.9989 38.3115C35.5308 38.3115 40.8259 31.4651 40.8259 23.0195C40.8259 14.574 35.5308 7.72754 28.9989 7.72754C22.467 7.72754 17.1719 14.574 17.1719 23.0195C17.1719 31.4651 22.467 38.3115 28.9989 38.3115Z" fill="white"/>
    <path d="M29.0002 39.4478C19.1076 39.4478 10.3981 42.4714 5.30859 47.0538C10.8817 53.9745 19.4221 58.4066 29.0002 58.4066C38.5782 58.4066 47.1186 53.9745 52.6917 47.0538C47.6069 42.4714 38.8975 39.4478 29.0002 39.4478Z" fill="white"/>
    <path d="M30.3249 28.001H27.6769C25.1824 28.001 23.1602 30.0232 23.1602 32.5177V42.7953C23.1602 45.2898 25.1824 47.312 27.6769 47.312H30.3249C32.8194 47.312 34.8416 45.2898 34.8416 42.7953V32.5177C34.8416 30.0232 32.8194 28.001 30.3249 28.001Z" fill="white"/>
    <path d="M18.8009 23.7287C19.4911 25.71 19.2141 27.6068 18.1906 27.9637C17.167 28.3205 15.7773 27.0012 15.0871 25.0198C14.3969 23.0385 14.6739 21.1417 15.6975 20.7848C16.721 20.428 18.1108 21.7473 18.8009 23.7287Z" fill="white"/>
    <path d="M39.1926 23.7287C38.5024 25.71 38.7794 27.6068 39.8029 27.9637C40.8265 28.3205 42.2162 27.0012 42.9064 25.0198C43.5966 23.0385 43.3196 21.1417 42.296 20.7848C41.2725 20.428 39.8828 21.7473 39.1926 23.7287Z" fill="white"/>
    <path d="M18.6461 23.6673C17.1108 20.8737 15.5286 17.9064 15.6084 14.7137C15.6882 11.5257 18.1156 8.15935 21.3035 8.27203C21.8576 8.29081 22.4163 8.41288 22.9703 8.33776C24.0737 8.18282 24.8906 7.28136 25.7827 6.61465C27.8016 5.11691 30.6093 4.76478 32.9381 5.7085C34.3748 6.29539 35.5908 7.31892 36.9946 7.98563C39.6051 9.22514 42.826 9.09837 45.3285 7.64758C44.8073 8.62886 43.9246 9.41294 42.887 9.81672C43.8448 10.1219 44.9012 10.0937 45.8402 9.73691C45.2768 10.7604 44.3378 11.5774 43.2485 11.9953C44.0561 12.0516 44.8684 12.1079 45.6759 12.1643C44.9857 13.1409 43.9998 13.9062 42.8776 14.3334C43.5115 14.3522 44.1453 14.3757 44.7791 14.3945C44.3049 15.7936 43.0795 16.9157 41.6428 17.2585C42.0513 17.2632 42.4598 17.2679 42.8682 17.2773C41.5301 19.2117 40.1873 21.146 38.8492 23.0804C38.4642 23.6345 38.0698 24.1979 37.5017 24.5641C37.0322 24.8646 36.4782 25.0054 35.9335 25.1275C31.9615 26.0196 27.8532 26.2872 23.8014 25.9163C22.4163 25.7895 20.9655 25.5642 19.8621 24.7096C18.7588 23.8551 18.1719 22.1931 18.9278 21.0287" fill="white"/>
    <path d="M21.3754 42.3353C21.4646 40.7296 21.6618 39.1332 21.9717 37.5557C22.7652 38.4618 24.1127 38.5745 25.3146 38.6262C27.1363 38.7013 28.958 38.7764 30.7844 38.8468C30.9957 40.091 31.146 41.5512 30.2445 42.4386C29.8266 42.8471 29.2538 43.0537 28.6904 43.2086C27.4603 43.5513 26.1879 43.7297 24.9155 43.7344C23.4037 43.7438 21.6008 43.2884 21.1172 41.8564C21.2815 41.7202 21.4458 41.5888 21.6102 41.4526" fill="white"/>
    <path d="M36.6246 42.3353C36.5354 40.7296 36.3382 39.1332 36.0283 37.5557C35.2348 38.4618 33.8873 38.5745 32.6854 38.6262C30.8637 38.7013 29.042 38.7764 27.2155 38.8468C27.0043 40.091 26.854 41.5512 27.7555 42.4386C28.1734 42.8471 28.7462 43.0537 29.3096 43.2086C30.5397 43.5513 31.8121 43.7297 33.0844 43.7344C34.5963 43.7438 36.3992 43.2884 36.8828 41.8564C36.7185 41.7202 36.5541 41.5888 36.3898 41.4526" fill="white"/>
  </g>
</svg>