<svg width="297" height="475" viewBox="0 0 297 475" fill="none" xmlns="http://www.w3.org/2000/svg">
<g opacity="0.4">
<path d="M52.5812 480.424C52.5812 480.424 -26.8747 456.312 9.55927 345.907C45.9933 235.498 115.3 283.129 95.2746 186.57C68.8667 59.2412 180.693 -27.3459 303.636 7.92045C426.579 43.1868 393.628 82.384 538.106 42.9107C714.239 -5.2124 729.095 195.001 688.245 261.508C647.395 328.012 799.756 337.602 736.823 480.424H52.5812Z" fill="#EBF3FA"/>
<path d="M165.374 279.998C165.374 279.998 139.698 223.645 125.336 228.645C110.974 233.646 165.374 279.998 165.374 279.998Z" fill="#DFEBFD"/>
<path d="M183.839 305.496C183.839 305.496 122.33 240.599 98.4281 252.432C74.5262 264.268 112.999 276.958 127.67 280.415C142.345 283.871 183.839 305.493 183.839 305.493V305.496Z" fill="#DFEBFD"/>
<path d="M67.8708 342.752C68.186 323.034 98.4756 320.941 98.4756 320.941C98.4756 320.941 125.696 347.902 131.592 347.12C137.488 346.338 112.501 319.178 112.501 319.178C123.305 315.017 154.951 321.961 154.951 321.961C154.951 321.961 162.001 360.129 167.537 357.809C173.072 355.488 159.693 324.357 159.693 324.357C171.221 324.906 184.381 335.646 184.381 335.646C202.023 354.168 179.016 377.596 179.016 377.596C179.016 377.596 181.725 390.766 192.742 403.723C192.742 403.723 195.085 406.032 197.909 410.271L194.986 411.065C194.551 410.285 194.097 409.544 193.621 408.839C193.621 408.833 193.616 408.83 193.613 408.827C193.605 408.816 193.6 408.807 193.592 408.796C193.277 408.365 192.828 407.752 192.272 407.007C192.272 407.007 192.272 407.007 192.27 407.004C190.936 405.365 190.007 404.14 189.39 403.24C189.39 403.24 189.387 403.234 189.384 403.232C185.326 398.053 149.867 412.103 135.214 412.81C120.561 413.518 125.642 407.64 131.535 398.737C137.429 389.834 153.57 387.373 157.583 383.422C161.595 379.468 154.176 378.619 145.069 381.912C135.962 385.204 133.662 396.462 119.019 402.078C104.377 407.692 85.8233 380.422 85.8233 380.422C96.9956 381.069 114.128 369.869 113.941 365.832C113.754 361.794 86.3363 369.65 81.7787 369.662C77.2211 369.673 67.5556 362.481 67.8708 342.764V342.752Z" fill="#CDE0FB"/>
<path d="M216.438 94.8068L222.486 93.2598L242.397 122.315L235.539 124.069L231.225 117.567L218.618 120.791L217.48 128.684L210.793 130.395L216.438 94.8068ZM227.506 111.931L221.247 102.536L219.582 113.955L227.503 111.928L227.506 111.931Z" fill="#AFCDFB"/>
<path d="M250.356 75.7872C251.217 66.4558 258.456 59.5113 267.823 60.512C273.572 61.1274 276.58 63.816 279.134 67.1201L274.667 71.6607C272.527 69.1129 270.649 67.5371 267.163 67.1661C262.023 66.6169 257.895 70.8152 257.367 76.5377C256.848 82.1652 260.03 87.2407 265.258 87.7985C268.744 88.1724 271.015 86.8985 273.628 84.8108L277.443 90.191C273.973 93.4663 270.307 95.0623 264.425 94.4354C255.451 93.4749 249.472 85.3083 250.351 75.7872H250.356Z" fill="#AFCDFB"/>
<path d="M290.027 121.291C290.764 111.948 298.129 104.911 307.378 105.76C312.874 106.263 316.063 108.164 319.018 111.364L314.354 116.471C312.166 114.142 310.167 112.73 306.636 112.408C301.749 111.962 297.502 116.253 297.053 121.935C296.577 127.945 300.069 132.71 305.476 133.204C307.918 133.429 310.151 132.971 311.957 131.812L312.329 127.117L305.567 126.498L306.061 120.253L319.323 121.466L318.195 135.74C314.829 138.317 310.325 140.27 304.741 139.758C295.234 138.886 289.257 131.105 290.032 121.291H290.027Z" fill="#AFCDFB"/>
</g>
</svg>
