<svg width="529" height="479" viewBox="0 0 529 479" fill="none" xmlns="http://www.w3.org/2000/svg">
<g opacity="0.6">
<path d="M52.5812 480.424C52.5812 480.424 -26.8747 456.312 9.55927 345.907C45.9933 235.498 115.3 283.129 95.2746 186.57C68.8667 59.2412 180.693 -27.3459 303.636 7.92045C426.579 43.1868 393.628 82.384 538.106 42.9107C714.239 -5.2124 729.095 195.001 688.245 261.508C647.395 328.012 799.756 337.602 736.823 480.424H52.5812Z" fill="#EBF3FA"/>
<path d="M165.374 279.998C165.374 279.998 139.698 223.645 125.336 228.645C110.974 233.646 165.374 279.998 165.374 279.998Z" fill="#DFEBFD"/>
<path d="M183.839 305.496C183.839 305.496 122.33 240.599 98.4281 252.432C74.5262 264.268 112.999 276.958 127.67 280.415C142.345 283.871 183.839 305.493 183.839 305.493V305.496Z" fill="#DFEBFD"/>
<path d="M67.8708 342.752C68.186 323.034 98.4756 320.941 98.4756 320.941C98.4756 320.941 125.696 347.902 131.592 347.12C137.488 346.338 112.501 319.178 112.501 319.178C123.305 315.017 154.951 321.961 154.951 321.961C154.951 321.961 162.001 360.129 167.537 357.809C173.072 355.488 159.693 324.357 159.693 324.357C171.221 324.906 184.381 335.646 184.381 335.646C202.023 354.168 179.016 377.596 179.016 377.596C179.016 377.596 181.725 390.766 192.742 403.723C192.742 403.723 195.085 406.032 197.909 410.271L194.986 411.065C194.551 410.285 194.097 409.544 193.621 408.839C193.621 408.833 193.616 408.83 193.613 408.827C193.605 408.816 193.6 408.807 193.592 408.796C193.277 408.365 192.828 407.752 192.272 407.007C192.272 407.007 192.272 407.007 192.27 407.004C190.936 405.365 190.007 404.14 189.39 403.24C189.39 403.24 189.387 403.234 189.384 403.232C185.326 398.053 149.867 412.103 135.214 412.81C120.561 413.518 125.642 407.64 131.535 398.737C137.429 389.834 153.57 387.373 157.583 383.422C161.595 379.468 154.176 378.619 145.069 381.912C135.962 385.204 133.662 396.462 119.019 402.078C104.377 407.692 85.8233 380.422 85.8233 380.422C96.9956 381.069 114.128 369.869 113.941 365.832C113.754 361.794 86.3363 369.65 81.7787 369.662C77.2211 369.673 67.5556 362.481 67.8708 342.764V342.752Z" fill="#CDE0FB"/>
<path d="M375.817 479.001H159.532C154.833 479.001 151.023 474.888 151.023 469.819V158.783C151.023 153.575 155.031 149.411 159.85 149.607L384.323 160.75V469.816C384.323 474.888 380.514 478.998 375.815 478.998L375.817 479.001Z" fill="#F99746"/>
<path d="M392.833 479.001H609.118C613.817 479.001 617.627 474.888 617.627 469.819V158.783C617.627 153.575 613.62 149.411 608.8 149.607L384.324 160.75V469.816C384.324 474.888 388.134 478.998 392.833 478.998V479.001Z" fill="#F99746"/>
<path d="M167.401 163.099L160.388 169.233C159.397 170.098 158.82 171.418 158.82 172.81V474.354C158.82 476.876 160.677 478.923 162.969 478.923H180.43C182.821 478.923 184.715 476.706 184.571 474.078L167.404 163.102L167.401 163.099Z" fill="#AEC3FF"/>
<path d="M376.32 479.001H172.82C168.399 479.001 164.816 475.03 164.816 470.13V169.624C164.816 164.594 168.586 160.569 173.122 160.758L350.748 168.149C369.491 168.928 384.323 185.998 384.323 206.785V470.132C384.323 475.032 380.741 479.004 376.32 479.004V479.001Z" fill="#FFF7F0"/>
<path d="M391.671 479.001H596.485C600.543 479.001 603.831 475.354 603.831 470.86V168.865C603.831 164.249 600.372 160.554 596.209 160.73L414.13 168.304C397.489 168.997 384.324 184.148 384.324 202.604V470.86C384.324 475.357 387.613 479.001 391.671 479.001Z" fill="#FFF7F0"/>
<path d="M384.877 220.565H383.773V415.691H384.877V220.565Z" fill="#F9DEC7"/>
<path d="M490.823 201.086C491.232 201.598 491.28 202.165 491.072 202.769C491.072 202.769 491.072 202.774 491.069 202.777C490.684 203.896 489.431 205.138 487.978 206.375C487.791 206.533 487.628 206.679 487.484 206.812C487.447 206.846 487.409 206.881 487.372 206.918C487.342 206.944 487.313 206.973 487.286 207.002C485.929 208.33 486.434 208.641 483.995 211.335C481.214 214.406 479.312 214.449 478.772 214.162C478.315 213.917 479.256 212.284 480.298 210.449C480.348 210.36 480.399 210.271 480.45 210.182C480.589 209.938 480.728 209.69 480.864 209.446C482.085 207.237 481.783 206.194 481.518 202.889C481.305 200.204 477.738 187.867 477.738 187.867L483.036 186.927C483.036 186.927 484.567 196.739 486.311 198.263C487.246 199.074 488.296 199.094 489.194 199.695C489.258 199.738 489.319 199.781 489.381 199.824C489.891 200.195 490.412 200.575 490.821 201.086H490.823Z" fill="#FFB27D"/>
<path d="M490.825 201.086C491.233 201.598 491.281 202.165 491.073 202.769C491.073 202.769 491.073 202.774 491.07 202.777C490.603 203.893 489.379 205.129 487.974 206.363C487.79 206.524 487.63 206.674 487.483 206.812C487.445 206.846 487.408 206.881 487.37 206.918C487.341 206.944 487.312 206.973 487.285 207.001C485.928 208.33 486.433 208.641 483.994 211.335C481.213 214.406 479.31 214.449 478.771 214.162C478.314 213.917 479.254 212.284 480.296 210.449C480.836 210.242 483.339 209.17 485.244 206.582C486.922 204.31 488.049 201.383 489.192 199.692C489.256 199.735 489.318 199.778 489.379 199.821C489.89 200.192 490.411 200.572 490.819 201.083L490.825 201.086Z" fill="#233862"/>
<path d="M448.177 197.205C447.838 198.962 445.511 198.648 442.914 197.946C440.318 197.242 440.929 198.062 437.229 197.593C433.529 197.124 432.418 195.629 432.309 195.036C432.21 194.51 434.042 194.338 436.006 194.11C436.252 194.082 436.5 194.053 436.749 194.021C438.966 193.739 440.598 192.213 442.621 190.965C444.536 189.783 447.411 184.926 447.411 184.926L452.486 185.397C452.486 185.397 449.794 189.734 448.752 191.62C448.137 192.73 448.161 194.202 448.228 195.341C448.263 195.959 448.297 196.592 448.177 197.21V197.205Z" fill="#FFB27D"/>
<path d="M442.914 197.943C440.318 197.238 440.929 198.058 437.229 197.589C433.529 197.121 432.418 195.625 432.309 195.033C432.21 194.507 434.042 194.334 436.006 194.107L436.025 194.147C436.025 194.147 438.234 195.858 441.314 195.962C443.825 196.045 446.492 195.292 448.225 195.335C448.26 195.953 448.295 196.586 448.175 197.204C447.835 198.961 445.508 198.647 442.912 197.946L442.914 197.943Z" fill="#233862"/>
<path d="M485.089 192.244C485.089 192.244 484.737 192.491 484.208 192.805C483.58 193.176 482.704 193.642 481.894 193.886C481.028 194.148 480.147 194.214 479.514 194.22C478.963 194.225 478.6 194.185 478.6 194.185L472.52 176.184L471.422 172.929L470.252 169.466L469.843 168.262L467.863 162.398C467.863 162.398 472.704 149.041 477.638 155.411C478.239 156.184 478.8 157.314 479.329 158.7C479.69 159.643 480.032 160.71 480.358 161.863C480.601 162.729 480.839 163.646 481.066 164.598C481.68 167.192 482.225 170.056 482.701 172.929C484.288 182.53 485.092 192.241 485.092 192.241L485.089 192.244Z" fill="#233862"/>
<path d="M517.766 163.902L493.111 165.018C487.711 163.816 483.151 160.739 480.055 159.088C479.798 158.95 479.558 158.821 479.334 158.703C478.276 158.136 477.549 157.751 477.25 157.685C475.374 157.265 474.41 160.555 472.82 164.601C472.495 165.426 472.147 166.277 471.76 167.14C471.482 167.755 470.961 168.549 470.258 169.469C470.128 169.639 469.994 169.811 469.85 169.99C464.394 176.851 450.348 189.624 450.348 189.624C450.348 189.624 450.182 189.624 449.915 189.618C449.057 189.601 447.139 189.515 446.223 189.138C445.694 188.92 445.304 188.678 445.026 188.471C444.623 188.16 444.457 187.922 444.457 187.922C444.457 187.922 461.266 152.546 469.97 142.91C470.095 142.766 470.221 142.634 470.344 142.508C471.295 141.507 472.137 140.848 472.839 140.61C475.804 139.606 494.986 140.725 494.986 140.725L495.598 139.652L496.621 139.574L496.797 139.56L497.652 139.494L498.83 139.405L500.583 139.272L505.322 138.91L506.083 138.853L514.849 138.183C514.849 138.183 515.249 139.155 515.789 140.762C516 141.389 516.232 142.114 516.47 142.916C518.036 148.184 520.061 157.659 517.763 163.908L517.766 163.902Z" fill="#2B478B"/>
<path d="M523.372 103.011C518.99 98.9853 515.867 97.9904 515.432 91.6181C515.197 88.1587 510.882 76.7196 503.584 77.7174C502.972 77.8008 502.36 77.8612 501.746 77.8325C500.894 77.798 499.486 77.9187 498.038 78.836C494.525 81.0502 488.054 101.522 492.417 108.716C493.2 110.008 494.33 110.873 495.895 111.123C496.08 111.235 496.267 111.348 496.459 111.465C497.244 111.94 498.105 112.46 499.018 113.018C504.174 116.147 510.925 120.285 514.382 122.375C514.59 122.502 514.788 122.623 514.973 122.735C515.373 122.976 515.713 123.178 515.977 123.336C516.383 123.575 516.618 123.707 516.637 123.707C516.637 123.707 517.526 124.078 518.777 124.354C520.516 124.745 522.95 124.961 524.646 123.767C525.317 123.296 525.944 122.712 526.505 122.033C530.016 117.809 530.94 109.959 523.369 103.005L523.372 103.011Z" fill="#233862"/>
<path d="M501.661 107.71C501.632 107.73 505.025 109.007 507.306 107.94C509.454 106.94 511.1 103.161 511.068 103.158C510.095 103.104 509.032 102.178 508.249 96.1619L507.832 96.32L500.844 98.9656C500.844 98.9656 501.333 101.375 501.645 103.67C501.907 105.597 502.043 107.44 501.661 107.71Z" fill="#FFB27D"/>
<path d="M500.846 98.9653C500.846 98.9653 501.146 100.656 501.557 103.069C505.564 102.324 507.255 98.6433 507.832 96.3169L500.844 98.9624L500.846 98.9653Z" fill="#ED975D"/>
<path d="M499.795 101.346C499.795 101.346 509.34 100.041 508.494 93.6539C507.647 87.2672 508.309 82.7985 502.178 83.3621C496.047 83.9257 495.189 86.5425 494.992 88.7481C494.791 90.9537 497.292 101.519 499.795 101.343V101.346Z" fill="#FFB27D"/>
<path d="M495.359 85.2569C495.359 85.2569 501.426 90.9649 505.575 91.4538C509.724 91.9426 511.306 90.5192 511.306 90.5192C511.306 90.5192 508.872 88.3136 507.424 84.7709C506.996 83.727 506.085 83.0053 505.03 82.8989C502.068 82.5998 496.447 82.433 495.359 85.254V85.2569Z" fill="#233862"/>
<path d="M499.179 84.7799C499.179 84.7799 497.122 86.8906 496.47 88.4606C495.84 89.9761 495.629 93.6137 496.115 95.063C496.115 95.063 492.976 88.3801 494.801 85.1566C496.732 81.7404 499.182 84.777 499.182 84.777L499.179 84.7799Z" fill="#233862"/>
<path d="M493.534 122.769C493.687 143.548 493.505 139.206 495.605 141.193C496.11 141.67 497.539 141.967 499.42 142.113C505.337 142.582 515.748 141.61 516.151 140.437C517.543 136.374 516.587 135.1 517.768 128.871C517.891 128.21 518.043 127.491 518.219 126.712C519.197 122.436 520.132 120.983 516.806 114.076C513.79 107.819 510.651 102.735 510.362 102.916C502.268 108.006 501.645 103.672 501.645 103.672C501.645 103.672 493.457 112.636 493.532 122.769H493.534Z" fill="#AEC3FF"/>
<path d="M485.089 192.244C485.089 192.244 484.736 192.491 484.207 192.804C483.58 193.175 482.703 193.641 481.894 193.886C481.028 194.147 480.147 194.214 479.514 194.219C478.963 194.225 478.6 194.185 478.6 194.185L472.52 176.184L474.301 172.928L478.862 164.598L480.358 161.863C480.601 162.729 480.839 163.646 481.066 164.598C481.68 167.192 482.225 170.056 482.701 172.928C484.288 182.53 485.092 192.241 485.092 192.241L485.089 192.244Z" fill="#2B478B"/>
<path d="M501.649 103.67C501.649 103.67 493.343 105.122 492.344 108.958C491.345 112.794 485.465 135.35 485.465 135.35C485.465 135.35 489.675 136.198 491.639 134.116C493.6 132.035 498.545 114.715 498.545 114.715L501.649 103.673V103.67Z" fill="#AEC3FF"/>
<path d="M499.418 142.114C505.335 142.583 515.746 141.611 516.15 140.437C517.541 136.374 516.585 135.1 517.766 128.872L514.969 120.196C514.969 120.196 515.378 129.835 512.722 132.351C510.069 134.864 501.881 137.162 500.583 139.27C499.958 140.282 499.544 141.297 499.418 142.114Z" fill="#95B3EF"/>
<path d="M506.227 138.114C506.227 138.114 500.397 136.67 499.452 137.219C498.506 137.772 496.19 139.784 495.896 140.489C495.602 141.193 497.998 139.968 498.776 139.75C499.278 139.609 500.598 140.112 501.252 140.354C504.001 141.363 505.692 140.869 505.692 140.869L506.227 138.114Z" fill="#FFB27D"/>
<path d="M510.368 102.911C510.368 102.911 518.206 103.489 520.894 107.586C524.677 113.352 532.096 137.855 527.73 141.084C522.815 144.719 505.461 141.875 505.461 141.875C505.461 141.875 504.902 138.962 505.714 137.562C506.529 136.161 519.614 133.987 520.221 133.343C520.827 132.699 512.762 120.624 512.775 118.675C512.789 116.728 510.368 102.914 510.368 102.914V102.911Z" fill="#AEC3FF"/>
<path d="M499.156 138.968C499.156 138.968 497.921 140.659 497.518 140.857C497.115 141.055 496.855 141.004 496.855 141.004L497.692 139.413L499.156 138.968Z" fill="#FFB27D"/>
<path d="M499.452 137.219L495.883 139.051C495.883 139.051 496.032 139.318 496.471 139.301C496.909 139.284 498.017 138.855 498.017 138.855L499.455 137.219H499.452Z" fill="#FFB27D"/>
<path d="M498.283 142.651L470.145 142.435L461.828 119.715L489.924 119.928L498.283 142.651Z" fill="#F99746"/>
<path d="M469.82 141.553L506.981 141.835L506.973 142.718L470.146 142.436L469.82 141.553Z" fill="#ED7D2B"/>
<path d="M477.321 131.163C477.115 130.364 477.545 129.723 478.285 129.729C479.025 129.734 479.792 130.387 480 131.184C480.206 131.983 479.776 132.624 479.036 132.619C478.296 132.613 477.529 131.96 477.321 131.163Z" fill="white"/>
<path d="M344.021 478.802H193.818C183.378 478.802 174.901 469.678 174.901 458.44V457.592C174.901 446.354 183.378 437.23 193.818 437.23H344.021C354.461 437.23 362.938 446.354 362.938 457.592V458.44C362.938 469.678 354.461 478.802 344.021 478.802Z" fill="#2B478B"/>
<path d="M278.944 452.485L278.81 461.572C278.69 469.609 284.648 476.229 292.114 476.358L391.943 478.075L391.97 476.266C386.371 473.132 382.588 466.782 382.695 459.527L382.743 456.333C382.85 449.077 386.819 442.863 392.51 439.922V439.884L292.681 438.167C285.214 438.038 279.064 444.451 278.944 452.488V452.485Z" fill="#F9DEC7"/>
<path d="M394.557 478.802H289.386C282.603 478.802 277.289 469.667 277.289 458.003C277.289 446.34 282.603 437.204 289.386 437.204H394.557C395.431 437.204 396.139 437.966 396.139 438.906C396.139 439.847 395.431 440.609 394.557 440.609H289.386C284.542 440.609 280.452 448.574 280.452 458.006C280.452 467.438 284.545 475.404 289.386 475.404H394.557C395.431 475.404 396.139 476.166 396.139 477.106C396.139 478.046 395.431 478.808 394.557 478.808V478.802Z" fill="#1B3770"/>
<path d="M384.526 448.275H294.082V448.542H384.526V448.275Z" fill="#E8C2A3"/>
<path d="M383.24 452.074H348.906V452.318H383.24V452.074Z" fill="#E8C2A3"/>
<path d="M383.239 464.982H323.344V465.227H383.239V464.982Z" fill="#E8C2A3"/>
<path d="M305.311 448.41C305.311 448.41 309.951 450.5 310.504 457.557C311.055 464.614 310.504 468.372 310.504 468.372L304.902 465.502L299.247 468.372V457.341C299.247 457.341 299.041 448.41 291.32 448.41H305.314H305.311Z" fill="#F78248"/>
<path d="M297.344 437.227H181.777C174.944 437.227 169.395 431.254 169.395 423.899V419.263C169.395 411.907 174.944 405.935 181.777 405.935H297.344C304.178 405.935 309.727 411.907 309.727 419.263V423.899C309.727 431.254 304.178 437.227 297.344 437.227Z" fill="#699DEE"/>
<path d="M247.04 417.403L246.939 424.232C246.851 430.274 251.296 435.249 256.869 435.346L331.372 436.638L331.393 435.277C327.212 432.919 324.391 428.149 324.471 422.697L324.506 420.296C324.586 414.841 327.549 410.171 331.794 407.959V407.931L257.291 406.639C251.718 406.542 247.128 411.364 247.04 417.406V417.403Z" fill="#F9DEC7"/>
<path d="M333.324 437.184H254.836C249.773 437.184 245.809 430.317 245.809 421.549C245.809 412.782 249.773 405.915 254.836 405.915H333.324C333.976 405.915 334.505 406.487 334.505 407.194C334.505 407.902 333.976 408.474 333.324 408.474H254.836C251.221 408.474 248.168 414.461 248.168 421.549C248.168 428.638 251.221 434.625 254.836 434.625H333.324C333.976 434.625 334.505 435.197 334.505 435.904C334.505 436.612 333.976 437.184 333.324 437.184Z" fill="#4B87DD"/>
<path d="M325.833 414.249H269.16V414.433H325.833V414.249Z" fill="#E8C2A3"/>
<path d="M324.879 417.092H299.254V417.276H324.879V417.092Z" fill="#E8C2A3"/>
<path d="M324.875 426.797H280.176V426.981H324.875V426.797Z" fill="#E8C2A3"/>
<path d="M486.827 343.526L488.754 349.481L516.584 339.049L514.657 333.094L486.827 343.526Z" fill="#F99746"/>
<path d="M481.363 348.941L488.798 349.493L486.872 343.538L481.363 348.941Z" fill="#F9DDBF"/>
<path d="M516.578 339.053L514.651 333.098L516.052 332.573C517.066 332.193 518.172 332.771 518.525 333.859L519.133 335.741C519.508 336.898 518.939 338.165 517.864 338.568L516.577 339.05L516.578 339.053Z" fill="#F9DDBF"/>
<path d="M503.278 343.537C503.158 343.396 501.587 337.748 498.873 338.16C497.102 338.427 494.206 339.531 494.975 342.045C495.277 343.031 500.673 346.433 500.673 346.433L503.278 343.537Z" fill="#FFB27D"/>
<path d="M551.507 339.491C555.897 342.318 555.541 349.357 550.848 351.546C550.751 351.592 550.655 351.635 550.556 351.675C543.33 354.795 521.822 355.14 516.943 354.565C511.649 353.941 500.332 346.942 500.332 346.942C500.332 346.942 501.328 343.02 503.386 342.404C503.386 342.404 515.341 346.053 519.936 346.335C522.842 346.513 543.998 334.353 547.909 337.09C548.943 337.815 550.209 338.652 551.51 339.488L551.507 339.491Z" fill="#2B478B"/>
<path d="M446.348 451.354L397.422 453.945V401.281L446.348 398.693V451.354Z" fill="#F9DEC7"/>
<path d="M401.098 447.734L415.548 418.924L426.175 433.963L431.481 427.438L442.725 445.531L401.098 447.734Z" fill="#FFF7F0"/>
<path d="M422.434 414.535C422.434 412.312 424.109 410.42 426.174 410.311C428.239 410.202 429.914 411.916 429.914 414.139C429.914 416.361 428.239 418.253 426.174 418.363C424.109 418.472 422.434 416.758 422.434 414.535Z" fill="#FFF7F0"/>
<path d="M591.735 249.988L521.25 253.715V177.845L591.735 174.118V249.988Z" fill="#F9DEC7"/>
<path d="M526.543 244.768L547.365 203.265L562.672 224.929L570.316 215.532L586.516 241.596L526.543 244.768Z" fill="#FFF7F0"/>
<path d="M466.347 307.229L397.422 310.876V306.554L466.347 302.907V307.229Z" fill="#F99746"/>
<path d="M434.374 317.668L397.422 319.623V317.461L434.374 315.508V317.668Z" fill="#F9DEC7"/>
<path d="M423.544 325.429L397.422 326.812V324.652L423.544 323.269V325.429Z" fill="#F9DEC7"/>
<path d="M454.733 323.778L428.613 325.161V323.002L454.733 321.619V323.778Z" fill="#F9DEC7"/>
<path d="M490.281 321.9L458.453 323.582V321.423L490.281 319.738V321.9Z" fill="#F9DEC7"/>
<path d="M420.098 332.652L397.422 333.854V331.692L420.098 330.493V332.652Z" fill="#F9DEC7"/>
<path d="M447.18 331.22L424.504 332.419V330.26L447.18 329.061V331.22Z" fill="#F9DEC7"/>
<path d="M478.042 329.587L450.41 331.051V328.888L478.042 327.427V329.587Z" fill="#F9DEC7"/>
<path d="M466.347 258.465L397.422 262.111V257.789L466.347 254.143V258.465Z" fill="#F99746"/>
<path d="M434.374 268.904L397.422 270.859V268.697L434.374 266.741V268.904Z" fill="#F9DEC7"/>
<path d="M478.496 266.569L441.547 268.524V266.362L478.496 264.409V266.569Z" fill="#F9DEC7"/>
<path d="M423.544 276.665L397.422 278.048V275.885L423.544 274.505V276.665Z" fill="#F9DEC7"/>
<path d="M454.733 275.014L428.613 276.397V274.235L454.733 272.854V275.014Z" fill="#F9DEC7"/>
<path d="M490.281 273.133L458.453 274.818V272.656L490.281 270.974V273.133Z" fill="#F9DEC7"/>
<path d="M420.098 283.888L397.422 285.087V282.928L420.098 281.729V283.888Z" fill="#F9DEC7"/>
<path d="M447.18 282.456L424.504 283.655V281.496L447.18 280.297V282.456Z" fill="#F9DEC7"/>
<path d="M478.042 280.823L450.41 282.284V280.124L478.042 278.664V280.823Z" fill="#F9DEC7"/>
<path d="M569.337 264.478L520.852 267.044V264.004L569.337 261.439V264.478Z" fill="#F99746"/>
<path d="M546.845 271.823L520.852 273.197V271.676L546.845 270.302V271.823Z" fill="#F9DEC7"/>
<path d="M539.226 277.28L520.852 278.255V276.734L539.226 275.762V277.28Z" fill="#F9DEC7"/>
<path d="M536.806 282.365L520.852 283.207V281.689L536.806 280.844V282.365Z" fill="#F9DEC7"/>
<path d="M466.347 358.099L397.422 361.745V357.423L466.347 353.777V358.099Z" fill="#F99746"/>
<path d="M434.374 368.538L397.422 370.493V368.334L434.374 366.378V368.538Z" fill="#F9DEC7"/>
<path d="M478.496 366.203L441.547 368.158V365.999L478.496 364.043V366.203Z" fill="#F9DEC7"/>
<path d="M423.544 376.299L397.422 377.682V375.522L423.544 374.139V376.299Z" fill="#F9DEC7"/>
<path d="M454.733 374.651L428.613 376.031V373.872L454.733 372.489V374.651Z" fill="#F9DEC7"/>
<path d="M490.281 372.77L458.453 374.453V372.293L490.281 370.608V372.77Z" fill="#F9DEC7"/>
<path d="M420.098 383.525L397.422 384.724V382.562L420.098 381.363V383.525Z" fill="#F9DEC7"/>
<path d="M447.18 382.09L424.504 383.292V381.13L447.18 379.931V382.09Z" fill="#F9DEC7"/>
<path d="M478.042 380.46L450.41 381.921V379.762L478.042 378.298V380.46Z" fill="#F9DEC7"/>
<path d="M512.203 425.863L458.965 428.678V424.356L512.203 421.541V425.863Z" fill="#F99746"/>
<path d="M487.505 435.916L458.965 437.425V435.266L487.505 433.756V435.916Z" fill="#F9DEC7"/>
<path d="M521.587 434.113L493.047 435.623V433.463L521.587 431.953V434.113Z" fill="#F9DEC7"/>
<path d="M479.14 443.548L458.965 444.614V442.455L479.14 441.388V443.548Z" fill="#F9DEC7"/>
<path d="M503.23 442.274L483.055 443.341V441.181L503.23 440.112V442.274Z" fill="#F9DEC7"/>
<path d="M530.693 440.821L506.109 442.121V439.959L530.693 438.659V440.821Z" fill="#F9DEC7"/>
<path d="M476.479 450.731L458.965 451.657V449.495L476.479 448.569V450.731Z" fill="#F9DEC7"/>
<path d="M497.396 449.624L479.879 450.55V448.39L497.396 447.464V449.624Z" fill="#F9DEC7"/>
<path d="M521.233 448.361L499.891 449.492V447.332L521.233 446.202V448.361Z" fill="#F9DEC7"/>
<path d="M359.058 275.926L282.25 272.924V190.248L359.058 193.25V275.926Z" fill="#F9DEC7"/>
<path d="M288.02 263.706L310.706 220.566L327.39 245.71L335.719 236.235L353.37 266.259L288.02 263.706Z" fill="#FFF7F0"/>
<path d="M321.52 214.668C321.52 211.177 324.148 208.451 327.392 208.577C330.635 208.704 333.263 211.637 333.263 215.125C333.263 218.613 330.635 221.342 327.392 221.216C324.148 221.089 321.52 218.156 321.52 214.668Z" fill="#FFF7F0"/>
<path d="M349.879 308.53L280.957 305.836V301.514L349.879 304.208V308.53Z" fill="#F99746"/>
<path d="M317.907 316.027L280.957 314.583V312.424L317.907 313.867V316.027Z" fill="#F9DEC7"/>
<path d="M307.076 322.793L280.957 321.773V319.613L307.076 320.634V322.793Z" fill="#F9DEC7"/>
<path d="M338.27 324.012L312.148 322.991V320.829L338.27 321.85V324.012Z" fill="#F9DEC7"/>
<path d="M373.818 325.401L341.992 324.156V321.997L373.818 323.239V325.401Z" fill="#F9DEC7"/>
<path d="M303.633 329.7L280.957 328.815V326.652L303.633 327.541V329.7Z" fill="#F9DEC7"/>
<path d="M330.711 330.759L308.035 329.873V327.71L330.711 328.596V330.759Z" fill="#F9DEC7"/>
<path d="M361.577 331.963L333.945 330.885V328.723L361.577 329.804V331.963Z" fill="#F9DEC7"/>
<path d="M349.879 359.399L280.957 356.705V352.383L349.879 355.077V359.399Z" fill="#F99746"/>
<path d="M317.907 366.895L280.957 365.452V363.292L317.907 364.736V366.895Z" fill="#F9DEC7"/>
<path d="M362.03 368.621L325.078 367.177V365.015L362.03 366.458V368.621Z" fill="#F9DEC7"/>
<path d="M307.076 373.661L280.957 372.641V370.481L307.076 371.502V373.661Z" fill="#F9DEC7"/>
<path d="M338.27 374.881L312.148 373.86V371.7L338.27 372.721V374.881Z" fill="#F9DEC7"/>
<path d="M373.818 376.27L341.992 375.025V372.865L373.818 374.11V376.27Z" fill="#F9DEC7"/>
<path d="M303.633 380.569L280.957 379.683V377.521L303.633 378.409V380.569Z" fill="#F9DEC7"/>
<path d="M330.711 381.627L308.035 380.741V378.579L330.711 379.467V381.627Z" fill="#F9DEC7"/>
<path d="M361.577 382.832L333.945 381.754V379.591L361.577 380.673V382.832Z" fill="#F9DEC7"/>
<path d="M251.948 182.243L183.023 179.548V175.229L251.948 177.921V182.243Z" fill="#F99746"/>
<path d="M219.973 189.739L183.023 188.295V186.136L219.973 187.579V189.739Z" fill="#F9DEC7"/>
<path d="M264.098 191.465L227.148 190.021V187.862L264.098 189.305V191.465Z" fill="#F9DEC7"/>
<path d="M209.143 196.506L183.023 195.485V193.325L209.143 194.346V196.506Z" fill="#F9DEC7"/>
<path d="M240.334 197.725L214.215 196.704V194.544L240.334 195.565V197.725Z" fill="#F9DEC7"/>
<path d="M275.883 199.113L244.055 197.871V195.709L275.883 196.954V199.113Z" fill="#F9DEC7"/>
<path d="M205.699 203.412L183.023 202.527V200.367L205.699 201.253V203.412Z" fill="#F9DEC7"/>
<path d="M232.78 204.471L210.102 203.585V201.426L232.78 202.311V204.471Z" fill="#F9DEC7"/>
<path d="M263.643 205.679L236.012 204.597V202.438L263.643 203.516V205.679Z" fill="#F9DEC7"/>
<path d="M216.438 94.8068L222.486 93.2598L242.397 122.315L235.539 124.069L231.225 117.567L218.618 120.791L217.48 128.684L210.793 130.395L216.438 94.8068ZM227.506 111.931L221.247 102.536L219.582 113.955L227.503 111.928L227.506 111.931Z" fill="#AFCDFB"/>
<path d="M250.356 75.7872C251.217 66.4558 258.456 59.5113 267.823 60.512C273.572 61.1274 276.58 63.816 279.134 67.1201L274.667 71.6607C272.527 69.1129 270.649 67.5371 267.163 67.1661C262.023 66.6169 257.895 70.8152 257.367 76.5377C256.848 82.1652 260.03 87.2407 265.258 87.7985C268.744 88.1724 271.015 86.8985 273.628 84.8108L277.443 90.191C273.973 93.4663 270.307 95.0623 264.425 94.4354C255.451 93.4749 249.472 85.3083 250.351 75.7872H250.356Z" fill="#AFCDFB"/>
<path d="M342.73 66.8789L356.777 64.4375C360.234 63.8365 363.111 64.3857 365.118 65.9472C366.723 67.1952 367.688 68.8889 368.038 71.2153C368.588 74.8903 367.081 77.2512 365.115 78.9305C368.831 79.7644 371.321 81.5761 371.991 86.0419C372.884 91.9972 368.836 95.7556 362.008 96.9404L347.617 99.4421L342.733 66.8789H342.73ZM357.325 77.8522C360.264 77.3403 361.968 75.9945 361.591 73.4841C361.271 71.3447 359.534 70.4044 356.724 70.8932L350.155 72.0348L351.188 78.919L357.325 77.8522ZM361.065 90.6629C364.004 90.1511 365.609 88.7277 365.233 86.2173C364.904 84.0318 363.189 82.9448 359.775 83.5372L352.081 84.8744L353.155 92.0375L361.062 90.6629H361.065Z" fill="#AFCDFB"/>
<path d="M290.027 121.291C290.764 111.948 298.129 104.911 307.378 105.76C312.874 106.263 316.063 108.164 319.018 111.364L314.354 116.471C312.166 114.142 310.167 112.73 306.636 112.408C301.749 111.962 297.502 116.253 297.053 121.935C296.577 127.945 300.069 132.71 305.476 133.204C307.918 133.429 310.151 132.971 311.957 131.812L312.329 127.117L305.567 126.498L306.061 120.253L319.323 121.466L318.195 135.74C314.829 138.317 310.325 140.27 304.741 139.758C295.234 138.886 289.257 131.105 290.032 121.291H290.027Z" fill="#AFCDFB"/>
<path d="M393.501 104.239L400.685 105.041L404.853 127.962L413.842 106.415L419.589 107.06L424.272 130.133L432.73 108.624L439.74 109.409L426.142 141.288L420.307 140.635L415.499 118.398L406.546 139.094L400.712 138.441L393.496 104.233L393.501 104.239Z" fill="#AFCDFB"/>
<path d="M78.5859 469.307C78.5859 469.704 78.6073 470.098 78.6527 470.483C78.7916 471.717 79.1443 472.876 79.6732 473.922C80.0847 474.739 80.6056 475.481 81.2094 476.131C82.8336 477.876 85.0724 478.955 87.5488 478.955H213.612C218.562 478.955 222.577 474.635 222.577 469.307C222.577 466.641 221.576 464.229 219.951 462.483C218.33 460.735 216.088 459.656 213.612 459.656H87.5488C82.5985 459.656 78.5859 463.976 78.5859 469.307Z" fill="#F78248"/>
<path d="M88.2 457.911H131.422C132.178 457.911 132.798 457.244 132.798 456.43C132.798 455.616 132.178 454.949 131.422 454.949H88.2C87.444 454.949 86.8242 455.616 86.8242 456.43C86.8242 457.244 87.444 457.911 88.2 457.911Z" fill="#F78248"/>
<path d="M90.5876 459.656H95.2734V457.911H90.5876V459.656Z" fill="#EA642F"/>
<path d="M79.6719 473.923C80.0833 474.739 80.6042 475.481 81.208 476.131C82.8323 477.877 85.071 478.955 87.5475 478.955H114.249V473.923H79.6719Z" fill="#EA642F"/>
<path d="M239.265 466.48V472.134C239.265 472.752 239.188 473.353 239.043 473.922C238.314 476.824 235.853 478.955 232.928 478.955H101.61C98.685 478.955 96.2218 476.824 95.4952 473.922C95.3509 473.353 95.2734 472.752 95.2734 472.134V466.48C95.2734 462.713 98.1079 459.656 101.61 459.656H232.928C236.428 459.656 239.265 462.71 239.265 466.48Z" fill="#F99746"/>
<path d="M239.04 473.923C238.311 476.824 235.85 478.955 232.925 478.955H101.607C98.682 478.955 96.2188 476.824 95.4922 473.923H239.04Z" fill="#EF873A"/>
<path d="M226.223 469.341C226.223 472.338 227.235 475.018 228.83 476.792C228.867 476.832 228.9 476.87 228.937 476.91C230.171 478.233 231.734 479.024 233.436 479.024C236.094 479.024 242.682 474.707 246.767 471.84C248.802 470.411 250.213 469.341 250.213 469.341C250.213 469.341 248.8 468.272 246.767 466.843C242.682 463.973 236.094 459.656 233.436 459.656C232.666 459.656 231.926 459.818 231.229 460.117C230.056 460.623 229.012 461.523 228.189 462.699C227.281 463.99 226.634 465.615 226.364 467.421C226.364 467.441 226.356 467.464 226.356 467.484C226.268 468.082 226.223 468.703 226.223 469.341Z" fill="#CDE0FB"/>
<path d="M226.223 469.342C226.223 472.338 227.235 475.018 228.83 476.792L249.04 469.307L226.356 467.484C226.268 468.082 226.223 468.703 226.223 469.342Z" fill="#A6C7ED"/>
<path d="M228.188 462.699L248.349 468.626L231.228 460.117C230.055 460.623 229.01 461.523 228.188 462.699Z" fill="#E3F0FF"/>
<path d="M245.453 469.342C245.453 470.495 246.001 471.476 246.77 471.841C248.806 470.412 250.216 469.342 250.216 469.342C250.216 469.342 248.803 468.272 246.77 466.843C246.003 467.203 245.453 468.186 245.453 469.342Z" fill="#F99746"/>
<path d="M186.89 479.593C187.793 479.598 188.739 478.891 189.003 478.011L243.336 298.338C243.603 297.458 243.088 296.742 242.185 296.736C241.282 296.731 240.336 297.438 240.072 298.318L185.738 477.991C185.471 478.871 185.987 479.587 186.89 479.593Z" fill="#233862"/>
<path d="M143.101 479.317C144.004 479.323 144.949 478.615 145.214 477.736L199.547 298.062C199.814 297.182 199.298 296.466 198.395 296.461C197.492 296.455 196.547 297.162 196.282 298.042L141.949 477.715C141.682 478.595 142.2 479.311 143.101 479.317Z" fill="#233862"/>
<path d="M190.251 323.097L234.221 323.373C235.068 323.379 235.968 322.706 236.217 321.881C236.468 321.055 235.976 320.374 235.129 320.368L191.159 320.092C190.312 320.086 189.412 320.759 189.163 321.584C188.912 322.41 189.404 323.091 190.251 323.097Z" fill="#233862"/>
<path d="M180.762 354.467L224.733 354.743C225.58 354.749 226.48 354.076 226.728 353.251C226.979 352.422 226.488 351.744 225.641 351.738L181.671 351.462C180.824 351.456 179.924 352.129 179.675 352.954C179.424 353.78 179.916 354.461 180.762 354.467Z" fill="#233862"/>
<path d="M171.626 384.681L215.596 384.957C216.443 384.963 217.343 384.29 217.592 383.464C217.843 382.639 217.351 381.958 216.504 381.952L172.534 381.676C171.687 381.67 170.787 382.343 170.538 383.168C170.287 383.994 170.779 384.675 171.626 384.681Z" fill="#233862"/>
<path d="M161.34 418.696L205.311 418.972C206.158 418.978 207.058 418.305 207.306 417.48C207.558 416.655 207.066 415.973 206.219 415.967L162.249 415.691C161.402 415.685 160.502 416.358 160.253 417.184C160.002 418.009 160.494 418.69 161.34 418.696Z" fill="#233862"/>
<path d="M150.575 454.297L194.545 454.573C195.392 454.578 196.292 453.905 196.541 453.08C196.792 452.255 196.3 451.573 195.454 451.568L151.483 451.292C150.636 451.286 149.736 451.959 149.488 452.784C149.236 453.609 149.728 454.291 150.575 454.297Z" fill="#233862"/>
<path d="M231.902 257.654C231.902 257.654 232.423 256.394 232.76 255.799C233.096 255.204 234.536 253.458 234.78 253.852C235.025 254.246 236.003 256.909 235.482 257.654C234.961 258.399 235.517 259.695 232.928 260.48L231.902 257.654Z" fill="#FFB27D"/>
<path d="M203.143 249.706C203.143 249.706 216.391 261.608 221.555 260.507C225.595 259.644 231.793 257.358 231.793 257.358L233.032 260.772C233.032 260.772 227.473 268.889 221.676 268.941C212.616 269.025 205.922 264.72 205.922 264.72L203.141 249.706H203.143Z" fill="#EF7E29"/>
<path d="M179.906 375.257C179.906 375.257 180.291 381.934 181.49 382.029C181.651 382.04 187.579 382.041 187.579 382.041L195.147 381.994C195.147 381.994 195.096 380.03 192.884 379.616C190.672 379.202 186.97 377.529 185.631 374.38C184.221 371.07 179.906 375.254 179.906 375.254V375.257Z" fill="#1C3D72"/>
<path d="M179.473 375.721C179.473 375.721 181.773 376.549 183.568 376.549C185.572 376.549 187.391 375.962 187.391 375.962C187.391 375.962 187.824 371.453 190.207 361.521C191.457 356.313 193.242 349.622 195.78 341.303C202.798 318.312 204.932 304.866 205.127 303.592C205.138 303.526 205.141 303.491 205.141 303.491L205.119 303.48L183.541 293.283C183.541 293.283 186.208 324.966 182.807 337.127C182.331 338.827 181.923 340.808 181.573 342.953C179.425 356.164 179.473 375.721 179.473 375.721Z" fill="#2B478B"/>
<path d="M190.21 361.521C191.46 356.313 193.245 349.622 195.783 341.303C202.801 318.312 204.935 304.866 205.13 303.592C205.13 303.555 205.125 303.517 205.122 303.48L183.544 293.283C183.544 293.283 186.211 324.966 182.81 337.127C182.334 338.827 190.213 361.521 190.213 361.521H190.21Z" fill="#233862"/>
<path d="M196.762 375.257C196.762 375.257 197.146 381.934 198.346 382.029C198.506 382.04 204.434 382.041 204.434 382.041L212.003 381.994C212.003 381.994 211.952 380.03 209.74 379.616C207.528 379.202 203.825 377.529 202.487 374.38C201.076 371.07 196.762 375.254 196.762 375.254V375.257Z" fill="#1C3D72"/>
<path d="M208.999 294.028C208.999 294.028 209.279 314.559 205.98 339.767C202.681 364.977 203.797 375.677 203.797 375.677C203.797 375.677 201.529 376.468 200.616 376.549C198.283 376.753 195.895 375.959 195.895 375.959C195.895 375.959 191.172 350.74 192.526 338.122C193.881 325.504 186.059 294.824 186.059 294.824L209.001 294.025L208.999 294.028Z" fill="#2B478B"/>
<path d="M193.695 245.982L197.908 248.956L201.745 247.788C202.444 246.71 202.632 244.636 202.642 242.836C202.653 241.051 202.493 239.538 202.493 239.538L196.81 236.838L194.689 235.831C194.694 235.866 194.855 237.706 194.876 237.974C195.272 242.741 193.695 245.979 193.695 245.979V245.982Z" fill="#FFB27D"/>
<path d="M209.095 299.736C203.851 305.185 184.009 304.268 182.786 298.263C181.565 292.259 184.119 247.158 193.077 244.326C194.936 243.736 204.871 247.196 204.871 247.196C204.871 247.196 206.431 251.587 207.452 257.174C207.65 258.261 208.229 269.786 208.662 280.57C208.865 285.614 209.036 290.494 209.122 294.068C209.202 297.415 209.204 299.615 209.092 299.733L209.095 299.736Z" fill="#F99746"/>
<path d="M195.301 238.06C196.455 240.159 200.499 241.994 202.642 242.836C202.653 241.05 202.492 239.538 202.492 239.538L196.81 236.838C195.554 236.82 194.788 237.122 195.303 238.06H195.301Z" fill="#FCA56B"/>
<path d="M204.635 239.164C204.635 239.164 195.477 242.238 193.786 236.07C192.095 229.902 189.773 226.146 195.549 223.92C201.325 221.698 203.109 223.687 204.14 225.6C205.169 227.509 206.972 238.203 204.635 239.164Z" fill="#FFB27D"/>
<path d="M203.781 225.007C203.781 225.007 203.196 232.185 201.818 231.871C200.439 231.561 198.922 230.894 199.122 233.056C199.325 235.219 197.781 238.928 195.793 238.919C191.53 238.899 186.894 227.121 188.062 224.889C191.431 218.445 208.649 217.145 203.778 225.007H203.781Z" fill="#163560"/>
<path d="M202.435 244.481C202.318 244.426 195.617 241.194 194.835 241.47C194.052 241.749 193.074 244.323 193.074 244.323L204.869 247.193C204.869 247.193 203.939 245.16 202.432 244.478L202.435 244.481Z" fill="#EF7E29"/>
<path d="M244.137 279.411L206.589 317.464C205.852 318.208 204.925 318.447 204.527 317.993L203.261 316.543C202.862 316.089 203.138 315.106 203.875 314.358L241.423 276.305C242.158 275.56 243.087 275.322 243.485 275.776L244.752 277.225C245.15 277.68 244.875 278.663 244.137 279.411Z" fill="#1F4D84"/>
<path d="M223.067 300.765L206.589 317.463C205.852 318.208 204.925 318.447 204.527 317.993L203.261 316.543C202.862 316.089 203.138 315.105 203.875 314.358L220.353 297.659L223.07 300.765H223.067Z" fill="#F78248"/>
<path d="M235.51 265.041C236.953 270.154 239.622 274.945 243.498 278.87C255.335 290.858 273.964 290.246 285.101 277.504C296.092 264.929 295.683 245.243 284.292 233.205C284.142 233.044 283.987 232.883 283.83 232.725C271.992 220.737 253.369 221.346 242.232 234.088C234.741 242.66 232.542 254.537 235.51 265.041ZM243.923 235.802C250.404 228.386 259.639 225.43 268.311 227.046C273.365 227.986 278.225 230.479 282.24 234.545C293.145 245.588 293.666 264.052 283.408 275.79C279.63 280.112 274.92 282.916 269.933 284.187C261.365 286.369 251.98 284.026 245.09 277.047C234.185 266.004 233.661 247.54 243.923 235.802Z" fill="#1F4D84"/>
<g opacity="0.5">
<path d="M283.404 275.79C279.626 280.112 274.916 282.916 269.929 284.19C261.364 286.373 251.976 284.029 245.086 277.05C234.184 266.008 233.66 247.543 243.919 235.805C250.4 228.389 259.635 225.433 268.307 227.052C273.362 227.992 278.221 230.485 282.236 234.549C293.139 245.591 293.662 264.055 283.404 275.793V275.79Z" fill="#B3CFF9"/>
</g>
<path d="M209.123 294.068C188.432 278.197 190.152 257.021 190.152 257.021C197.715 261.611 205.217 271.762 208.66 280.567C208.863 285.611 209.034 290.491 209.12 294.065L209.123 294.068Z" fill="#EF7E29"/>
<path d="M229.539 286.841C230.998 286.479 231.978 285.291 232.181 285.084C232.181 285.084 232.804 285.13 232.08 286.559C232.018 286.68 231.885 286.985 231.783 287.203C231.74 287.292 231.799 287.396 231.893 287.402C232.734 287.471 233.581 287.111 235.203 287.477C235.427 287.525 235.491 288.103 235.483 288.351C235.467 288.768 235.496 289.233 235.048 289.872C234.786 290.243 234.056 290.643 232.432 291.347C231.812 291.614 230.044 291.413 228.388 290.801L227.062 290.142L227.474 287.494L227.808 287.569C228.337 287.686 228.991 286.993 229.542 286.847L229.539 286.841Z" fill="#F99746"/>
<path d="M196.572 247.195C196.572 247.195 177.981 251.005 202.04 279.983C205.887 284.618 226.677 290.651 226.677 290.651C226.677 290.651 228.785 288.722 227.721 287.157C227.721 287.157 213.408 275.968 210.258 274.191C208.842 273.392 204.76 256.334 202.449 252.225C200.138 248.115 196.569 247.195 196.569 247.195H196.572Z" fill="#F99746"/>
<path d="M232.405 258.005C232.405 258.005 233.014 256.754 233.132 256.095C233.249 255.434 234.016 253.51 234.331 253.171C234.457 253.036 234.874 253.211 234.922 253.795C234.943 254.048 234.828 254.511 234.622 255.06C234.291 255.954 234.345 257.171 234.23 257.576C233.941 258.586 232.402 258.008 232.402 258.008L232.405 258.005Z" fill="#FFB27D"/>
<path d="M751.258 482L5.20514 481.724C4.64947 481.724 4.19531 481.235 4.19531 480.637V479.78C4.19531 479.182 4.64947 478.693 5.20514 478.693L751.258 478.969C751.814 478.969 752.268 479.458 752.268 480.056V480.913C752.268 481.511 751.814 482 751.258 482Z" fill="#2E3552"/>
</g>
</svg>
