<svg width="360" height="273" viewBox="0 0 360 273" fill="none" xmlns="http://www.w3.org/2000/svg">
<path d="M223.396 51.8686L226.242 52.7424L228.152 48.3145L232.47 49.0806L234.441 46L236 46.9998L233.363 51.1188L229.271 50.3933L227.283 55L223 53.6832L223.396 51.8686Z" fill="#50BFA5"/>
<path d="M42.3959 214.869L45.2424 215.742L47.1529 211.315L51.4713 212.081L53.4427 209L55 210L52.3647 214.117L48.2716 213.393L46.2839 218L42 216.683L42.3959 214.869Z" fill="#50BFA5"/>
<path d="M240.753 270C240.753 270 255.685 216.918 256.882 205.208C258.08 193.499 249.732 197.128 249.732 197.128C249.732 197.128 256.757 174.816 251.676 169.521C246.598 164.226 242.017 174.096 242.017 174.096C242.017 174.096 240.48 147.01 235.064 147C224.977 146.981 225.177 176.539 225.177 176.539C225.177 176.539 222.601 164.967 217.202 168.139C209.057 172.923 220.737 196.114 220.737 196.114C220.737 196.114 210.359 196.123 206.714 201.61C200.172 211.457 240.755 270 240.755 270H240.753Z" fill="#50BFA5"/>
<path d="M236.002 262C236.002 262 279.351 254.46 288.78 246.471C298.209 238.481 288.876 234.879 288.876 234.879C288.876 234.879 310.653 223.268 310.401 215.373C310.15 207.477 299.33 211.492 299.33 211.492C299.33 211.492 317.679 189.73 313.335 185.598C305.243 177.899 284.032 200.521 284.032 200.521C284.032 200.521 290.33 189.763 283.696 188.061C273.692 185.493 266.308 212.021 266.308 212.021C266.308 212.021 268.184 201.545 261.286 202.94C248.911 205.443 236 261.998 236 261.998L236.002 262Z" fill="#50BFA5"/>
<path d="M261.078 202.937C267.977 201.637 266.088 212.016 266.088 212.016C266.088 212.016 273.454 185.493 283.433 188.06C290.051 189.762 283.768 200.518 283.768 200.518C283.768 200.518 304.93 177.9 313 185.598L236 262C237.37 254.702 249.513 205.117 261.078 202.939V202.937Z" fill="#3C8F7C"/>
<path d="M223 268.472C223 268.472 245.947 244.132 257.501 241.597C269.057 239.061 266.978 247.637 266.978 247.637C266.978 247.637 289.904 226.725 295.216 231.792C300.529 236.859 294.782 241.751 294.782 241.751C294.782 241.751 313.879 238.22 316.613 244.758C320.814 254.803 289.407 260.269 289.407 260.269C289.407 260.269 302.568 261.219 299.516 267.517C294.913 277.014 223 268.47 223 268.47V268.472Z" fill="#355389"/>
<path d="M317 244.65C314.255 238.214 295.08 241.689 295.08 241.689C295.08 241.689 300.85 236.872 295.516 231.883C290.182 226.893 267.876 244.685 267.876 244.685C267.876 244.685 273.135 234.404 261.531 236.899C249.928 239.395 223 268 223 268L316.998 244.65H317Z" fill="#466EB6"/>
<path d="M186.485 19.1272C194.404 20.4399 196.757 30.9105 190.173 35.5938C188.99 36.4349 188.172 37.6996 187.824 39.1146L186.624 43.9858C186.295 45.3277 184.996 46.1896 183.641 45.9643L180.641 45.4675C179.286 45.2421 178.331 44.0087 178.445 42.6292C178.861 37.6015 179.375 35.7775 177.753 33.5339C173.006 26.9744 178.563 17.8124 186.483 19.1272H186.485Z" fill="#F7CC7F"/>
<path d="M185.691 40C186.203 35.7919 186.919 31.3492 187.164 30.0892C191.664 30.3359 189.953 25.6262 187.876 27.5407C187.285 28.0871 187.006 28.8272 186.821 29.6366C185.326 29.5021 183.865 29.08 182.534 28.397C182.606 27.3592 182.709 26.5723 182.417 25.9076C181.976 24.9045 180.696 24.6313 180.175 25.6079C179.98 25.9749 179.945 26.4438 180.086 26.8332C180.388 27.663 181.296 28.2115 182.089 28.6417C181.853 31.9874 181.524 35.3596 181.111 38.6788L181.536 38.7318C181.943 35.4656 182.267 32.1485 182.504 28.8557C183.826 29.5082 185.264 29.9159 186.737 30.0546C186.428 31.6653 185.749 35.9957 185.268 39.947L185.693 39.998L185.691 40ZM189.302 29.0963C188.901 29.5245 188.232 29.712 187.254 29.6672C187.422 28.9516 187.673 28.3093 188.168 27.8526C189.285 26.821 189.971 28.3787 189.3 29.0963H189.302ZM182.025 26.0789C182.272 26.6375 182.177 27.3531 182.122 28.1748C181.479 27.8119 180.731 27.3572 180.491 26.6925C180.32 26.2257 180.512 25.5671 180.99 25.4448C181.041 25.4325 181.855 25.6894 182.025 26.0809V26.0789Z" fill="#FAE0B2"/>
<path d="M188 39.403C187.99 39.4404 187.976 39.4777 187.966 39.517L186.821 44.1035C186.506 45.367 185.265 46.1786 183.971 45.9663L181.106 45.4987C179.812 45.2864 178.9 44.1251 179.009 42.8262C179.185 40.7196 179.381 39.2124 179.407 38L187.998 39.403H188Z" fill="#96D9C9"/>
<path d="M192.583 15.5553L194.896 11.2691C195.12 10.854 194.97 10.3341 194.562 10.106C194.153 9.87796 193.641 10.03 193.417 10.4451L191.104 14.7314C190.88 15.1464 191.03 15.6663 191.438 15.8944C191.849 16.1225 192.361 15.9684 192.583 15.5553Z" fill="#FAE0B2"/>
<path d="M196.955 25.997L202.199 25.5826C202.681 25.5446 203.039 25.1606 202.997 24.7234C202.955 24.2882 202.529 23.965 202.045 24.003L196.801 24.4174C196.319 24.4554 195.961 24.8394 196.003 25.2766C196.045 25.7118 196.471 26.035 196.955 25.997Z" fill="#FAE0B2"/>
<path d="M201.74 41.745C202.09 41.4056 202.086 40.8594 201.731 40.5242C200.408 39.2724 198.95 38.1344 197.402 37.1453C196.989 36.8805 196.429 36.9881 196.152 37.3833C195.875 37.7785 195.988 38.3144 196.401 38.5792C197.854 39.5083 199.221 40.5759 200.464 41.7512C200.817 42.0843 201.387 42.0843 201.74 41.7429V41.745Z" fill="#FAE0B2"/>
<path d="M179.318 15.9671C179.81 15.8394 180.1 15.3436 179.968 14.8629C179.347 12.5766 178.966 10.2188 178.836 7.8545C178.81 7.35653 178.376 6.97331 177.869 7.00146C177.363 7.02744 176.975 7.45396 177.001 7.95193C177.138 10.4396 177.539 12.923 178.193 15.3306C178.325 15.8155 178.832 16.097 179.316 15.9693L179.318 15.9671Z" fill="#FAE0B2"/>
<path d="M173.964 21.4505C174.099 21.0398 173.845 20.6087 173.393 20.4842L168.099 19.0329C167.647 18.9103 167.173 19.1407 167.036 19.5514C166.901 19.9602 167.155 20.3931 167.607 20.5158L172.901 21.9671C173.351 22.0897 173.827 21.8593 173.962 21.4486L173.964 21.4505Z" fill="#FAE0B2"/>
<path d="M165.873 37C165.95 37 166.03 36.9891 166.109 36.9653C167.986 36.4179 169.813 35.6577 171.538 34.7064C171.963 34.4718 172.124 33.9245 171.898 33.4814C171.672 33.0405 171.142 32.8711 170.717 33.1057C169.104 33.9962 167.394 34.7064 165.636 35.219C165.172 35.3536 164.902 35.8532 165.033 36.3354C165.142 36.735 165.492 36.9957 165.873 36.9957V37Z" fill="#FAE0B2"/>
<path d="M89.819 75.4039L92.5005 68.8792L99.244 67.4539C100.011 67.2913 100.266 66.2925 99.6728 65.7647L94.472 61.1234L95.2373 54.0835C95.3255 53.2811 94.4803 52.7258 93.8094 53.1417L87.9152 56.799L81.6456 53.8745C80.9316 53.5408 80.1561 54.1954 80.3325 54.9809L81.8897 61.8815L77.2491 67.1139C76.7197 67.7094 77.0849 68.6702 77.8665 68.7398L84.725 69.348L88.1265 75.5074C88.5142 76.2084 89.5154 76.1493 89.8211 75.406L89.819 75.4039Z" fill="#F7CC7F"/>
<path d="M47.6771 53L48.7695 57.5266L56.046 56.5221L58.4363 62.9383L64 63.1037L63.9186 66L56.4793 65.7803L54.2111 59.7009L46.6437 60.7452L45 53.9313L47.6771 53Z" fill="#F48C7F"/>
<path d="M113 268.998H239.267C244.089 268.998 248 264.856 248 259.749V254.249C248 249.139 244.089 245 239.267 245H113C118.777 251.687 118.875 261.909 113.233 268.721L113 269V268.998Z" fill="#B75742"/>
<path d="M114.006 248H184.242C189.078 248 193 252.253 193 257.501C193 262.747 189.08 267 184.242 267H114C117.281 261.173 117.275 253.812 114.006 248Z" fill="#FAE0B2"/>
<path d="M157.077 228.784C156.894 228.422 157.174 228 157.598 228H224.504C229.748 228 234 232.029 234 237C234 241.969 229.748 246 224.504 246H157.58C157.153 246 156.872 245.576 157.059 245.212C159.708 240.01 159.702 233.963 157.079 228.784H157.077Z" fill="#86B1F2"/>
<path d="M157.22 229.002H190.735C196.956 229.002 202 232.36 202 236.501C202 240.642 196.956 244 190.735 244H157C159.305 239.227 159.37 233.794 157.22 229V229.002Z" fill="#F7CC7F"/>
<path d="M166 233H170.318C171.248 233 172 233.411 172 233.918V234H166V233Z" fill="#B75742"/>
<path d="M162.008 234.829C162.008 233.817 163.127 233 164.505 233H170C168.953 233 168.105 233.621 168.105 234.388L168.131 254L165.095 251.478L162 254L162.006 234.831L162.008 234.829Z" fill="#F47458"/>
<path d="M169 226.998H207.774C211.211 226.998 214 223.641 214 219.499C214 215.357 211.213 212 207.774 212H169C171.963 216.158 172.079 222.256 169.276 226.573L169 227V226.998Z" fill="#FAE0B2"/>
<path d="M214.191 219.498C214.191 215.245 211.331 211.798 207.801 211.798H168.331C168.147 211.798 167.998 211.616 168 211.395C168 211.175 168.149 211 168.331 211H230.947C234.842 211 238 214.804 238 219.5C238 224.194 234.842 228 230.947 228H168.333C168.153 228 168.004 227.823 168.002 227.605C168.002 227.384 168.149 227.202 168.333 227.202H207.803C211.333 227.202 214.193 223.755 214.193 219.502L214.191 219.498Z" fill="#466EB6"/>
<path d="M176 216H180.318C181.248 216 182 216.411 182 216.919V217H176V216Z" fill="#184655"/>
<path d="M172.008 217.743C172.008 216.782 173.127 216 174.505 216H180C178.953 216 178.105 216.591 178.105 217.322L178.131 236L175.095 233.598L172 236L172.006 217.743H172.008Z" fill="#3C8F7C"/>
<path d="M106.858 97.5652L101 96L104.971 149.763L112 150L108.455 99.5176C108.389 98.5872 107.748 97.8025 106.86 97.5652H106.858Z" fill="#184655"/>
<path d="M104.704 151.992C104.833 152.005 104.964 152.002 105.099 151.986C106.243 151.844 107.093 150.656 106.992 149.329L103.154 98.1585C103.055 96.8333 102.047 95.8726 100.901 96.0138C99.7546 96.1549 98.9073 97.3432 99.0081 98.6705L102.846 149.841C102.934 151.012 103.731 151.897 104.704 151.992Z" fill="#F7CC7F"/>
<path d="M158 154.35C157.998 154.388 157.996 154.427 157.992 154.465C157.81 156.574 156.266 158.151 154.539 157.989L105.816 153.379C104.089 153.217 102.837 151.373 103.017 149.265C103.025 149.175 103.035 149.087 103.047 149L157.998 154.35H158Z" fill="#F7CC7F"/>
<path d="M124.002 208.654C127.21 210.468 137.018 207.288 137.018 207C137.158 209.733 148 236.479 148 236.479L147.992 244.708C147.992 244.708 125.653 245.793 125.974 243.781C126.295 241.768 127.497 243.077 131.952 239.276C132.348 238.938 138.604 237.458 136.911 233.682C133.501 226.079 126.258 213.401 124 208.654H124.002Z" fill="#F7A491"/>
<path d="M148.311 245.993L123.912 246C123.031 245.904 122.826 245.133 123.136 244.665C123.776 243.7 128.453 241.428 131.595 239.919C137.07 240.607 146.694 238.344 147.575 237C149.893 240.337 148.801 245.882 148.309 245.991L148.311 245.993Z" fill="#3C8F7C"/>
<path d="M153.914 190.02C154.245 188.993 132.842 179.608 131.885 180.681C130.19 182.577 143.466 218.184 143.466 218.184L128.214 223C128.214 223 112.36 181.863 113.02 174.338C113.683 166.813 121.625 158.263 138.836 163.736C156.046 169.207 153.916 190.02 153.916 190.02H153.914Z" fill="#355389"/>
<path d="M109.973 213.929C113.602 213.257 118.305 213.066 122.069 213C121.626 216.405 119.471 233.871 119.865 234.943C121.461 239.29 125 241.324 125 241.324C125 241.324 108.31 256.625 107.302 254.858C106.293 253.091 108.047 253.327 109.137 247.498C109.232 246.98 111.647 238.844 111.796 234.454C112.082 226.084 110.098 218.576 109.973 213.929Z" fill="#F7A491"/>
<path d="M115.015 156.123C117.32 154.857 123.302 154.813 129.881 155.252C142.708 156.107 155.366 158.706 167.568 162.865L175.732 165.65L175.706 157.034C175.706 157.034 201.677 152.561 202.58 159.186C203.942 169.164 202.253 189.424 193.599 193.945C166.72 207.99 129.053 171.57 128.918 176.335C128.734 182.734 123.494 206.547 122.154 216.972C118.427 217.039 112.025 217.037 109.249 216.379C108.71 195.956 108.455 159.725 115.015 156.123Z" fill="#466EB6"/>
<path d="M124.98 241.71L106.385 256.782C105.649 257.277 105.036 256.848 105.002 256.308C104.929 255.193 107.203 250.534 108.742 247.418C113.375 244.405 119.486 236.544 119.377 235C121.337 236.679 125.298 241.318 124.982 241.712L124.98 241.71Z" fill="#3C8F7C"/>
<path d="M167.06 72.4328C167.68 66.5253 168.333 60.5969 173.035 56.2673C176.841 52.7642 181.677 52.1699 186.461 54.0449C200.013 59.356 193.031 71.8908 210.311 84.5303C215.682 88.4582 221.599 91.1451 225.642 96.4332C231.3 103.835 229.164 112.739 224.006 118.684C199.33 147.127 171.779 108.715 169.802 99.4926C168.331 92.633 166.662 76.233 167.06 72.4307V72.4328Z" fill="#13375B"/>
<path d="M171.671 105.819C173.698 101.935 175.788 98.8508 175.788 98.8508C177.891 94.9643 183.323 93 183.323 93C183.323 93 185.14 93.0378 187.228 93.145C187.357 93.5042 187.488 93.7626 187.622 93.8655C188.406 94.4769 192.9 93.687 195.802 95.7374C205.532 104.408 202.841 146.435 202.075 159.708L172.443 160C172.443 160 176.18 131.439 170.158 124.101C165.964 118.992 168.662 111.586 171.671 105.821V105.819Z" fill="#50BFA5"/>
<path d="M185.087 78.4892C185.087 78.4892 186.733 90.6139 187.882 93.5608C189.031 96.5077 181.563 102.808 175.349 104.721C169.134 106.633 177.247 98.2118 176.99 95.0626C176.733 91.9135 175.604 77 175.604 77L185.089 78.4892H185.087Z" fill="#F7A491"/>
<path d="M176.315 81.0464C176.133 78.7122 176 77 176 77L185.495 78.4093C185.495 78.4093 185.734 79.7567 186 81.6643C182.152 83.843 178.69 83.1553 176.317 81.0484L176.315 81.0464Z" fill="#F47458"/>
<path d="M182.144 57.1064C182.144 57.1064 185.836 57.9552 188.117 61.5005C190.399 65.0457 191.962 75.4861 184.453 80.359C176.942 85.2319 171.101 78.3388 171.004 71.6162C170.908 64.8936 172.321 55.9206 182.146 57.1064H182.144Z" fill="#F7A491"/>
<path d="M169.355 69.6846C169.983 71.2969 171.228 72.2982 172.137 71.9202C173.046 71.5421 173.273 69.9278 172.645 68.3154C172.017 66.7031 170.772 65.7018 169.863 66.0798C168.954 66.4579 168.727 68.0722 169.355 69.6846Z" fill="#F7A491"/>
<path d="M181.002 56.0012C181.002 56.0012 185.738 66.7032 189.899 67.6597C194.061 68.6163 194 74 194 74C194 74 193.907 61.5648 190.007 58.7114C186.107 55.8581 181 56.0012 181 56.0012H181.002Z" fill="#13375B"/>
<path d="M188.238 70.7654C187.651 72.6546 188.188 74.5172 189.437 74.9217C190.687 75.3262 192.176 74.1238 192.762 72.2346C193.349 70.3454 192.812 68.4828 191.563 68.0783C190.313 67.6738 188.824 68.8762 188.238 70.7654Z" fill="#F7A491"/>
<path d="M134.97 149.356C136.755 148.7 139.41 148.618 139.365 148.378C139.187 147.408 131.302 150.52 132.367 149.105C132.96 148.316 138.86 145.524 140.294 145.987C141.686 146.434 150.824 149.043 150.824 149.043L175.795 143.09C175.795 143.09 182.097 128.519 182.714 116C187.925 116.716 191.471 118.026 196 120.583C193.815 132.555 188.509 151.96 182.641 155.6C180.172 157.132 150.702 153.768 150.702 153.768C150.702 153.768 144.207 153.302 143.146 152.887C142.341 152.571 140.27 151.385 139.142 151.061C136.58 150.322 132.014 152.175 132 151.665C131.99 151.294 133.148 150.031 134.972 149.36L134.97 149.356Z" fill="#F7A491"/>
<path d="M182.713 102.184C182.957 98.2803 184.414 94.5126 188.511 93.2978C191.048 92.5451 193.895 93.2644 195.924 94.9454C198.336 96.9443 199.01 100.15 199 103.183C198.975 110.073 198.511 117.217 197.27 124C192.669 121.409 187.296 119.852 182 119.126C182.002 119.086 182.392 107.34 182.715 102.182L182.713 102.184Z" fill="#96D9C9"/>
<path d="M287.483 99.9752L325.841 92.5897C326.61 92.4421 327.119 91.6753 326.976 90.8794L322.171 64.1989C322.028 63.403 321.287 62.8773 320.517 63.0248L282.159 70.4103C281.39 70.5579 280.881 71.3247 281.024 72.1206L285.829 98.8011C285.972 99.597 286.713 100.123 287.483 99.9752Z" fill="#F7CC7F"/>
<path d="M305.371 68.9758L316.859 66.7865C317.617 66.6428 318.117 65.8962 317.976 65.1212L317.257 61.1674C317.116 60.3924 316.387 59.8805 315.629 60.0242L304.141 62.2135C303.383 62.3572 302.883 63.1038 303.024 63.8788L303.743 67.8326C303.884 68.6076 304.613 69.1195 305.371 68.9758Z" fill="#F7CC7F"/>
<path d="M285.39 98.9406C285.59 99.664 286.299 100.113 287.024 99.9751L325.835 92.6038C326.556 92.4657 327.059 91.7939 326.994 91.0459L324.964 67.3286C324.93 66.9205 324.726 66.5455 324.406 66.2961C324.085 66.0488 323.677 65.9499 323.283 66.0241L280.167 74.2136C279.773 74.2878 279.428 74.5289 279.215 74.8771C279.003 75.2254 278.945 75.6458 279.054 76.0394L285.39 98.9386V98.9406Z" fill="#FAE0B2"/>
<path d="M82 21.0638L88.5821 23L90 14.412L87.8469 14L86.848 20.0491L82.5761 18.7916L82 21.0638Z" fill="#50BFA5"/>
<path d="M291.998 135.018C290.38 134.869 287.894 135.674 286.781 136.526C286.613 136.702 285.331 137.277 284 139.766L284.301 140C285.707 138.341 286.652 137.968 287.778 137.589C289.633 137.052 291.504 137.453 291.658 137.547L292 135.02L291.998 135.018Z" fill="#355389"/>
<path d="M283.737 139.104C283.737 139.104 293.884 140.825 292.938 148.882C291.992 156.94 281.288 163.207 271.735 158.224C258.885 151.521 263.959 134.477 273.107 133.16C282.254 131.842 283.737 139.104 283.737 139.104Z" fill="#F47458"/>
<path d="M279.913 135.337C279.913 135.337 277.305 132.506 271.589 135.083C265.873 137.658 265.46 149.668 270.558 148.971C275.655 148.274 283.989 137.073 279.913 135.339V135.337Z" fill="#F48C7F"/>
<path d="M209.699 27.4769L250.965 42.844C252.295 43.3397 253.758 42.615 254.233 41.2266L261.851 18.9343C262.325 17.5459 261.631 16.0188 260.301 15.5231L219.035 0.156038C217.705 -0.339673 216.242 0.384986 215.767 1.7734L208.149 24.0636C207.675 25.452 208.369 26.9791 209.699 27.4748V27.4769Z" fill="#86B1F2"/>
<path d="M237.467 21.6453C235.983 26.0648 238.152 30.9275 242.313 32.5038C246.473 34.0801 251.049 31.7763 252.533 27.3547C254.017 22.9352 251.848 18.0725 247.687 16.4962C243.527 14.9199 238.951 17.2237 237.467 21.6453Z" fill="white"/>
<path d="M243.146 20.6596C242.683 21.9588 243.36 23.3894 244.659 23.8544C245.958 24.3174 247.389 23.6396 247.854 22.3404C248.319 21.0412 247.639 19.6106 246.34 19.1456C245.041 18.6826 243.611 19.3604 243.146 20.6596Z" fill="#86B1F2"/>
<path d="M245.22 25.965L243.282 25.2434C241.748 24.672 240.058 25.5097 239.51 27.1138L239.21 27.9936L246.707 30.7852L247.007 29.9054C247.555 28.3013 246.755 26.5364 245.22 25.965Z" fill="#86B1F2"/>
<path d="M235.964 17C236.402 17 236.794 16.7067 236.94 16.2688C237.132 15.697 236.85 15.0657 236.312 14.8616L218.384 8.06377C218.272 8.02126 218.154 8 218.036 8C217.598 8 217.206 8.29334 217.06 8.73122C216.868 9.30302 217.15 9.93434 217.688 10.1384L235.616 16.9362C235.728 16.9787 235.846 17 235.964 17Z" fill="white"/>
<path d="M230.969 21C231.405 21 231.795 20.7267 231.94 20.3186C232.131 19.7858 231.85 19.1975 231.315 19.0073L217.377 14.0594C217.266 14.0198 217.148 14 217.031 14C216.595 14 216.205 14.2733 216.06 14.6814C215.968 14.9389 215.982 15.2182 216.1 15.4658C216.217 15.7134 216.426 15.9015 216.685 15.9926L230.622 20.9406C230.734 20.9802 230.851 21 230.969 21Z" fill="white"/>
<path d="M146 194H245.41C248.497 194 251 196.522 251 199.632V204.368C251 207.478 248.497 210 245.41 210H146L146.052 209.945C150.306 205.486 150.282 198.433 146 194.002V194Z" fill="#F47458"/>
<path d="M147 197H200.384C203.486 197 206 199.687 206 203C206 206.313 203.486 209 200.384 209H147.002C148.964 205.286 148.962 200.714 147.002 197.002L147 197Z" fill="#FAE0B2"/>
<path d="M64.4044 194.777L71.8688 174.979C72.2447 173.983 71.7853 172.854 70.8428 172.456L43.9817 161.139C43.0392 160.741 41.9714 161.227 41.5956 162.223L34.1312 182.021C33.7554 183.017 34.2147 184.146 35.1572 184.544L62.0164 195.861C62.9589 196.259 64.0266 195.773 64.4024 194.777H64.4044Z" fill="#FAE0B2"/>
<path d="M39.0472 183.647L45.9614 165.767C46.0721 165.479 45.9368 165.154 45.658 165.04C45.3792 164.926 45.0635 165.065 44.9528 165.352L38.0386 183.233C37.9279 183.521 38.0632 183.846 38.342 183.96C38.6208 184.074 38.9365 183.935 39.0472 183.647Z" fill="#466EB6"/>
<path d="M42.0837 181.643L47.96 166.776C48.0746 166.485 47.9346 166.156 47.6461 166.04C47.3576 165.925 47.0309 166.066 46.9163 166.357L41.04 181.224C40.9254 181.515 41.0654 181.844 41.3539 181.96C41.6424 182.075 41.9691 181.934 42.0837 181.643Z" fill="#466EB6"/>
<path d="M43.0471 184.647L49.9614 166.767C50.0721 166.479 49.9368 166.154 49.658 166.04C49.3792 165.926 49.0636 166.065 48.9529 166.352L42.0386 184.233C41.9279 184.521 42.0632 184.846 42.342 184.96C42.6208 185.074 42.9364 184.935 43.0471 184.647Z" fill="#466EB6"/>
<path d="M46.9781 181.646L51.9639 167.771C52.0673 167.482 51.941 167.155 51.6806 167.04C51.4202 166.925 51.1253 167.066 51.0219 167.354L46.0361 181.229C45.9327 181.518 46.059 181.845 46.3194 181.96C46.5798 182.075 46.8747 181.934 46.9781 181.646Z" fill="#466EB6"/>
<path d="M39.0174 163.539L39.1463 163.171C39.1937 163.035 39.3226 162.965 39.4345 163.017L41.8651 164.123C41.977 164.173 42.03 164.325 41.9826 164.461L41.8537 164.829C41.8063 164.965 41.6774 165.035 41.5655 164.983L39.1349 163.877C39.023 163.827 38.97 163.675 39.0174 163.539Z" fill="#355389"/>
<path d="M38.0166 165.539L38.1455 165.171C38.1929 165.035 38.3219 164.965 38.4338 165.017L40.8651 166.123C40.977 166.173 41.03 166.325 40.9826 166.461L40.8537 166.829C40.8063 166.965 40.6773 167.035 40.5654 166.983L38.1341 165.877C38.0222 165.825 37.9711 165.675 38.0166 165.539Z" fill="#355389"/>
<path d="M38.0174 166.539L38.1463 166.171C38.1937 166.035 38.3226 165.965 38.4345 166.017L40.8651 167.123C40.9769 167.173 41.03 167.325 40.9826 167.461L40.8537 167.829C40.8063 167.965 40.6774 168.035 40.5655 167.983L38.1349 166.877C38.0231 166.827 37.97 166.675 38.0174 166.539Z" fill="#355389"/>
<path d="M37.0174 168.539L37.1463 168.171C37.1937 168.035 37.3226 167.965 37.4345 168.017L39.8651 169.123C39.977 169.175 40.03 169.325 39.9826 169.461L39.8537 169.829C39.8063 169.965 39.6774 170.035 39.5655 169.983L37.1349 168.877C37.023 168.825 36.97 168.675 37.0174 168.539Z" fill="#355389"/>
<path d="M37.0174 169.539L37.1463 169.171C37.1937 169.035 37.3226 168.965 37.4345 169.017L39.8651 170.123C39.9769 170.175 40.03 170.327 39.9826 170.461L39.8537 170.829C39.8063 170.965 39.6774 171.035 39.5655 170.983L37.1349 169.877C37.0231 169.825 36.97 169.675 37.0174 169.539Z" fill="#355389"/>
<path d="M36.0174 171.539L36.1463 171.171C36.1937 171.035 36.3226 170.965 36.4345 171.017L38.8651 172.123C38.9769 172.175 39.03 172.325 38.9826 172.461L38.8537 172.829C38.8063 172.965 38.6774 173.035 38.5655 172.983L36.1349 171.877C36.0231 171.825 35.97 171.675 36.0174 171.539Z" fill="#355389"/>
<path d="M36.0174 172.539L36.1463 172.171C36.1937 172.035 36.3226 171.965 36.4345 172.017L38.8651 173.123C38.977 173.175 39.03 173.325 38.9826 173.461L38.8537 173.829C38.8063 173.965 38.6774 174.035 38.5655 173.983L36.1349 172.877C36.023 172.825 35.97 172.675 36.0174 172.539Z" fill="#355389"/>
<path d="M35.0174 174.539L35.1463 174.171C35.1937 174.035 35.3226 173.965 35.4345 174.017L37.8651 175.123C37.9769 175.175 38.03 175.325 37.9826 175.461L37.8537 175.829C37.8063 175.965 37.6774 176.035 37.5655 175.983L35.1349 174.877C35.0231 174.825 34.97 174.675 35.0174 174.539Z" fill="#355389"/>
<path d="M35.0174 175.539L35.1463 175.171C35.1937 175.035 35.3226 174.965 35.4345 175.017L37.8651 176.123C37.977 176.175 38.03 176.325 37.9826 176.461L37.8537 176.829C37.8063 176.965 37.6774 177.035 37.5655 176.983L35.1349 175.877C35.023 175.825 34.97 175.675 35.0174 175.539Z" fill="#355389"/>
<path d="M34.0174 177.539L34.1463 177.171C34.1937 177.035 34.3226 176.965 34.4345 177.017L36.8651 178.123C36.9769 178.175 37.03 178.325 36.9826 178.461L36.8537 178.829C36.8063 178.965 36.6774 179.035 36.5655 178.983L34.1349 177.877C34.023 177.825 33.97 177.673 34.0174 177.539Z" fill="#355389"/>
<path d="M34.0174 178.541L34.1463 178.171C34.1937 178.035 34.3226 177.965 34.4345 178.017L36.8651 179.123C36.9769 179.175 37.03 179.325 36.9826 179.461L36.8537 179.829C36.8063 179.965 36.6774 180.035 36.5655 179.983L34.1349 178.877C34.0231 178.825 33.97 178.675 34.0174 178.539V178.541Z" fill="#355389"/>
<path d="M33.0174 180.539L33.1463 180.171C33.1937 180.035 33.3226 179.965 33.4345 180.017L35.8651 181.123C35.977 181.173 36.03 181.325 35.9826 181.461L35.8537 181.829C35.8063 181.965 35.6774 182.035 35.5655 181.983L33.1349 180.877C33.023 180.825 32.97 180.675 33.0174 180.539Z" fill="#355389"/>
<path d="M25.4883 179.186L35.8672 194.872C35.8904 194.907 35.9079 194.946 35.9214 194.987L36.9785 198.433C37.1024 198.834 36.6648 199.164 36.3473 198.912L33.5692 196.688C33.5344 196.662 33.5053 196.629 33.4801 196.592L23.0741 180.864C22.9405 180.663 22.9928 180.386 23.1884 180.252L24.9346 179.069C25.1185 178.943 25.3606 178.995 25.4864 179.184L25.4883 179.186Z" fill="#B75742"/>
<path d="M34 196.693L34.022 196.734L36.3615 199L37 198.451L36.125 195C35.4392 195.482 34.6182 195.977 34.0017 196.693H34Z" fill="#F7CC7F"/>
<path d="M134.511 7C132.939 8.26514 130.205 12.3358 126.715 15.1926C124.674 16.8644 123.101 16.4392 120.496 16.7555C108.134 18.261 111.483 20.8097 110 21.0603C110.422 22.0379 114.272 30.29 114.991 31.9598C115.655 33.4981 116.802 34.1881 118.465 33.956C121.021 33.6007 123.6 33.3337 126.118 32.7854C132.57 31.3744 136.159 28.1212 140.784 24.1697C142.01 23.1223 142.312 21.814 141.676 20.3332C138.716 13.4386 134.829 7.63462 134.509 7H134.511Z" fill="#466EB6"/>
<path d="M108.673 30.9931C108.727 33.7403 108.523 34.2931 109.668 33.8754C110.358 33.624 111.025 33.2977 111.676 32.9506C112.135 32.7054 112.153 32.3833 111.781 31.9968C111.238 31.4336 110.68 30.8871 110.136 30.3406C110.533 29.262 110.077 28.0089 109.1 27.4188C108.9 27.2982 109.045 27.5538 107.342 23.512C112.976 22.795 116.948 22.315 123.821 21.4443C125.659 21.2115 127.292 20.4759 128.713 19.2498C133.621 15.0146 138.529 10.7816 143.434 6.54227C144.099 5.96664 144.184 5.12501 143.656 4.47665C143.253 3.97999 142.717 3.95713 142.14 4.03194C140.572 4.2356 125.196 6.20354 123.634 6.39265C121.582 6.63994 119.776 7.43586 118.19 8.80532C113.369 12.9677 108.534 17.1177 103.706 21.2718C103.043 21.8412 102.864 22.3649 103.098 22.9987C103.354 23.6948 103.912 24.0273 104.756 23.8403C105.365 23.7052 105.635 23.8943 105.845 24.4762C106.792 27.105 107.453 27.6868 107.223 28.6469C107.046 29.3867 107.901 30.671 108.673 30.991V30.9931Z" fill="#86B1F2"/>
<path d="M82.9979 218.341L80.1496 221.114C73.4098 227.674 67.9139 235.446 63.9385 244.039L63.502 244.982C63.502 244.982 56.041 245.655 55 238.771C61.5451 231.227 66.9344 223.176 71.3811 214.219L72.7295 211L83 218.341H82.9979Z" fill="#466EB6"/>
<path d="M73.0418 211.134C72.6879 211.699 74.6195 213.883 77.3536 216.011C80.0878 218.14 82.6045 219.432 82.9584 218.867C83.3123 218.303 81.3689 216.093 78.6328 213.964C75.8986 211.836 73.3937 210.57 73.0418 211.134Z" fill="#86B1F2"/>
<path d="M73.0331 211.01L73.0413 211C73.0413 211 78.6758 215.593 81 216.06L80.2822 217C79.4343 216.558 78.4704 215.984 77.4781 215.318C74.6985 213.451 72.7261 211.536 73.0311 211.008L73.0331 211.01Z" fill="#355389"/>
<path d="M65.5297 225C65.5191 225.771 65.8475 229.105 72 230.495C71.5953 230.992 71.1971 231.494 70.8072 232C66.9132 230.963 65.161 229.161 64.375 227.788C64.25 227.57 64.0996 227.28 64 227.055C64.5191 226.375 65.0297 225.689 65.5318 225H65.5297Z" fill="#B75742"/>
<path d="M71.3618 229.313L80 229L77.9526 230.757L79.1754 233L71 230.894L71.3618 229.313Z" fill="#B75742"/>
<path d="M70.539 232L74 237.154L71.565 236.363L70.6279 238L69 232.579L70.539 232Z" fill="#B75742"/>
<path d="M68.782 233.993C70.4332 234.106 71.8708 232.858 71.9918 231.205C72.1129 229.553 70.8713 228.12 69.218 228.007C67.5668 227.894 66.1292 229.142 66.0082 230.795C65.8871 232.447 67.1287 233.88 68.782 233.993Z" fill="#F47458"/>
<path d="M51.4602 108.505L69.3588 91.97C70.5222 90.8952 70.037 88.684 68.4321 87.7431L54.147 79.3698C53.2322 78.8344 52.202 78.8839 51.5398 79.4953L33.6412 96.03C32.4778 97.1048 32.963 99.316 34.5679 100.257L48.853 108.63C49.7678 109.166 50.798 109.116 51.4602 108.505Z" fill="#9BC1F9"/>
<path d="M52.5208 95.2564L53.9937 82.2349C54.0507 81.7368 53.7129 81.2029 53.2396 81.0446C52.7663 80.8863 52.3362 81.1628 52.2812 81.6609L50.9241 93.644L37.5203 97.1262C37.0844 97.2402 36.8821 97.7467 37.0706 98.2574C37.2591 98.7682 37.7678 99.0911 38.2058 98.9771L52.5208 95.2564Z" fill="white"/>
<path d="M288.807 36L286.937 39.8146L282.71 39.6737L280.906 44.0995L276.45 42.5206L274.195 47.4333L269.918 46.5009L267 50.8625L268.603 52L270.785 48.7387L275.299 49.7249L277.465 45.0008L281.996 46.6066L283.987 41.7229L288.113 41.8596L289.849 38.3248L292.539 39.0003L293 37.0505L288.807 36Z" fill="#F7CC7F"/>
<path d="M62.5443 135.042L58.7586 136.707L55.7063 133.634L51.5837 135.827L49.2647 131.47L44.502 133.727L41.9095 130L37 131.36L37.4757 133.371L41.1464 132.356L43.8816 136.288L48.4601 134.119L50.8186 138.55L55.3674 136.13L58.3483 139.129L61.8565 137.586L63.4342 140L65 138.801L62.5443 135.042Z" fill="#50BFA5"/>
<path d="M289.395 236.003L287.07 241.257C286.879 241.692 287.07 242.2 287.499 242.395L299.635 247.91C300.512 248.309 301.362 247.299 300.832 246.484L296.136 239.064C296.136 239.064 292.422 239.755 289.395 236V236.003Z" fill="#55769F"/>
<path d="M274.395 236.003L272.07 241.257C271.879 241.692 272.07 242.2 272.499 242.395L284.635 247.91C285.512 248.309 286.362 247.299 285.832 246.484L281.136 239.064C281.136 239.064 277.422 239.755 274.395 236V236.003Z" fill="#55769F"/>
<path d="M247.942 88.9854L246.674 97L243.996 86.3147C243.996 86.3147 247.749 84.4777 247.915 85.1466C248.08 85.8155 247.942 88.9854 247.942 88.9854Z" fill="#07085B"/>
<path d="M227.143 107L225.996 121L237.996 120.41L236.612 108.011L227.143 107Z" fill="#FFC0BB"/>
<path d="M237.996 114.218L237.307 108.057L227.411 107L226.996 112.065C228.963 114.084 232.501 116.174 237.996 114.218Z" fill="#F99893"/>
<path d="M245.357 97.9174C244.642 99.4625 245.023 101.2 246.203 101.797C247.383 102.395 248.92 101.627 249.635 100.082C250.35 98.5364 249.97 96.7985 248.789 96.2023C247.609 95.606 246.072 96.3723 245.357 97.9174Z" fill="#F99893"/>
<path d="M247.376 99.0189C247.442 98.6057 247.528 98.1977 247.625 97.7924C248.011 96.15 248.115 94.3908 247.846 92.5561C246.982 86.6547 242.339 81.9486 236.561 81.1327C228.775 80.0308 221.92 85.9297 221.435 93.7385C220.635 93.2136 219.71 93.0421 218.864 93.3643C217.246 93.9802 216.545 96.1604 217.299 98.2315C218.054 100.303 219.977 101.48 221.597 100.864C221.821 100.778 222.026 100.659 222.214 100.518C222.463 107.207 227.47 112.682 233.858 112.986C236.982 113.137 239.89 112.022 242.146 110.071C245.214 107.763 246.766 102.867 247.373 99.0215L247.376 99.0189Z" fill="#FFC0BB"/>
<path d="M237.938 95.0025C237.965 95.7494 237.97 96.4764 238.012 97.191C238.063 97.8881 238.143 98.635 238.443 99.128C238.746 99.5263 238.987 99.7803 238.995 100.268C239.014 100.761 238.735 101.204 238.39 101.473C237.68 102.034 236.758 102.086 235.996 101.912C236.774 101.782 237.518 101.533 237.951 101.058C238.153 100.821 238.286 100.557 238.238 100.308C238.206 100.034 238.116 99.9795 237.763 99.5214C237.513 99.123 237.433 98.7197 237.385 98.3288C237.346 97.9379 237.354 97.557 237.391 97.1785C237.468 96.4291 237.638 95.6946 237.938 95V95.0025Z" fill="#F99893"/>
<path d="M232.99 94.8868C233.062 95.5673 232.462 96.1165 231.79 95.9787C231.372 95.8933 231.045 95.5345 231.002 95.11C230.932 94.4316 231.529 93.8868 232.2 94.0203C232.618 94.1034 232.946 94.4623 232.99 94.8868Z" fill="#333333"/>
<path d="M242.99 96.8897C243.061 97.5683 242.463 98.1133 241.793 97.9797C241.374 97.8966 241.048 97.5376 241.002 97.113C240.93 96.4323 241.53 95.8851 242.202 96.0208C242.62 96.1062 242.947 96.4651 242.993 96.8897H242.99Z" fill="#333333"/>
<path d="M230.999 104C231.312 104.224 231.638 104.433 231.983 104.618C232.322 104.807 232.677 104.979 233.045 105.126C233.779 105.419 234.556 105.632 235.36 105.711C236.162 105.795 236.979 105.737 237.762 105.565C238.545 105.384 239.291 105.087 239.996 104.728C239.229 105.259 238.597 105.524 237.832 105.754C237.028 105.976 236.224 106.049 235.321 105.968C234.478 105.877 233.664 105.645 232.933 105.3C232.205 104.956 231.534 104.527 230.996 104H230.999Z" fill="#F99893"/>
<path d="M233.994 93.2939C233.441 93.1216 232.924 92.99 232.41 92.911C231.897 92.832 231.395 92.8176 230.906 92.8775C230.42 92.9421 229.929 93.0498 229.459 93.2652C229.099 93.3777 228.224 93.8971 227.996 94C228.264 93.5022 228.653 92.9708 229.132 92.6764C229.609 92.3102 230.206 92.102 230.811 92.0254C231.418 91.9512 232.04 92.0421 232.592 92.2647C233.14 92.4921 233.643 92.8296 233.996 93.2987L233.994 93.2939Z" fill="#07085B"/>
<path d="M239.996 93.9016C240.451 93.463 241.035 93.2021 241.641 93.0703C242.25 92.9465 242.903 92.9842 243.512 93.1994C244.116 93.4173 244.685 93.7805 245.1 94.289C245.533 94.7194 245.823 95.3947 245.996 96C245.781 95.8359 244.992 95.0718 244.645 94.8674C244.207 94.5257 243.727 94.2997 243.242 94.1222C242.752 93.9473 242.235 93.8532 241.696 93.8289C241.154 93.8047 240.597 93.8343 239.999 93.9043L239.996 93.9016Z" fill="#07085B"/>
<path d="M177.065 67.7957C176.963 68.536 176.884 69.2587 176.77 69.965C176.649 70.6532 176.494 71.3878 176.146 71.8463C175.804 72.2103 175.538 72.4373 175.481 72.9219C175.413 73.4104 175.645 73.8809 175.961 74.1852C176.61 74.8181 177.521 74.9683 178.297 74.8761C177.536 74.6644 176.822 74.3375 176.439 73.8183C176.263 73.5615 176.157 73.2847 176.23 73.0421C176.289 72.7731 176.385 72.7282 176.782 72.3101C177.071 71.9403 177.191 71.5475 177.278 71.1638C177.357 70.7791 177.388 70.3993 177.389 70.0188C177.388 69.2651 177.293 68.5163 177.065 67.7932L177.065 67.7957Z" fill="#F99893"/>
<path d="M180.924 68.6699C180.783 69.3392 181.324 69.9495 182.006 69.884C182.431 69.8436 182.792 69.5213 182.878 69.1037C183.017 68.4363 182.477 67.8306 181.797 67.892C181.373 67.9302 181.01 68.2522 180.924 68.6699Z" fill="#333333"/>
<path d="M172.923 68.6728C172.785 69.3404 173.324 69.9462 174.004 69.8848C174.428 69.8466 174.789 69.5242 174.878 69.1067C175.018 68.4371 174.477 67.8289 173.795 67.8923C173.37 67.9326 173.01 68.255 172.921 68.6726L172.923 68.6728Z" fill="#333333"/>
<path d="M181.995 76.0001C181.838 76.2332 181.673 76.4521 181.496 76.6486C181.322 76.8491 180.188 76.7614 179.995 76.921C179.707 77.3284 179.995 76.921 179.707 77.3284C179.27 77.4463 179.342 77.3076 178.895 77.1739C178.448 77.0317 177.484 77.4331 177.066 77.1126C177.531 77.5989 177.901 77.8299 178.341 78.0213C178.803 78.2025 179.232 78.2834 179.726 78.1631C180.186 78.0371 180.642 77.7283 181.021 77.3587C181.398 76.9892 181.738 76.5401 181.996 76L181.995 76.0001Z" fill="#FF2B55"/>
<path d="M179.902 66.6486C180.469 66.536 180.996 66.4601 181.516 66.4363C182.033 66.4123 182.534 66.4515 183.014 66.5631C183.491 66.6792 183.968 66.8386 184.413 67.1029C184.76 67.2532 185.578 67.8631 185.794 67.9897C185.578 67.4659 185.245 66.8959 184.798 66.552C184.361 66.1369 183.788 65.8661 183.195 65.7255C182.598 65.587 181.971 65.6113 181.399 65.774C180.832 65.9418 180.298 66.224 179.899 66.6531L179.902 66.6486Z" fill="#13375B"/>
<path d="M175.905 66.8969C175.572 66.4203 175.115 66.1088 174.626 65.9239C174.134 65.7468 173.589 65.7263 173.063 65.8864C172.54 66.0496 172.032 66.3604 171.636 66.8294C171.234 67.2192 170.926 67.8653 170.721 68.4522C170.916 68.308 171.647 67.6179 171.955 67.4452C172.352 67.1442 172.773 66.962 173.193 66.8283C173.616 66.6978 174.054 66.6501 174.504 66.6738C174.955 66.6978 175.414 66.7767 175.903 66.8994L175.905 66.8969Z" fill="#13375B"/>
<path d="M234.139 174.452C234.139 174.452 231.6 192.287 248.246 195.394C264.895 198.501 285.61 197.574 285.61 197.574L288.492 238.542L297.183 239C297.183 239 319.564 182.076 288.586 173.178L260.749 173.32L249.288 172.473C249.288 172.473 237.69 169.508 237.553 170.071C237.416 170.638 234.415 174.733 234.141 174.45L234.139 174.452Z" fill="#070852"/>
<path d="M218.139 174.452C218.139 174.452 215.6 192.287 232.246 195.394C248.895 198.501 269.61 197.574 269.61 197.574L272.493 238.542L281.184 239C281.184 239 303.562 182.076 272.587 173.178L244.75 173.32L233.288 172.473C233.288 172.473 221.69 169.508 221.553 170.071C221.416 170.638 218.415 174.733 218.141 174.45L218.139 174.452Z" fill="#10116B"/>
<path d="M239.355 116.138C239.355 116.138 250.945 117.653 253.889 120.117C256.833 122.581 271 158.787 271 158.787L259.225 173.005L234.203 173.194C234.203 173.194 215.438 183.619 203.662 173.761C191.887 163.903 197.96 129.594 204.766 122.203C211.573 114.811 223.715 115 223.715 115C223.715 115 234.754 122.962 239.353 116.138H239.355Z" fill="#FF5B7E"/>
<path d="M217.006 134.005C217.384 135.989 217.615 138.001 217.78 140.018C217.872 141.028 217.911 142.041 217.961 143.053C217.989 144.069 218.009 145.084 217.996 146.099C217.961 148.129 217.863 150.167 217.556 152.177C217.256 154.179 216.82 156.188 216 158C216.552 156.069 216.825 154.085 217.022 152.094C217.217 150.102 217.283 148.093 217.306 146.086C217.343 144.079 217.299 142.067 217.244 140.052C217.182 138.037 217.1 136.023 217.006 134V134.005Z" fill="white"/>
<path d="M252.003 132C252.552 134.933 253.132 137.859 253.72 140.776C254.322 143.691 254.946 146.601 255.657 149.491C256.36 152.38 257.138 155.248 258.08 158.062C258.554 159.468 259.08 160.856 259.699 162.202C260.308 163.551 261.032 164.858 262 166C260.896 164.975 260.087 163.678 259.356 162.37C258.645 161.045 258.033 159.668 257.505 158.264C256.966 156.864 256.503 155.437 256.066 154.006C255.644 152.569 255.256 151.122 254.894 149.672C254.551 148.217 254.22 146.757 253.923 145.294C253.637 143.826 253.356 142.361 253.119 140.885C252.63 137.939 252.247 134.975 252 132H252.003Z" fill="white"/>
<path d="M277 138.079C274.823 134.714 257 129 257 129V134.697L275.142 141L277 138.079Z" fill="#EDEDED"/>
<path d="M276 138.555L255 129V132.709L275.481 140L276 138.555Z" fill="white"/>
<path d="M275 138.513L253 130V136.579L274.779 140L275 138.513Z" fill="#EDEDED"/>
<path d="M277 138.197C277 138.197 281.257 128.096 283 126C283 132.645 280.353 141 280.353 141L277 138.197Z" fill="white"/>
<path d="M278 138.289L283 125V131.332L279.564 140L278 138.289Z" fill="#EDEDED"/>
<path d="M280 139L286 126V130.633L280 139Z" fill="white"/>
<path d="M280 177L287 164.853V126L280 138.147V177Z" fill="#26426E"/>
<path d="M248 171.095L273 177V137.905L248 132V171.095Z" fill="#55769F"/>
<path d="M273 138.792C275.048 137.524 279.333 137.972 280 138.792C279.649 141.467 273.521 141.993 273 138.792Z" fill="#E0E0E0"/>
<path d="M273 177.28C273 178.24 280 178.24 280 177.28V138C279.291 139.142 273.79 139.111 273 138V177.28Z" fill="#3A5782"/>
<path d="M257 163.744C256.929 163.172 252.646 162.537 251.072 162.453C249.879 162.392 241.974 162.123 239.285 162L239.482 162.699L239.441 165.788L239 167.835C241.36 167.985 247.127 168.214 248.328 168.456C249.932 168.776 252.714 170 252.714 170C252.714 170 253.871 169.734 252.4 169.091C251.218 168.576 250.39 167.778 250.04 167.379C249.837 167.15 250.057 166.744 250.203 166.783C254.207 167.845 254.618 168.02 254.618 168.02C254.618 168.02 259.323 167.993 254.645 166.924C251.839 166.283 250.834 165.909 250.585 165.591C250.478 165.456 250.668 164.995 250.838 164.983C253.269 164.83 257.631 165.702 256.435 165.131C255.461 164.665 252.392 164.155 251.199 163.961C251.126 163.948 251.006 163.5 251.333 163.47C253.646 163.276 257.063 164.268 256.998 163.739L257 163.744Z" fill="#FFC0BB"/>
<path d="M214 157C214.997 157.259 215.98 157.561 216.979 157.783C217.971 158.037 218.981 158.223 219.978 158.45C221.987 158.845 224.001 159.186 226.022 159.49C228.046 159.776 230.07 160.038 232.101 160.25C234.125 160.467 236.181 160.649 238.185 160.771L238.453 160.787L238.512 161.038C238.685 161.769 238.796 162.481 238.882 163.211C238.965 163.939 239.002 164.672 239 165.405C238.995 166.138 238.936 166.874 238.823 167.601C238.7 168.326 238.498 169.038 238.229 169.718L238.207 169.777L238.163 169.808L235.937 171.412C235.196 171.947 234.452 172.479 233.702 173C234.398 172.399 235.102 171.809 235.812 171.222L237.931 169.462L237.865 169.552C238.089 168.893 238.244 168.213 238.33 167.517C238.409 166.821 238.446 166.117 238.426 165.41C238.404 164.706 238.34 164.002 238.249 163.301C238.153 162.605 238.025 161.898 237.855 161.24L238.182 161.507C237.124 161.478 236.122 161.404 235.093 161.324C234.068 161.242 233.047 161.155 232.027 161.041C229.986 160.813 227.95 160.541 225.924 160.194C223.898 159.842 221.884 159.419 219.887 158.911C218.892 158.638 217.897 158.373 216.918 158.043C215.93 157.744 214.963 157.373 214 157.005V157Z" fill="white"/>
<path d="M248.592 81.3216C248.592 81.3216 252.435 81.4503 248.402 78.0389C244.368 74.6276 233.543 70.6253 226.603 74.4726C226.603 74.4726 225.216 71.3738 223.21 72.1144C221.204 72.8549 224.515 74.9847 224.515 74.9847C224.515 74.9847 221.955 74.8981 221.172 76.219C220.594 77.1933 222.162 77.2379 223.02 77.1933C221.562 77.4533 215.971 81.1614 218.776 93C219.774 92.7689 225.458 84.1158 225.458 84.1158C225.458 84.1158 238.454 91.7001 237.169 85.6705C237.169 85.6705 250.635 94.4943 248.724 87.2068C248.724 87.2068 253.93 87.6085 248.594 81.3242L248.592 81.3216Z" fill="#07085B"/>
<path d="M219 92.8628C219 92.8628 220.043 92.479 221.166 93.4119C222.289 94.3449 222.165 97.6268 222.165 97.6268C222.165 97.6268 227.523 101.249 226.958 85.9228C226.357 69.6177 222.488 87.2295 222.488 87.2295L219 92.8603V92.8628Z" fill="#07085B"/>
</svg>
