<svg width="34" height="34" viewBox="0 0 34 34" fill="none" xmlns="http://www.w3.org/2000/svg">
<g id="icon" clip-path="url(#clip0_217_1746)">
<path id="Vector" d="M21.9583 18.417C20.6433 18.417 19.3821 18.9394 18.4523 19.8693C17.5224 20.7991 17 22.0603 17 23.3753V24.792C17 26.107 17.5224 27.3682 18.4523 28.2981C19.3821 29.2279 20.6433 29.7503 21.9583 29.7503C23.2734 29.7503 24.5345 29.2279 25.4644 28.2981C26.3943 27.3682 26.9167 26.107 26.9167 24.792V22.242" stroke="#1D1E1F" stroke-width="2" stroke-linecap="round" stroke-linejoin="round"/>
<path id="Vector_2" d="M12.0404 18.417C13.3554 18.417 14.6166 18.9394 15.5464 19.8693C16.4763 20.7991 16.9987 22.0603 16.9987 23.3753V24.792C16.9987 26.107 16.4763 27.3682 15.5464 28.2981C14.6166 29.2279 13.3554 29.7503 12.0404 29.7503C10.7253 29.7503 9.46416 29.2279 8.53429 28.2981C7.60443 27.3682 7.08203 26.107 7.08203 24.792V22.242" stroke="#1D1E1F" stroke-width="2" stroke-linecap="round" stroke-linejoin="round"/>
<path id="Vector_3" d="M24.7904 22.6667C26.1054 22.6667 27.3666 22.1443 28.2964 21.2144C29.2263 20.2845 29.7487 19.0234 29.7487 17.7083C29.7487 16.3933 29.2263 15.1321 28.2964 14.2023C27.3666 13.2724 26.1054 12.75 24.7904 12.75H24.082" stroke="#1D1E1F" stroke-width="2" stroke-linecap="round" stroke-linejoin="round"/>
<path id="Vector_4" d="M26.9167 13.175V9.20833C26.9167 7.8933 26.3943 6.63213 25.4644 5.70226C24.5345 4.77239 23.2734 4.25 21.9583 4.25C20.6433 4.25 19.3821 4.77239 18.4523 5.70226C17.5224 6.63213 17 7.8933 17 9.20833" stroke="#1D1E1F" stroke-width="2" stroke-linecap="round" stroke-linejoin="round"/>
<path id="Vector_5" d="M9.20833 22.6667C7.8933 22.6667 6.63213 22.1443 5.70226 21.2144C4.77239 20.2845 4.25 19.0234 4.25 17.7083C4.25 16.3933 4.77239 15.1321 5.70226 14.2023C6.63213 13.2724 7.8933 12.75 9.20833 12.75H9.91667" stroke="#1D1E1F" stroke-width="2" stroke-linecap="round" stroke-linejoin="round"/>
<path id="Vector_6" d="M7.08203 13.175V9.20833C7.08203 7.8933 7.60443 6.63213 8.53429 5.70226C9.46416 4.77239 10.7253 4.25 12.0404 4.25C13.3554 4.25 14.6166 4.77239 15.5464 5.70226C16.4763 6.63213 16.9987 7.8933 16.9987 9.20833V23.375" stroke="#1D1E1F" stroke-width="2" stroke-linecap="round" stroke-linejoin="round"/>
</g>
<defs>
<clipPath id="clip0_217_1746">
<rect width="34" height="34" fill="white"/>
</clipPath>
</defs>
</svg>
