<svg viewBox="0 0 200 60" fill="none" xmlns="http://www.w3.org/2000/svg">
<g clip-path="url(#clip0_282_1962)">
<path d="M195.949 0.592697V14.291H196.579V0.592697H195.949ZM185.53 0.612434V14.291H186.151V0.612434H185.53ZM183.17 0.227539H189.717V0.32623L187.331 0.671649C187.265 1.03352 187.207 1.67172 187.159 2.58627C187.118 3.5008 187.096 4.27718 187.096 4.91537C187.096 5.46804 187.114 6.14902 187.15 6.95828C188.027 7.14251 189.342 7.23461 191.095 7.23461C191.966 7.23461 192.781 7.21487 193.545 7.1754C194.307 7.13593 195.004 7.06355 195.634 6.95828C195.682 6.32008 195.705 5.55687 195.705 4.66864C195.705 4.14229 195.691 3.61594 195.661 3.08958C195.636 2.55666 195.609 2.12899 195.579 1.8066C195.55 1.48421 195.508 1.09931 195.454 0.651912L193.067 0.32623V0.227539H199.614V0.32623L197.777 0.651912C197.681 1.13879 197.609 1.96121 197.561 3.11919C197.519 4.27059 197.498 5.38909 197.498 6.47469V9.78085C197.498 11.7613 197.59 13.2449 197.777 14.2318L199.632 14.5773V14.676H193.067V14.5773L195.408 14.2318C195.577 13.1133 195.675 11.8863 195.705 10.5506C195.718 10.2085 195.718 9.794 195.705 9.30713C195.693 8.81368 195.67 8.30048 195.634 7.76755H187.132C187.109 8.261 187.096 9.03409 187.096 10.0868C187.096 10.7118 187.114 11.4422 187.15 12.2777C187.193 13.1068 187.262 13.7581 187.358 14.2318L189.717 14.5773V14.676H183.152V14.5773L184.971 14.2318C185.014 13.9687 185.058 13.4983 185.107 12.8205C185.155 12.1363 185.194 11.3698 185.224 10.521C185.254 9.66571 185.269 8.94855 185.269 8.36957V4.72786C185.269 4.62259 185.26 4.27716 185.242 3.6916C185.224 3.09945 185.19 2.51389 185.142 1.9349C185.1 1.34933 185.055 0.921667 185.007 0.651912L183.17 0.32623V0.227539Z" fill="#4C4C4C"/>
<path d="M178.141 0.266053H177.087C176.043 0.266053 175.082 0.456855 174.206 0.838461C173.335 1.21349 172.597 1.73985 171.99 2.41752C171.39 3.08862 170.933 3.865 170.621 4.74663C170.31 5.62827 170.153 6.57242 170.153 7.57907C170.153 8.50019 170.312 9.38184 170.63 10.224C170.954 11.0596 171.429 11.8064 172.054 12.4643C172.684 13.1156 173.434 13.6256 174.305 13.994C175.176 14.3559 176.148 14.5367 177.223 14.5367C177.703 14.5367 178.009 14.5303 178.141 14.517V14.3888C176.947 14.415 175.881 14.244 174.944 13.8755C174.014 13.5006 173.245 12.9808 172.638 12.3163C172.033 11.6451 171.579 10.8885 171.278 10.0464C170.985 9.20419 170.838 8.34886 170.838 7.48038C170.838 6.62506 170.967 5.78289 171.225 4.95389C171.483 4.12488 171.88 3.36495 172.414 2.67412C172.954 1.98327 173.651 1.4339 174.503 1.02597C175.356 0.611471 176.358 0.404221 177.511 0.404221H178.141V0.266053ZM182.22 12.0103L180.887 14.7144C180.311 14.6618 179.894 14.6354 179.636 14.6354C179.318 14.6354 178.889 14.6618 178.348 14.7144C177.808 14.7671 177.388 14.7934 177.087 14.7934C175.875 14.7934 174.8 14.5894 173.864 14.1815C172.933 13.767 172.165 13.2111 171.558 12.5136C170.952 11.8096 170.502 11.0366 170.207 10.1944C169.913 9.34564 169.766 8.48703 169.766 7.61855C169.766 6.50663 169.938 5.48353 170.28 4.54925C170.627 3.60839 171.116 2.80242 171.748 2.13132C172.378 1.45363 173.113 0.937153 173.953 0.581865C174.794 0.219996 175.697 0.0390625 176.664 0.0390625C176.916 0.0390625 177.075 0.0423521 177.141 0.0489315C177.207 0.0489315 177.351 0.0555108 177.573 0.0686697C177.796 0.0752491 178.021 0.0851184 178.249 0.0982771C179.059 0.157492 179.681 0.187099 180.113 0.187099C181.074 0.187099 181.701 0.157492 181.996 0.0982771L182.103 3.4143H181.996L181.392 1.21349C181.211 1.16743 180.894 1.10164 180.437 1.01611C179.981 0.930574 179.534 0.861489 179.095 0.808854C178.663 0.756218 178.21 0.7299 177.735 0.7299C176.499 0.7299 175.439 1.00295 174.557 1.54903C173.681 2.08854 173.02 2.85834 172.576 3.85841C172.131 4.8519 171.91 5.99672 171.91 7.29287C171.91 8.29952 172.068 9.22722 172.387 10.076C172.705 10.9181 173.149 11.6386 173.72 12.2373C174.29 12.8294 174.938 13.2802 175.665 13.5894C176.397 13.8985 177.169 14.0532 177.979 14.0532C178.784 14.0532 179.537 13.9052 180.239 13.6091C180.942 13.3065 181.569 12.7604 182.121 11.9708L182.22 12.0103Z" fill="#4C4C4C"/>
<path d="M160.389 2.02332L165.063 14.2906H165.666L160.687 1.19431L160.389 2.02332ZM160.245 2.85232C160.083 3.20103 159.868 3.71093 159.597 4.38204C159.332 5.05313 159.092 5.68147 158.876 6.26704C158.661 6.85261 158.435 7.47765 158.202 8.14218C157.967 8.80012 157.811 9.23436 157.732 9.4449C158.087 9.49753 158.499 9.53373 158.967 9.55346C159.441 9.5732 159.891 9.58307 160.318 9.58307C161.368 9.58307 162.23 9.53701 162.902 9.4449C162.674 8.70143 162.287 7.64543 161.74 6.27691C161.194 4.90181 160.695 3.76028 160.245 2.85232ZM161.199 0.0791016L165.099 10.2739C165.604 11.6029 166.192 12.9221 166.864 14.2314L168.359 14.5769V14.6756H162.002V14.5769L164.451 14.2314C164.36 13.58 164.193 12.8728 163.947 12.1096C163.707 11.3398 163.44 10.672 163.145 10.1061H157.499C157.259 10.7707 157.063 11.3167 156.913 11.7444C156.769 12.1721 156.628 12.6162 156.49 13.0768C156.358 13.5373 156.271 13.9221 156.228 14.2314L158.588 14.5769V14.6756H153.555V14.5769L155.212 14.2314C155.614 13.4682 155.983 12.626 156.319 11.7049L160.489 0.0791016H161.199Z" fill="#4C4C4C"/>
<path d="M145.227 0.0195312C146.506 0.0195312 147.614 0.2531 148.55 0.720239C149.487 1.18738 150.252 1.79926 150.846 2.5559C151.446 3.31252 151.885 4.11851 152.161 4.97382C152.443 5.82258 152.585 6.63842 152.585 7.42137C152.585 8.31618 152.425 9.19453 152.107 10.0564C151.795 10.9183 151.33 11.7079 150.711 12.4251C150.099 13.1356 149.337 13.7047 148.424 14.1324C147.518 14.5601 146.506 14.7739 145.389 14.7739C143.775 14.7739 142.405 14.3922 141.283 13.6291C140.16 12.8593 139.331 11.9085 138.797 10.7769C138.263 9.64522 137.996 8.53987 137.996 7.46085C137.996 6.50684 138.164 5.58242 138.5 4.68762C138.842 3.79283 139.335 2.99342 139.977 2.28943C140.625 1.57885 141.399 1.02289 142.3 0.621548C143.201 0.220204 144.177 0.0195312 145.227 0.0195312ZM145.281 0.71037C144.35 0.71037 143.489 0.976837 142.697 1.50977C141.91 2.0427 141.283 2.81249 140.815 3.81914C140.353 4.8258 140.121 6.01338 140.121 7.38189C140.121 8.85569 140.374 10.1025 140.878 11.1223C141.388 12.1355 142.04 12.8889 142.832 13.3824C143.631 13.8692 144.453 14.1127 145.299 14.1127C145.989 14.1127 146.644 13.9679 147.262 13.6785C147.881 13.3889 148.433 12.9679 148.919 12.4151C149.406 11.8559 149.784 11.1716 150.054 10.3624C150.33 9.54652 150.469 8.63856 150.469 7.6385C150.469 6.26997 150.325 5.17779 150.036 4.36195C149.748 3.54609 149.325 2.83223 148.766 2.22035C148.292 1.70057 147.751 1.31897 147.146 1.07553C146.545 0.832089 145.923 0.71037 145.281 0.71037ZM145.74 0.305736V0.404427C146.322 0.450483 146.908 0.60181 147.497 0.858407C148.084 1.10842 148.634 1.50319 149.145 2.0427C149.661 2.57564 150.075 3.29608 150.387 4.20404C150.699 5.112 150.855 6.20418 150.855 7.48059C150.855 8.31617 150.763 9.11558 150.576 9.87879C150.396 10.642 150.102 11.346 149.693 11.9908C149.291 12.6356 148.764 13.1685 148.109 13.5896C147.454 14.0107 146.671 14.2705 145.758 14.3692V14.4778C146.527 14.4384 147.256 14.2574 147.947 13.935C148.637 13.6126 149.25 13.152 149.784 12.5533C150.325 11.948 150.75 11.2111 151.063 10.3426C151.375 9.47416 151.531 8.50698 151.531 7.44111C151.531 6.27656 151.369 5.25017 151.044 4.36195C150.72 3.46714 150.279 2.72367 149.721 2.13153C149.163 1.53938 148.541 1.09198 147.856 0.789324C147.178 0.48667 146.473 0.325475 145.74 0.305736ZM144.858 0.404427V0.305736C144.017 0.312315 143.198 0.509698 142.399 0.897883C141.601 1.28607 140.899 1.81243 140.292 2.47694C139.685 3.14146 139.212 3.8981 138.87 4.74684C138.534 5.59558 138.365 6.4871 138.365 7.42137C138.365 8.5662 138.647 9.6814 139.212 10.767C139.782 11.846 140.568 12.7243 141.572 13.4021C142.574 14.0797 143.675 14.4384 144.875 14.4778V14.3692C143.711 14.2574 142.682 13.8593 141.787 13.1751C140.892 12.4908 140.212 11.6421 139.742 10.6288C139.281 9.61561 139.05 8.5662 139.05 7.48059C139.05 6.58579 139.185 5.72717 139.454 4.90475C139.725 4.08232 140.116 3.34872 140.625 2.70393C141.136 2.05915 141.751 1.53608 142.472 1.13474C143.198 0.733397 143.994 0.48996 144.858 0.404427Z" fill="#4C4C4C"/>
<path d="M132.399 0.266053H131.345C130.301 0.266053 129.34 0.456855 128.463 0.838461C127.592 1.21349 126.854 1.73985 126.248 2.41752C125.647 3.08862 125.191 3.865 124.879 4.74663C124.566 5.62827 124.411 6.57242 124.411 7.57907C124.411 8.50019 124.57 9.38184 124.888 10.224C125.212 11.0596 125.686 11.8064 126.311 12.4643C126.941 13.1156 127.692 13.6256 128.562 13.994C129.432 14.3559 130.406 14.5367 131.48 14.5367C131.96 14.5367 132.266 14.5303 132.399 14.517V14.3888C131.203 14.415 130.139 14.244 129.201 13.8755C128.271 13.5006 127.503 12.9808 126.896 12.3163C126.289 11.6451 125.837 10.8885 125.536 10.0464C125.242 9.20419 125.095 8.34886 125.095 7.48038C125.095 6.62506 125.225 5.78289 125.483 4.95389C125.741 4.12488 126.136 3.36495 126.671 2.67412C127.211 1.98327 127.907 1.4339 128.76 1.02597C129.612 0.611471 130.616 0.404221 131.768 0.404221H132.399V0.266053ZM136.478 12.0103L135.145 14.7144C134.569 14.6618 134.152 14.6354 133.894 14.6354C133.575 14.6354 133.146 14.6618 132.606 14.7144C132.065 14.7671 131.645 14.7934 131.345 14.7934C130.132 14.7934 129.057 14.5894 128.121 14.1815C127.19 13.767 126.422 13.2111 125.816 12.5136C125.209 11.8096 124.759 11.0366 124.465 10.1944C124.171 9.34564 124.023 8.48703 124.023 7.61855C124.023 6.50663 124.194 5.48353 124.536 4.54925C124.885 3.60839 125.374 2.80242 126.004 2.13132C126.635 1.45363 127.371 0.937153 128.211 0.581865C129.051 0.219996 129.955 0.0390625 130.922 0.0390625C131.173 0.0390625 131.333 0.0423521 131.399 0.0489315C131.465 0.0489315 131.609 0.0555108 131.831 0.0686697C132.054 0.0752491 132.278 0.0851184 132.506 0.0982771C133.317 0.157492 133.939 0.187099 134.371 0.187099C135.331 0.187099 135.959 0.157492 136.252 0.0982771L136.361 3.4143H136.252L135.649 1.21349C135.469 1.16743 135.151 1.10164 134.695 1.01611C134.238 0.930574 133.791 0.861489 133.353 0.808854C132.921 0.756218 132.467 0.7299 131.993 0.7299C130.756 0.7299 129.697 1.00295 128.815 1.54903C127.937 2.08854 127.277 2.85834 126.833 3.85841C126.389 4.8519 126.166 5.99672 126.166 7.29287C126.166 8.29952 126.326 9.22722 126.644 10.076C126.962 10.9181 127.407 11.6386 127.977 12.2373C128.547 12.8294 129.196 13.2802 129.922 13.5894C130.655 13.8985 131.426 14.0532 132.237 14.0532C133.041 14.0532 133.794 13.9052 134.497 13.6091C135.199 13.3065 135.827 12.7604 136.379 11.9708L136.478 12.0103Z" fill="#4C4C4C"/>
<path d="M108.101 0.612434V14.291H108.722V0.612434H108.101ZM105.363 0.32623V0.227539H114.953L115.179 3.29684H115.035L114.387 0.888771C113.876 0.849293 113.303 0.829556 112.666 0.829556C111.508 0.829556 110.574 0.918378 109.866 1.09602C109.746 2.16188 109.686 3.37907 109.686 4.7476C109.686 5.60292 109.71 6.29704 109.758 6.82998C110.706 6.8892 111.31 6.9188 111.568 6.9188C112.246 6.9188 112.946 6.87603 113.666 6.7905L114.072 5.11276H114.225V9.317H114.072L113.648 7.54056C113.126 7.47476 112.549 7.44187 111.919 7.44187C111.127 7.44187 110.406 7.48135 109.758 7.5603C109.68 8.32351 109.656 9.07027 109.686 9.80059C109.698 10.7349 109.713 11.5079 109.731 12.1198C109.749 12.7251 109.782 13.2482 109.83 13.689C110.562 13.9325 111.523 14.0542 112.712 14.0542C113.396 14.0542 113.972 14.0245 114.441 13.9654L115.161 11.5869H115.288L115.089 14.676H105.39V14.5773L107.543 14.2318C107.591 13.9621 107.633 13.5509 107.669 12.9982C107.711 12.4456 107.747 11.827 107.777 11.1428C107.807 10.4519 107.828 9.87625 107.84 9.4157C107.852 8.94855 107.858 8.54063 107.858 8.19192V5.70491C107.858 5.38909 107.849 4.94169 107.831 4.36271C107.813 3.77713 107.786 3.17183 107.75 2.54679C107.714 1.92173 107.663 1.29669 107.597 0.671649L105.363 0.32623Z" fill="#4C4C4C"/>
<path d="M101.772 9.5237V13.3826L102.375 13.1358V9.5237H101.772ZM105.014 9.2375L103.573 9.60266C103.495 10.083 103.432 10.6981 103.384 11.4482C103.336 12.1982 103.315 12.8694 103.321 13.4614C102.63 13.7575 102.066 13.9845 101.628 14.1425C101.196 14.3003 100.676 14.4419 100.07 14.5668C99.4696 14.6918 98.8122 14.7544 98.0977 14.7544C96.9151 14.7544 95.8735 14.5504 94.9729 14.1425C94.0724 13.7345 93.3279 13.1885 92.7396 12.5041C92.1573 11.8133 91.725 11.0468 91.4428 10.2047C91.1606 9.36251 91.0195 8.51377 91.0195 7.65844C91.0195 6.65178 91.1756 5.6912 91.4878 4.77666C91.8 3.85554 92.2593 3.0364 92.8657 2.31924C93.472 1.59551 94.2135 1.02968 95.09 0.621754C95.9725 0.207252 96.9691 0 98.0798 0C98.2538 0 98.3889 0.00328965 98.485 0.00986907C98.587 0.0164484 98.7132 0.0230281 98.8632 0.0296076C99.0133 0.0361869 99.2144 0.0460559 99.4666 0.0592147C100.199 0.11185 100.892 0.138168 101.547 0.138168C102.153 0.138168 102.645 0.118429 103.024 0.0789529L103.15 3.37524H103.024L102.447 1.17443C102.219 1.10863 101.934 1.04284 101.592 0.977044C101.25 0.904669 100.862 0.842165 100.43 0.78953C100.004 0.736894 99.5417 0.710576 99.0433 0.710576C97.9927 0.710576 97.0802 0.89809 96.3057 1.27311C95.5313 1.64156 94.9069 2.1416 94.4326 2.77322C93.9643 3.39827 93.6221 4.09239 93.406 4.8556C93.1898 5.61882 93.0818 6.39849 93.0818 7.19459C93.0818 8.09597 93.2319 8.94801 93.532 9.7507C93.8382 10.5534 94.2675 11.264 94.8199 11.8824C95.3782 12.5009 96.0266 12.9845 96.765 13.3332C97.5034 13.6753 98.2869 13.8464 99.1154 13.8464C99.3315 13.8464 99.5536 13.8332 99.7818 13.8069C100.01 13.7805 100.244 13.7477 100.484 13.7082C100.73 13.6621 101.009 13.6128 101.322 13.5601C101.448 12.9746 101.511 12.3561 101.511 11.7048C101.511 10.8034 101.448 10.0961 101.322 9.58292L98.9983 9.2375V9.11907H105.014V9.2375ZM99.1694 0.365158V0.286205C98.7671 0.246729 98.404 0.22699 98.0798 0.22699C97.1072 0.22699 96.2097 0.411213 95.3871 0.779661C94.5707 1.14811 93.8622 1.66788 93.2619 2.33898C92.6676 3.0035 92.2052 3.79632 91.8751 4.71744C91.5509 5.63198 91.3888 6.61232 91.3888 7.65844C91.3888 8.88222 91.6679 10.0205 92.2262 11.0732C92.7847 12.1193 93.5861 12.9516 94.6307 13.57C95.6753 14.1885 96.906 14.4977 98.3229 14.4977C98.587 14.4977 98.9472 14.4681 99.4036 14.4089V14.33C98.0828 14.3366 96.9481 14.1392 95.9995 13.7378C95.0509 13.3365 94.2855 12.7904 93.7031 12.0996C93.1208 11.4087 92.6975 10.6521 92.4334 9.82964C92.1753 9.00723 92.0462 8.1848 92.0462 7.36237C92.0462 6.34914 92.1933 5.41485 92.4875 4.55953C92.7876 3.70422 93.2229 2.96402 93.7932 2.33898C94.3636 1.71394 95.078 1.23036 95.9365 0.888222C96.801 0.539513 97.7736 0.365158 98.8542 0.365158H99.1694Z" fill="#4C4C4C"/>
<path d="M81.8702 2.02332L86.5441 14.2906H87.1474L82.1674 1.19431L81.8702 2.02332ZM81.7262 2.85232C81.5641 3.20103 81.348 3.71093 81.0778 4.38204C80.8136 5.05313 80.5735 5.68147 80.3574 6.26704C80.1413 6.85261 79.9162 7.47765 79.682 8.14218C79.4478 8.80012 79.2917 9.23436 79.2137 9.4449C79.5679 9.49753 79.9792 9.53373 80.4474 9.55346C80.9218 9.5732 81.372 9.58307 81.7983 9.58307C82.8489 9.58307 83.7104 9.53701 84.3828 9.4449C84.1546 8.70143 83.7674 7.64543 83.2211 6.27691C82.6747 4.90181 82.1765 3.76028 81.7262 2.85232ZM82.6807 0.0791016L86.5801 10.2739C87.0843 11.6029 87.6727 12.9221 88.3451 14.2314L89.84 14.5769V14.6756H83.4822V14.5769L85.9317 14.2314C85.8416 13.58 85.6735 12.8728 85.4273 12.1096C85.1872 11.3398 84.9201 10.672 84.6259 10.1061H78.9795C78.7394 10.7707 78.5443 11.3167 78.3943 11.7444C78.2501 12.1721 78.109 12.6162 77.9709 13.0768C77.8388 13.5373 77.7518 13.9221 77.7098 14.2314L80.0692 14.5769V14.6756H75.0352V14.5769L76.6923 14.2314C77.0945 13.4682 77.4637 12.626 77.7999 11.7049L81.9693 0.0791016H82.6807Z" fill="#4C4C4C"/>
<path d="M67.4149 14.4292V14.5576C68.1233 14.5114 68.7356 14.3864 69.2519 14.1825C69.7683 13.9719 70.1945 13.6824 70.5307 13.314C70.873 12.9389 71.1281 12.4719 71.2962 11.9126C71.4644 11.3533 71.5484 10.7053 71.5484 9.96836V0.592697H70.918V9.94862C70.918 11.2645 70.6418 12.304 70.0895 13.0672C69.5372 13.8305 68.6456 14.2845 67.4149 14.4292ZM66.2352 14.5576V14.4292C65.3887 14.3766 64.6473 14.1923 64.0108 13.8765C63.3806 13.5541 62.8852 13.0805 62.525 12.4554C62.1708 11.8238 61.9936 11.054 61.9936 10.146V0.592697H61.3633V10.4914C61.3633 11.7086 61.7505 12.6725 62.525 13.383C63.3055 14.0871 64.5422 14.4786 66.2352 14.5576ZM61.1021 10.4914V4.99432C61.1021 3.77056 61.03 2.32309 60.886 0.651912L59.0039 0.32623V0.227539H65.5688V0.32623L63.1914 0.651912C63.1314 1.11247 63.0833 1.66514 63.0473 2.30992C63.0113 2.9547 62.9782 3.64225 62.9483 4.37258C62.9242 5.10289 62.9122 5.68845 62.9122 6.12928V10.1855C62.9122 11.1527 63.0894 11.9323 63.4436 12.5244C63.8038 13.1101 64.2751 13.5246 64.8574 13.768C65.4457 14.0114 66.0941 14.1332 66.8026 14.1332C68.0093 14.1332 68.9549 13.7975 69.6392 13.1265C70.3296 12.4554 70.6749 11.3698 70.6749 9.86968V5.64569C70.6749 4.89564 70.6508 4.0107 70.6028 2.9909C70.5547 1.96451 70.4947 1.18484 70.4227 0.651912L68.0543 0.32623V0.227539H74.5831V0.32623L72.746 0.651912C72.662 1.07957 72.596 1.79344 72.5479 2.79351C72.5059 3.787 72.4849 4.62259 72.4849 5.30027V10.0868C72.4849 10.8303 72.4039 11.4619 72.2418 11.9817C72.0797 12.5014 71.8275 12.9488 71.4854 13.3239C71.2512 13.5804 71.005 13.7975 70.7469 13.9752C70.4887 14.1529 70.1616 14.3075 69.7652 14.439C69.369 14.5707 68.9368 14.6661 68.4685 14.7253C68.0002 14.7845 67.4209 14.8141 66.7305 14.8141C65.6018 14.8141 64.6202 14.676 63.7857 14.3996C62.9513 14.1232 62.2938 13.6627 61.8135 13.0179C61.3393 12.3732 61.1021 11.531 61.1021 10.4914Z" fill="#4C4C4C"/>
<path d="M55.2524 9.5237V13.3826L55.8558 13.1358V9.5237H55.2524ZM58.4943 9.2375L57.0535 9.60266C56.9754 10.083 56.9124 10.6981 56.8644 11.4482C56.8163 12.1982 56.7953 12.8694 56.8013 13.4614C56.111 13.7575 55.5466 13.9845 55.1084 14.1425C54.6761 14.3003 54.1568 14.4419 53.5504 14.5668C52.9501 14.6918 52.2926 14.7544 51.5782 14.7544C50.3955 14.7544 49.3539 14.5504 48.4534 14.1425C47.5529 13.7345 46.8084 13.1885 46.22 12.5041C45.6377 11.8133 45.2055 11.0468 44.9232 10.2047C44.6411 9.36251 44.5 8.51377 44.5 7.65844C44.5 6.65178 44.6561 5.6912 44.9683 4.77666C45.2804 3.85554 45.7398 3.0364 46.3461 2.31924C46.9525 1.59551 47.694 1.02968 48.5704 0.621754C49.453 0.207252 50.4496 0 51.5602 0C51.7343 0 51.8694 0.00328965 51.9655 0.00986907C52.0675 0.0164484 52.1936 0.0230281 52.3437 0.0296076C52.4937 0.0361869 52.6949 0.0460559 52.947 0.0592147C53.6794 0.11185 54.3729 0.138168 55.0273 0.138168C55.6336 0.138168 56.1259 0.118429 56.5041 0.0789529L56.6303 3.37524H56.5041L55.9278 1.17443C55.6997 1.10863 55.4145 1.04284 55.0723 0.977044C54.7301 0.904669 54.3429 0.842165 53.9106 0.78953C53.4844 0.736894 53.0221 0.710576 52.5238 0.710576C51.4732 0.710576 50.5607 0.89809 49.7861 1.27311C49.0117 1.64156 48.3874 2.1416 47.9131 2.77322C47.4448 3.39827 47.1026 4.09239 46.8865 4.8556C46.6703 5.61882 46.5622 6.39849 46.5622 7.19459C46.5622 8.09597 46.7123 8.94801 47.0125 9.7507C47.3187 10.5534 47.7479 11.264 48.3003 11.8824C48.8587 12.5009 49.507 12.9845 50.2455 13.3332C50.9839 13.6753 51.7674 13.8464 52.5959 13.8464C52.812 13.8464 53.0341 13.8332 53.2622 13.8069C53.4904 13.7805 53.7245 13.7477 53.9647 13.7082C54.2108 13.6621 54.4899 13.6128 54.8021 13.5601C54.9283 12.9746 54.9913 12.3561 54.9913 11.7048C54.9913 10.8034 54.9283 10.0961 54.8021 9.58292L52.4788 9.2375V9.11907H58.4943V9.2375ZM52.6498 0.365158V0.286205C52.2476 0.246729 51.8844 0.22699 51.5602 0.22699C50.5876 0.22699 49.6901 0.411213 48.8676 0.779661C48.0512 1.14811 47.3427 1.66788 46.7423 2.33898C46.148 3.0035 45.6857 3.79632 45.3555 4.71744C45.0314 5.63198 44.8693 6.61232 44.8693 7.65844C44.8693 8.88222 45.1484 10.0205 45.7067 11.0732C46.265 12.1193 47.0666 12.9516 48.1112 13.57C49.1558 14.1885 50.3865 14.4977 51.8034 14.4977C52.0675 14.4977 52.4277 14.4681 52.884 14.4089V14.33C51.5632 14.3366 50.4286 14.1392 49.48 13.7378C48.5314 13.3365 47.7659 12.7904 47.1836 12.0996C46.6012 11.4087 46.178 10.6521 45.9139 9.82964C45.6558 9.00723 45.5266 8.1848 45.5266 7.36237C45.5266 6.34914 45.6737 5.41485 45.9679 4.55953C46.268 3.70422 46.7034 2.96402 47.2736 2.33898C47.844 1.71394 48.5584 1.23036 49.417 0.888222C50.2815 0.539513 51.2541 0.365158 52.3346 0.365158H52.6498Z" fill="#4C4C4C"/>
<path d="M26.8086 0.32623V0.227539H31.3563C31.6564 0.674939 32.0437 1.21445 32.518 1.84607C32.9982 2.4777 33.4245 3.02051 33.7967 3.47449L37.8312 8.38931C38.3655 9.02751 38.7797 9.52097 39.0738 9.86968C39.3741 10.2184 39.7612 10.6428 40.2355 11.1428C40.2716 10.6888 40.2956 10.2644 40.3076 9.86968C40.3197 9.4749 40.3256 9.10317 40.3256 8.75446V4.491C40.3256 2.958 40.2565 1.69146 40.1184 0.691388L37.9302 0.32623V0.227539H43.2884V0.32623L41.1001 0.711126C40.986 1.63224 40.9289 2.80996 40.9289 4.24427V15.0608H40.8389C39.9203 13.7844 39.0108 12.5903 38.1103 11.4783L32.599 4.7476C31.7826 3.79359 31.0861 3.03366 30.5098 2.46783C30.4257 3.36263 30.3837 4.19822 30.3837 4.97458V11.2217C30.3837 12.0573 30.4438 13.0541 30.5638 14.2121L32.8512 14.5773V14.676H27.376V14.5773L29.5913 14.2318C29.6632 13.7581 29.7143 13.0838 29.7443 12.2086C29.7743 11.3336 29.7894 10.5539 29.7894 9.86968V5.0338C29.7894 4.46139 29.7803 3.89556 29.7623 3.33631C29.7443 2.77048 29.7113 2.21123 29.6632 1.65857L28.4656 0.691388L26.8086 0.32623ZM29.5012 0.592697L40.3797 13.8469V12.9192L30.2576 0.592697H29.5012Z" fill="#4C4C4C"/>
<path d="M18.4562 2.02332L23.1299 14.2906H23.7334L18.7534 1.19431L18.4562 2.02332ZM18.3122 2.85232C18.15 3.20103 17.9339 3.71093 17.6638 4.38204C17.3995 5.05313 17.1594 5.68147 16.9433 6.26704C16.7271 6.85261 16.502 7.47765 16.2679 8.14218C16.0337 8.80012 15.8776 9.23436 15.7996 9.4449C16.1538 9.49753 16.5651 9.53373 17.0334 9.55346C17.5077 9.5732 17.9579 9.58307 18.3841 9.58307C19.4348 9.58307 20.2963 9.53701 20.9687 9.4449C20.7405 8.70143 20.3533 7.64543 19.807 6.27691C19.2606 4.90181 18.7624 3.76028 18.3122 2.85232ZM19.2667 0.0791016L23.166 10.2739C23.6703 11.6029 24.2586 12.9221 24.931 14.2314L26.4259 14.5769V14.6756H20.0681V14.5769L22.5176 14.2314C22.4276 13.58 22.2594 12.8728 22.0133 12.1096C21.7732 11.3398 21.506 10.672 21.2118 10.1061H15.5655C15.3253 10.7707 15.1303 11.3167 14.9801 11.7444C14.8361 12.1721 14.6949 12.6162 14.5568 13.0768C14.4248 13.5373 14.3377 13.9221 14.2957 14.2314L16.6552 14.5769V14.6756H11.6211V14.5769L13.2781 14.2314C13.6803 13.4682 14.0496 12.626 14.3858 11.7049L18.5553 0.0791016H19.2667Z" fill="#4C4C4C"/>
<path d="M2.74663 0.592697V14.291H3.37701V0.592697H2.74663ZM0.0180107 0.32623V0.227539H6.82606V0.32623L4.59273 0.671649C4.51468 1.30986 4.44864 2.17175 4.3946 3.25736C4.34058 4.33638 4.31356 5.28053 4.31356 6.0898V10.3335C4.31356 11.3533 4.36159 12.4159 4.45764 13.5213C5.48426 13.8765 6.54389 14.0542 7.63654 14.0542C8.16485 14.0542 8.65114 14.0212 9.0954 13.9555C9.53966 13.8897 9.85184 13.8272 10.032 13.768L10.9685 11.0737H11.1036L10.6803 14.676H0V14.5773L2.15228 14.2318C2.22432 13.9161 2.28436 13.3535 2.33238 12.5443C2.38641 11.7349 2.42845 10.8994 2.45846 10.0374C2.48848 9.17554 2.50349 8.56694 2.50349 8.21166V5.72465C2.50349 5.17855 2.49147 4.55351 2.46746 3.84951C2.44345 3.13893 2.41343 2.51718 2.37741 1.98424C2.3474 1.45131 2.30536 1.01378 2.25134 0.671649L0.0180107 0.32623Z" fill="#4C4C4C"/>
<path d="M149.383 49.9873C149.556 49.9873 149.704 50.0544 149.825 50.1887C149.948 50.3229 150.01 50.4848 150.01 50.6742C150.01 50.8598 149.948 51.0197 149.825 51.1539C149.704 51.2881 149.556 51.3552 149.383 51.3552C149.213 51.3552 149.068 51.2881 148.945 51.1539C148.822 51.0197 148.762 50.8598 148.762 50.6742C148.762 50.4848 148.822 50.3229 148.945 50.1887C149.068 50.0544 149.213 49.9873 149.383 49.9873ZM149.004 52.6402H149.766V59.0827H149.004V52.6402Z" fill="#4C4C4C"/>
<path d="M147.055 49.9873C147.227 49.9873 147.375 50.0544 147.497 50.1887C147.62 50.3229 147.682 50.4848 147.682 50.6742C147.682 50.8598 147.62 51.0197 147.497 51.1539C147.375 51.2881 147.227 51.3552 147.055 51.3552C146.885 51.3552 146.74 51.2881 146.617 51.1539C146.494 51.0197 146.434 50.8598 146.434 50.6742C146.434 50.4848 146.494 50.3229 146.617 50.1887C146.74 50.0544 146.885 49.9873 147.055 49.9873ZM146.676 52.6402H147.438V59.0827H146.676V52.6402Z" fill="#4C4C4C"/>
<path d="M136.289 52.6404H137.041V53.7537C137.304 53.3431 137.574 53.043 137.851 52.8536C138.233 52.601 138.634 52.4746 139.056 52.4746C139.34 52.4746 139.611 52.5358 139.867 52.6582C140.123 52.7806 140.332 52.9443 140.494 53.1497C140.656 53.351 140.796 53.6412 140.915 54.0202C141.167 53.5148 141.482 53.1319 141.86 52.8713C142.239 52.6069 142.645 52.4746 143.081 52.4746C143.488 52.4746 143.847 52.5871 144.156 52.8121C144.47 53.0371 144.702 53.351 144.853 53.7537C145.005 54.1563 145.08 54.7602 145.08 55.5656V59.0829H144.308V55.5656C144.308 54.8747 144.263 54.4011 144.173 54.1444C144.082 53.8839 143.928 53.6747 143.708 53.5168C143.492 53.3589 143.233 53.28 142.93 53.28C142.563 53.28 142.225 53.3984 141.919 53.6352C141.618 53.8721 141.395 54.1879 141.256 54.5827C141.115 54.9775 141.044 55.6367 141.044 56.5605V59.0829H140.294V55.7848C140.294 55.007 140.249 54.4801 140.158 54.2037C140.072 53.9234 139.919 53.7003 139.699 53.5345C139.479 53.3648 139.219 53.28 138.916 53.28C138.566 53.28 138.239 53.3964 137.933 53.6293C137.63 53.8583 137.404 54.1682 137.257 54.5589C137.113 54.9498 137.041 55.5478 137.041 56.3532V59.0829H136.289V52.6404Z" fill="#4C4C4C"/>
<path d="M129.43 50.1533H130.186V53.7951C130.492 53.3529 130.829 53.0233 131.196 52.8062C131.564 52.585 131.962 52.4746 132.391 52.4746C132.83 52.4746 133.219 52.5969 133.557 52.8417C133.9 53.0865 134.151 53.4161 134.313 53.8306C134.477 54.2412 134.557 54.8866 134.557 55.7669V59.0829H133.801V56.0097C133.801 55.2675 133.774 54.7721 133.72 54.5234C133.626 54.097 133.455 53.7772 133.206 53.5641C132.962 53.3469 132.639 53.2384 132.239 53.2384C131.782 53.2384 131.372 53.4042 131.007 53.7358C130.648 54.0674 130.41 54.478 130.294 54.9675C130.222 55.2833 130.186 55.8675 130.186 56.7203V59.0829H129.43V50.1533Z" fill="#4C4C4C"/>
<path d="M127.86 53.9786L127.261 54.3873C126.741 53.6332 126.034 53.2562 125.137 53.2562C124.421 53.2562 123.824 53.5089 123.348 54.0142C122.877 54.5195 122.641 55.1333 122.641 55.8558C122.641 56.3255 122.749 56.7677 122.965 57.1822C123.185 57.5967 123.483 57.9184 123.862 58.1474C124.244 58.3764 124.671 58.4908 125.143 58.4908C126.007 58.4908 126.714 58.1139 127.261 57.3598L127.86 57.7921C127.579 58.254 127.201 58.6132 126.726 58.8698C126.253 59.1225 125.716 59.2487 125.11 59.2487C124.181 59.2487 123.41 58.9251 122.797 58.2777C122.185 57.6302 121.879 56.8427 121.879 55.9149C121.879 55.2913 122.021 54.713 122.306 54.18C122.594 53.6431 122.988 53.2246 123.489 52.9246C123.99 52.6246 124.55 52.4746 125.169 52.4746C125.558 52.4746 125.934 52.5398 126.293 52.67C126.658 52.8003 126.965 52.97 127.217 53.1793C127.47 53.3884 127.683 53.655 127.86 53.9786Z" fill="#4C4C4C"/>
<path d="M115.215 52.6406H115.977V55.6488C115.977 56.383 116.013 56.8884 116.085 57.1647C116.193 57.5594 116.398 57.8713 116.701 58.1003C117.007 58.3292 117.371 58.4437 117.793 58.4437C118.214 58.4437 118.57 58.3332 118.862 58.1121C119.158 57.8871 119.361 57.593 119.473 57.2298C119.549 56.9811 119.586 56.4541 119.586 55.6488V52.6406H120.359V55.8027C120.359 56.691 120.264 57.3601 120.073 57.8102C119.885 58.2602 119.6 58.6134 119.219 58.8701C118.841 59.1227 118.365 59.2491 117.793 59.2491C117.219 59.2491 116.741 59.1227 116.356 58.8701C115.974 58.6134 115.687 58.2582 115.496 57.8042C115.309 57.3463 115.215 56.6594 115.215 55.7435V52.6406Z" fill="#4C4C4C"/>
<path d="M108.449 50.1533H109.206V53.7951C109.512 53.3529 109.849 53.0233 110.216 52.8062C110.584 52.585 110.982 52.4746 111.41 52.4746C111.85 52.4746 112.239 52.5969 112.577 52.8417C112.919 53.0865 113.172 53.4161 113.334 53.8306C113.496 54.2412 113.577 54.8866 113.577 55.7669V59.0829H112.821V56.0097C112.821 55.2675 112.794 54.7721 112.739 54.5234C112.645 54.097 112.474 53.7772 112.226 53.5641C111.982 53.3469 111.659 53.2384 111.259 53.2384C110.801 53.2384 110.391 53.4042 110.027 53.7358C109.667 54.0674 109.429 54.478 109.314 54.9675C109.242 55.2833 109.206 55.8675 109.206 56.7203V59.0829H108.449V50.1533Z" fill="#4C4C4C"/>
<path d="M106.864 51.989L106.237 52.516C105.891 52.0225 105.475 51.6495 104.989 51.3968C104.506 51.1403 103.975 51.0119 103.395 51.0119C102.761 51.0119 102.174 51.1797 101.633 51.5152C101.093 51.8469 100.673 52.295 100.374 52.8594C100.079 53.42 99.9313 54.0516 99.9313 54.7543C99.9313 55.8162 100.263 56.7025 100.925 57.4131C101.592 58.1236 102.431 58.4789 103.443 58.4789C104.556 58.4789 105.487 58.0012 106.237 57.0458L106.864 57.567C106.467 58.1197 105.972 58.5479 105.378 58.852C104.787 59.152 104.126 59.302 103.395 59.302C102.004 59.302 100.907 58.7947 100.104 57.7802C99.4305 56.9235 99.0938 55.8892 99.0938 54.6773C99.0938 53.4023 99.5008 52.3305 100.315 51.4619C101.133 50.5895 102.156 50.1533 103.384 50.1533C104.126 50.1533 104.796 50.3152 105.394 50.6388C105.992 50.9587 106.482 51.4087 106.864 51.989Z" fill="#4C4C4C"/>
<path d="M94.3367 52.6404V59.0829H93.591V57.9756C93.2741 58.3981 92.9174 58.7158 92.5212 58.929C92.1286 59.1422 91.6981 59.2487 91.2298 59.2487C90.3977 59.2487 89.6864 58.9191 89.0956 58.2598C88.5085 57.5967 88.2148 56.7914 88.2148 55.8439C88.2148 54.9162 88.512 54.1228 89.1063 53.4635C89.7008 52.8042 90.4157 52.4746 91.2515 52.4746C91.7342 52.4746 92.17 52.5871 92.5591 52.8121C92.9517 53.0371 93.2957 53.3747 93.591 53.8247V52.6404H94.3367ZM91.3109 53.274C90.8895 53.274 90.5004 53.3884 90.1438 53.6174C89.7872 53.8425 89.5027 54.1602 89.2901 54.5708C89.0812 54.9814 88.9767 55.4156 88.9767 55.8735C88.9767 56.3275 89.083 56.7618 89.2955 57.1763C89.508 57.5908 89.7926 57.9145 90.1493 58.1474C90.5095 58.3764 90.8948 58.4908 91.3055 58.4908C91.7198 58.4908 92.1124 58.3764 92.4834 58.1474C92.8544 57.9184 93.139 57.6085 93.3371 57.2177C93.5389 56.8269 93.6396 56.3867 93.6396 55.8972C93.6396 55.1511 93.4145 54.5273 92.9643 54.026C92.5176 53.5247 91.9665 53.274 91.3109 53.274Z" fill="#4C4C4C"/>
<path d="M86.4182 49.9873C86.5911 49.9873 86.7388 50.0544 86.8612 50.1887C86.9837 50.3229 87.0449 50.4848 87.0449 50.6742C87.0449 50.8598 86.9837 51.0197 86.8612 51.1539C86.7388 51.2881 86.5911 51.3552 86.4182 51.3552C86.2489 51.3552 86.103 51.2881 85.9806 51.1539C85.8581 51.0197 85.7969 50.8598 85.7969 50.6742C85.7969 50.4848 85.8581 50.3229 85.9806 50.1887C86.103 50.0544 86.2489 49.9873 86.4182 49.9873ZM86.04 52.6402H86.8018V59.0827H86.04V52.6402Z" fill="#4C4C4C"/>
<path d="M82.4297 52.6404H83.2024V53.5819C83.4329 53.2109 83.6761 52.9345 83.9318 52.7529C84.1876 52.5674 84.4542 52.4746 84.7315 52.4746C84.9404 52.4746 85.1638 52.5476 85.4015 52.6937L85.007 53.3925C84.8486 53.3174 84.7153 53.28 84.6072 53.28C84.355 53.28 84.1119 53.3944 83.8778 53.6234C83.6437 53.8484 83.4653 54.1998 83.3429 54.6773C83.2492 55.0446 83.2024 55.7867 83.2024 56.9038V59.0829H82.4297V52.6404Z" fill="#4C4C4C"/>
<path d="M78.1378 52.4746C79.0419 52.4746 79.7912 52.8339 80.3856 53.5523C80.926 54.2076 81.196 54.9833 81.196 55.8794C81.196 56.7796 80.9096 57.5671 80.3369 58.2421C79.7678 58.9132 79.0348 59.2487 78.1378 59.2487C77.2373 59.2487 76.5007 58.9132 75.928 58.2421C75.3588 57.5671 75.0742 56.7796 75.0742 55.8794C75.0742 54.9873 75.3444 54.2135 75.8847 53.5583C76.479 52.8358 77.2301 52.4746 78.1378 52.4746ZM78.1378 53.2858C77.5111 53.2858 76.9725 53.5405 76.5223 54.0497C76.072 54.5589 75.8468 55.1749 75.8468 55.8972C75.8468 56.3631 75.9495 56.7973 76.1549 57.1999C76.3601 57.6027 76.6376 57.9145 76.987 58.1355C77.3363 58.3527 77.72 58.4613 78.1378 58.4613C78.5557 58.4613 78.9394 58.3527 79.2887 58.1355C79.6381 57.9145 79.9154 57.6027 80.1208 57.1999C80.3262 56.7973 80.4289 56.3631 80.4289 55.8972C80.4289 55.1749 80.2018 54.5589 79.748 54.0497C79.2977 53.5405 78.761 53.2858 78.1378 53.2858Z" fill="#4C4C4C"/>
<path d="M72.1532 50.248H72.9151V52.6403H74.1145V53.3509H72.9151V59.083H72.1532V53.3509H71.1211V52.6403H72.1532V50.248Z" fill="#4C4C4C"/>
<path d="M69.9267 53.9786L69.3269 54.3873C68.8082 53.6332 68.1004 53.2562 67.2034 53.2562C66.4865 53.2562 65.8905 53.5089 65.4149 54.0142C64.9431 54.5195 64.7071 55.1333 64.7071 55.8558C64.7071 56.3255 64.8151 56.7677 65.0313 57.1822C65.251 57.5967 65.55 57.9184 65.9282 58.1474C66.3101 58.3764 66.7369 58.4908 67.2088 58.4908C68.0734 58.4908 68.7794 58.1139 69.3269 57.3598L69.9267 57.7921C69.6456 58.254 69.2674 58.6132 68.7919 58.8698C68.3201 59.1225 67.7815 59.2487 67.1764 59.2487C66.247 59.2487 65.4762 58.9251 64.8639 58.2777C64.2515 57.6302 63.9453 56.8427 63.9453 55.9149C63.9453 55.2913 64.0875 54.713 64.3721 54.18C64.6603 53.6431 65.0547 53.2246 65.5555 52.9246C66.0562 52.6246 66.6163 52.4746 67.2358 52.4746C67.6249 52.4746 67.9995 52.5398 68.3597 52.67C68.7235 52.8003 69.0315 52.97 69.2836 53.1793C69.5358 53.3884 69.7501 53.655 69.9267 53.9786Z" fill="#4C4C4C"/>
<path d="M62.1565 49.9873C62.3295 49.9873 62.4772 50.0544 62.5996 50.1887C62.7221 50.3229 62.7833 50.4848 62.7833 50.6742C62.7833 50.8598 62.7221 51.0197 62.5996 51.1539C62.4772 51.2881 62.3295 51.3552 62.1565 51.3552C61.9872 51.3552 61.8414 51.2881 61.7188 51.1539C61.5964 51.0197 61.5352 50.8598 61.5352 50.6742C61.5352 50.4848 61.5964 50.3229 61.7188 50.1887C61.8414 50.0544 61.9872 49.9873 62.1565 49.9873ZM61.7783 52.6402H62.5402V59.0827H61.7783V52.6402Z" fill="#4C4C4C"/>
<path d="M53.5312 50.373H54.3957L57.0271 57.1058L59.7071 50.373H60.5716L57.1135 59.0836H56.9406L53.5312 50.373Z" fill="#4C4C4C"/>
<path d="M111.787 28.7134L112.408 27.3021H112.976L113.21 33.1743H112.606C112.211 31.5228 111.712 30.3056 111.112 29.5227C110.367 28.5424 109.479 28.0522 108.446 28.0522C107.33 28.0522 106.42 28.5982 105.718 29.6905C105.015 30.7826 104.664 32.6314 104.664 35.2369C104.664 37.4279 105.066 39.0991 105.871 40.2505C106.555 41.2242 107.516 41.711 108.752 41.711C109.833 41.711 110.74 41.3328 111.472 40.5761C112.204 39.8128 112.681 38.6647 112.903 37.1318H113.544C113.357 38.8687 112.814 40.2044 111.914 41.1386C111.013 42.0729 109.878 42.54 108.509 42.54C107.399 42.54 106.378 42.2341 105.447 41.6223C104.523 41.0104 103.781 40.1319 103.223 38.9872C102.671 37.8358 102.395 36.5758 102.395 35.2073C102.395 33.7532 102.68 32.388 103.25 31.1116C103.826 29.8352 104.562 28.8779 105.456 28.2397C106.351 27.5949 107.315 27.2725 108.347 27.2725C108.923 27.2725 109.482 27.3811 110.022 27.5982C110.562 27.8153 111.151 28.187 111.787 28.7134Z" fill="#A4A5F8"/>
<path d="M86.2812 27.5781H91.8915V28.3182H90.9189C90.5167 28.3182 90.2436 28.3709 90.0995 28.4762C89.9553 28.5815 89.8834 28.7229 89.8834 28.9006C89.8834 29.0387 89.9373 29.2394 90.0454 29.5025L90.1174 29.7098L93.6206 39.4901L96.7274 30.154C96.7874 29.9697 96.8175 29.746 96.8175 29.4828C96.8175 29.1144 96.7183 28.8282 96.5202 28.6242C96.3282 28.4202 96.061 28.3182 95.7188 28.3182H94.8093V27.5781H99.7262V28.3182H99.33C99.0297 28.3182 98.7296 28.4729 98.4294 28.7822C98.1352 29.0914 97.8681 29.6012 97.6279 30.3118L93.5035 42.52H92.846L88.1453 29.4729C87.9833 29.0387 87.7941 28.7393 87.578 28.5749C87.3678 28.4038 87.0797 28.3182 86.7134 28.3182H86.2812V27.5781Z" fill="#A4A5F8"/>
<path fill-rule="evenodd" clip-rule="evenodd" d="M78.9879 34.7108H27.3477V33.7002H78.9879V34.7108Z" fill="#707070"/>
<path fill-rule="evenodd" clip-rule="evenodd" d="M174.89 34.7108H123.25V33.7002H174.89V34.7108Z" fill="#707070"/>
</g>
<defs>
<clipPath id="clip0_282_1962">
<rect width="200" height="60" fill="white"/>
</clipPath>
</defs>
</svg>
