<svg xmlns="http://www.w3.org/2000/svg" viewBox="0 0 70 70" fill="none">
  <circle cx="35" cy="35" r="35" fill="#86B1F2"/>
  <svg x="18" y="18" width="34" height="34" viewBox="0 0 34 34" fill="none">
    <g clip-path="url(#clip0_217_1738)">
   <path d="M27.6239 17.8102L16.9989 28.3332L6.37388 17.8102C5.67306 17.1283 5.12104 16.3086 4.75257 15.4028C4.38411 14.497 4.20718 13.5247 4.23293 12.5472C4.25867 11.5697 4.48654 10.6081 4.90219 9.72294C5.31783 8.83781 5.91224 8.04833 6.64799 7.40421C7.38373 6.76008 8.24488 6.27528 9.1772 5.98032C10.1095 5.68535 11.0928 5.58663 12.0652 5.69035C13.0375 5.79408 13.9778 6.09801 14.827 6.583C15.6761 7.068 16.4156 7.72355 16.9989 8.50838C17.5847 7.72925 18.3251 7.07942 19.1736 6.59957C20.0221 6.11973 20.9606 5.82019 21.9302 5.7197C22.8998 5.61922 23.8797 5.71996 24.8086 6.01561C25.7375 6.31126 26.5954 6.79545 27.3286 7.4379C28.0617 8.08034 28.6544 8.8672 29.0695 9.74923C29.4845 10.6313 29.7131 11.5895 29.7408 12.5639C29.7685 13.5383 29.5948 14.508 29.2306 15.4122C28.8663 16.3164 28.3193 17.1356 27.6239 17.8187" stroke="#1D1E1F" stroke-width="2" stroke-linecap="round" stroke-linejoin="round"/>
    </g>
    <defs>
      <clipPath id="clip0_217_1738">
        <rect width="34" height="34" fill="white"/>
      </clipPath>
    </defs>
  </svg>
</svg>
