<svg xmlns="http://www.w3.org/2000/svg" viewBox="0 0 70 70" fill="none">
  <circle cx="35" cy="35" r="35" fill="#86B1F2"/>
  <path d="M34.934 28.2895C31.7608 28.2895 29.1875 25.9282 29.1875 22.755C29.1875 19.5818 31.7693 17 34.9425 17C38.1157 17 40.6975 19.5818 40.6975 22.755C40.6975 25.9282 38.1073 28.2895 34.934 28.2895ZM34.934 18.3026C32.2491 18.3026 30.4561 20.0701 30.4561 22.755C30.4561 25.44 32.2491 26.9869 34.934 26.9869C37.619 26.9869 39.3919 25.44 39.3919 22.755C39.3919 20.0701 37.619 18.3026 34.934 18.3026Z" fill="#1D1E1F"/>
  <path d="M28.0598 43.5879C27.9912 43.5879 27.9367 43.579 27.8885 43.5666C27.2492 43.4042 26.795 42.6565 26.5029 41.281C26.2948 40.3018 26.2107 39.2003 26.201 38.496L26.1961 38.1658C26.1762 36.7916 26.1558 35.3706 26.3422 34.1302C26.799 31.0893 28.5313 29.5479 31.4911 29.5479H36.7224C36.9668 29.5479 37.1651 29.7462 37.1651 29.9905C37.1651 30.2349 36.9668 30.895 36.7224 30.895H31.4911C28.9682 30.895 27.7614 31.9893 27.3688 34.6016C27.193 35.7703 27.3493 36.9884 27.3688 38.3271V38.5559C27.3772 39.1876 27.3576 39.9637 27.5524 40.8819C27.8299 42.1896 27.887 42.1385 27.9866 42.1845C28.2704 42.1487 29.2983 42.1218 30.5919 41.3161C31.9841 40.4493 32.8527 39.7294 33.1971 39.145C33.4419 38.6293 34.0656 35.6713 34.0656 34.3687C34.0864 34.1252 34.3837 34.1775 34.6272 34.1983C34.8707 34.2192 35.0513 34.4334 35.0305 34.6769C34.9738 35.3414 34.6714 38.697 34.2774 39.4832L34.2651 39.5062C33.6581 40.5581 31.8147 41.7604 31.0502 42.2284C30.4092 42.621 29.7584 42.9734 29.2183 43.2209C28.5849 43.5113 28.2612 43.5888 28.0585 43.5888L28.0598 43.5879Z" fill="#1D1E1F"/>
  <path d="M41.825 43.5873C41.6235 43.5873 41.2999 43.5098 40.6651 43.2189C40.125 42.9715 39.4742 42.6191 38.8332 42.2264C38.0687 41.7585 36.2253 40.5561 35.6184 39.5043L35.606 39.4813C35.2085 38.6875 34.7312 35.1013 34.6781 34.6949C34.6467 34.4523 34.8171 34.23 35.0597 34.1986C35.3019 34.1667 35.7701 34.1254 35.8015 34.368C35.9932 35.8351 36.4202 38.622 36.6699 39.1444C37.0143 39.7287 37.8825 40.4486 39.2752 41.3154C40.5679 42.1202 41.5958 42.5818 41.8805 42.6181C41.9832 42.5703 42.2384 42.3982 42.5151 41.0958C42.7099 40.1781 42.7405 39.3423 42.7489 38.7102V38.2759C42.7684 36.9372 42.6909 35.3673 42.5151 34.1986C42.1224 31.5867 40.9297 30.8943 38.4068 30.8943H33.1962C32.9518 30.8943 32.7188 30.233 32.7188 29.9886C32.7188 29.7442 32.9171 29.5459 33.1614 29.5459H38.3927C41.3522 29.5459 43.0849 31.0878 43.5413 34.1282C43.7277 35.3686 43.7073 36.7897 43.6874 38.1638L43.6825 38.4941C43.6732 39.1984 43.5887 40.2998 43.3806 41.2791C43.0884 42.6545 42.6342 43.4022 41.9923 43.5656C41.9454 43.578 41.8914 43.5864 41.8241 43.5864L41.825 43.5873Z" fill="#1D1E1F"/>
  <path d="M21.5117 53.8354C19.3797 53.8354 18.543 53.0731 18.2172 52.4272C17.7993 51.5985 18.0441 50.6476 18.4487 50.1142C19.4784 48.756 22.9241 48.1295 26.25 47.8129C26.6842 47.8129 26.2006 47.8177 27.1185 47.8129C27.1185 47.8129 27.7847 47.6586 27.9108 47.6183C28.8294 47.3266 30.2797 46.6721 30.5462 45.2077C30.7503 44.0854 30.9553 43.2821 30.5462 41.8823C30.4776 41.6476 30.6122 41.402 30.8468 41.3333C31.0814 41.2647 31.3271 41.3993 31.3957 41.6339C31.8406 43.1564 31.9332 44.3397 31.7056 45.5916C31.3439 47.5802 29.2257 48.2531 28.2075 48.5767C28.0897 48.6143 27.9874 48.6466 27.9108 48.6741C27.6789 48.7573 27.199 48.8056 26.2211 48.8985C24.213 49.0898 20.1836 49.6899 19.3026 50.8524C19.107 51.1101 19.041 51.6358 19.3026 52.155C19.6108 52.766 20.2531 52.784 21.6246 52.7668C23.5941 52.7424 26.1478 52.1547 28.8553 51.7208C32.8382 51.0829 36.5124 50.8548 37.7581 51.4936C37.9755 51.6052 38.408 51.7844 38.408 52.155C38.408 52.5893 37.3227 53.135 37.1053 53.0235C36.1172 52.5166 32.5746 52.3816 29.2296 52.9173C26.4907 53.356 23.6588 53.8098 21.6246 53.835C21.5865 53.8354 21.5485 53.8359 21.5108 53.8359L21.5117 53.8354Z" fill="#1D1E1F"/>
  <path d="M47.489 53.8513C47.4514 53.8513 47.4138 53.8513 47.3753 53.8505C45.044 53.8212 41.6543 52.8314 38.3766 51.8734C36.6537 51.37 35.0259 50.8946 33.7013 50.6077C32.0067 50.2407 31.3613 50.3125 31.1182 50.4373C30.9009 50.5489 30.6339 50.463 30.5223 50.2456C30.4108 50.0282 30.3748 49.6773 30.5922 49.5657C31.5955 49.0508 34.225 49.6465 38.408 50.8684C41.479 51.7657 44.8823 52.5778 47.0923 52.6052C48.4655 52.6229 49.3894 52.7819 49.6975 52.171C49.9592 51.6522 49.8932 51.1265 49.6975 50.8684C48.8161 49.7063 44.7582 49.3228 42.7501 49.1315C41.7727 49.0385 41.3874 48.914 41.1796 48.914C40.9718 48.914 40.2631 48.7349 40.1449 48.6973C39.1267 48.3741 37.4671 47.6468 37.1054 45.6578C36.8145 44.0575 37.2699 42.6645 37.7599 41.1412C37.8348 40.9083 38.084 40.7808 38.3169 40.8552C38.5497 40.93 38.6776 41.1797 38.6028 41.4121C38.1535 42.8088 37.9069 44.0293 38.165 45.4486C38.4315 46.913 40.1412 47.4562 41.0602 47.7479C41.1864 47.7882 41.2953 47.8227 41.3874 47.8555C41.5299 47.9051 42.2378 47.9728 42.8624 48.0321C46.1884 48.3487 49.5219 48.7714 50.5516 50.1296C50.9558 50.6626 51.201 51.614 50.7831 52.4427C50.4573 53.0886 49.621 53.8513 47.489 53.8513Z" fill="#1D1E1F"/>
  <path d="M30.1461 39.4483C29.9513 39.4483 29.7729 39.319 29.7193 39.122C29.3041 37.6 29.6892 33.6197 29.706 33.4511C29.7299 33.2076 29.9464 33.0296 30.1899 33.054C30.4334 33.0779 31.0506 33.2565 31.0267 33.5C30.9183 34.604 30.7177 37.5777 31.0267 38.7105C31.0909 38.9465 30.4989 39.3686 30.263 39.4328C30.224 39.4434 30.1846 39.4483 30.1461 39.4483Z" fill="#1D1E1F"/>
  <path d="M39.7393 39.4486C39.7008 39.4486 39.6614 39.4433 39.6224 39.4327C39.3865 39.3685 38.7765 38.9465 38.8406 38.7105C39.1496 37.5772 38.9493 34.604 38.8408 33.5C38.8169 33.2565 39.4524 33.0778 39.6955 33.0539C39.9394 33.03 40.1554 33.208 40.1793 33.451C40.1962 33.6197 40.5808 37.5999 40.166 39.1219C40.1125 39.3189 39.9341 39.4486 39.7393 39.4486Z" fill="#1D1E1F"/>
</svg>