<svg width="516" height="430" viewBox="0 0 516 430" fill="none" xmlns="http://www.w3.org/2000/svg">
<g id="vector">
<path id="Vector" d="M326.609 81.781L330.987 83.2373L333.926 75.8575L340.569 77.1343L343.601 72L346 73.6663L341.943 80.5313L335.647 79.3222L332.59 87L326 84.8054L326.609 81.781Z" fill="#50BFA5"/>
<path id="Vector_2" d="M40.6091 339.781L44.9883 341.237L47.9275 333.858L54.5713 335.134L57.6042 330L60 331.666L55.9457 338.528L49.6486 337.322L46.5906 345L40 342.805L40.6091 339.781Z" fill="#50BFA5"/>
<path id="Vector_3" d="M354.196 424C354.196 424 377.911 340.709 379.813 322.334C381.716 303.962 368.457 309.655 368.457 309.655C368.457 309.655 379.614 274.646 371.545 266.338C363.479 258.029 356.203 273.516 356.203 273.516C356.203 273.516 353.762 231.016 345.16 231C329.14 230.97 329.457 277.35 329.457 277.35C329.457 277.35 325.367 259.192 316.791 264.169C303.856 271.676 322.406 308.065 322.406 308.065C322.406 308.065 305.923 308.078 300.133 316.689C289.744 332.141 354.199 424 354.199 424H354.196Z" fill="#50BFA5"/>
<g id="Group">
<path id="Vector_4" d="M346.003 413C346.003 413 414.362 401.11 429.23 388.512C444.098 375.913 429.382 370.232 429.382 370.232C429.382 370.232 463.722 351.922 463.325 339.472C462.929 327.022 445.867 333.352 445.867 333.352C445.867 333.352 474.801 299.035 467.951 292.52C455.191 280.379 421.742 316.052 421.742 316.052C421.742 316.052 431.674 299.088 421.213 296.404C405.438 292.355 393.794 334.187 393.794 334.187C393.794 334.187 396.751 317.668 385.875 319.867C366.359 323.814 346 412.997 346 412.997L346.003 413Z" fill="#50BFA5"/>
<path id="Vector_5" d="M385.735 319.862C396.665 317.812 393.672 334.18 393.672 334.18C393.672 334.18 405.343 292.355 421.154 296.403C431.64 299.086 421.685 316.048 421.685 316.048C421.685 316.048 455.214 280.381 468 292.519L346 413C348.17 401.491 367.41 323.301 385.735 319.865V319.862Z" fill="#3C8F7C"/>
</g>
<g id="Group_2">
<path id="Vector_6" d="M326 422.493C326 422.493 362.129 384.499 380.32 380.541C398.515 376.583 395.241 389.97 395.241 389.97C395.241 389.97 431.338 357.326 439.702 365.236C448.067 373.145 439.018 380.781 439.018 380.781C439.018 380.781 469.087 375.27 473.391 385.476C480.005 401.157 430.556 409.688 430.556 409.688C430.556 409.688 451.277 411.171 446.473 421.002C439.225 435.827 326 422.489 326 422.489V422.493Z" fill="#355389"/>
<path id="Vector_7" d="M473 385.766C468.707 375.504 438.72 381.044 438.72 381.044C438.72 381.044 447.744 373.363 439.402 365.407C431.061 357.452 396.178 385.823 396.178 385.823C396.178 385.823 404.402 369.428 386.256 373.406C368.111 377.387 326 423 326 423L472.997 385.766H473Z" fill="#466EB6"/>
</g>
<g id="Group_3">
<path id="Vector_8" d="M268.311 32.1979C280.628 34.2399 284.289 50.5275 274.047 57.8126C272.207 59.1209 270.934 61.0883 270.393 63.2894L268.527 70.8667C268.014 72.9542 265.993 74.295 263.886 73.9444L259.219 73.1717C257.111 72.8211 255.626 70.9024 255.803 68.7565C256.451 60.9357 257.25 58.0983 254.727 54.6083C247.343 44.4046 255.987 30.1526 268.307 32.1979H268.311Z" fill="#F7CC7F"/>
<path id="Vector_9" d="M267.106 65C267.924 58.267 269.071 51.1588 269.462 49.1428C276.662 49.5375 273.924 42.002 270.602 45.0651C269.656 45.9394 269.209 47.1235 268.913 48.4186C266.521 48.2033 264.185 47.528 262.055 46.4352C262.17 44.7748 262.334 43.5156 261.868 42.4522C261.161 40.8472 259.114 40.4101 258.279 41.9726C257.967 42.5598 257.911 43.3101 258.138 43.9332C258.621 45.2608 260.074 46.1384 261.342 46.8267C260.964 52.1798 260.438 57.5754 259.778 62.8861L260.458 62.9709C261.109 57.745 261.628 52.4375 262.006 47.1692C264.122 48.2131 266.422 48.8655 268.778 49.0873C268.286 51.6644 267.198 58.5932 266.429 64.9152L267.109 64.9967L267.106 65ZM272.883 47.5541C272.242 48.2392 271.171 48.5393 269.607 48.4675C269.876 47.3225 270.277 46.2949 271.069 45.5642C272.856 43.9136 273.954 46.4058 272.879 47.5541H272.883ZM261.24 42.7262C261.635 43.62 261.483 44.765 261.395 46.0796C260.366 45.499 259.17 44.7715 258.786 43.7081C258.513 42.961 258.818 41.9074 259.584 41.7116C259.666 41.6921 260.967 42.1031 261.24 42.7294V42.7262Z" fill="#FAE0B2"/>
<path id="Vector_10" d="M271 63.2799C270.984 63.3406 270.96 63.4013 270.944 63.4652L269.035 70.9181C268.51 72.9714 266.442 74.2902 264.286 73.9453L259.51 73.1853C257.354 72.8404 255.833 70.9533 256.015 68.8425C256.308 65.4194 256.635 62.9702 256.678 61L270.997 63.2799H271Z" fill="#96D9C9"/>
<path id="Vector_11" d="M278.375 26.2589L281.843 19.1151C282.18 18.4233 281.956 17.5569 281.343 17.1767C280.73 16.7966 279.962 17.05 279.625 17.7418L276.157 24.8856C275.82 25.5774 276.044 26.4438 276.657 26.824C277.273 27.2041 278.041 26.9473 278.375 26.2589Z" fill="#FAE0B2"/>
<path id="Vector_12" d="M285.501 41.9954L293.741 41.3739C294.498 41.3169 295.061 40.7409 294.995 40.0851C294.929 39.4322 294.26 38.9475 293.499 39.0046L285.259 39.6261C284.502 39.6831 283.939 40.2591 284.005 40.9148C284.071 41.5678 284.74 42.0525 285.501 41.9954Z" fill="#FAE0B2"/>
<path id="Vector_13" d="M293.61 67.592C294.135 67.049 294.129 66.175 293.597 65.6387C291.612 63.6358 289.425 61.815 287.103 60.2325C286.483 59.8087 285.643 59.9809 285.228 60.6132C284.813 61.2456 284.981 62.103 285.601 62.5268C287.781 64.0132 289.831 65.7215 291.696 67.6019C292.225 68.1349 293.081 68.1349 293.61 67.5886V67.592Z" fill="#FAE0B2"/>
<path id="Vector_14" d="M258.091 25.9488C258.746 25.7501 259.134 24.9789 258.957 24.2312C258.129 20.6747 257.621 17.007 257.448 13.3292C257.413 12.5546 256.834 11.9585 256.159 12.0023C255.483 12.0427 254.966 12.7062 255.002 13.4808C255.184 17.3505 255.718 21.2135 256.59 24.9587C256.767 25.7131 257.442 26.1509 258.088 25.9522L258.091 25.9488Z" fill="#FAE0B2"/>
<path id="Vector_15" d="M249.943 36.0842C250.155 35.3997 249.757 34.6812 249.047 34.4737L240.727 32.0549C240.017 31.8505 239.272 32.2345 239.057 32.9189C238.845 33.6003 239.243 34.3219 239.953 34.5263L248.273 36.9451C248.979 37.1495 249.728 36.7655 249.94 36.0811L249.943 36.0842Z" fill="#FAE0B2"/>
<path id="Vector_16" d="M236.371 59C236.493 59 236.618 58.9837 236.743 58.9479C239.693 58.1269 242.564 56.9866 245.274 55.5596C245.941 55.2077 246.194 54.3867 245.839 53.7221C245.484 53.0607 244.652 52.8066 243.985 53.1585C241.449 54.4942 238.762 55.5596 236 56.3285C235.27 56.5305 234.845 57.2798 235.053 58.0031C235.224 58.6025 235.773 58.9935 236.371 58.9935V59Z" fill="#FAE0B2"/>
</g>
<path id="Vector_17" d="M49.227 84L50.9518 90.9639L62.4411 89.4186L66.2152 99.2898L75 99.5441L74.8715 104L63.1252 103.662L59.5439 94.3091L47.5953 95.9157L45 85.4327L49.227 84Z" fill="#F48C7F"/>
<path id="Vector_18" d="M151 423.997H351.156C358.801 423.997 365 417.439 365 409.352V400.645C365 392.554 358.801 386 351.156 386H151C160.157 396.588 160.313 412.772 151.369 423.558L151 424V423.997Z" fill="#B75742"/>
<path id="Vector_19" d="M154.01 391H265.142C272.794 391 279 397.716 279 406.002C279 414.284 272.798 421 265.142 421H154C159.192 411.799 159.182 400.177 154.01 391Z" fill="#FAE0B2"/>
<path id="Vector_20" d="M221.122 359.219C220.832 358.656 221.275 358 221.947 358H327.955C336.263 358 343 364.267 343 372C343 379.73 336.263 386 327.955 386H221.919C221.243 386 220.797 385.341 221.093 384.774C225.29 376.682 225.281 367.275 221.125 359.219H221.122Z" fill="#86B1F2"/>
<path id="Vector_21" d="M222.342 361.003H274.477C284.154 361.003 292 366.152 292 372.502C292 378.852 284.154 384 274.477 384H222C225.586 376.681 225.687 368.351 222.342 361V361.003Z" fill="#F7CC7F"/>
<g id="Group_4">
<path id="Vector_22" d="M236 367H242.478C243.872 367 245 367.411 245 367.918V368H236V367Z" fill="#B75742"/>
<path id="Vector_23" d="M230.012 369.874C230.012 368.284 231.69 367 233.758 367H242C240.429 367 239.158 367.977 239.158 369.182L239.197 400L234.643 396.037L230 400L230.009 369.877L230.012 369.874Z" fill="#F47458"/>
</g>
<g id="Group_5">
<path id="Vector_24" d="M240 356.997H302.038C307.538 356.997 312 351.625 312 344.998C312 338.371 307.541 333 302.038 333H240C244.741 339.653 244.927 349.41 240.442 356.317L240 357V356.997Z" fill="#FAE0B2"/>
<path id="Vector_25" d="M312.246 345.497C312.246 338.742 307.71 333.267 302.113 333.267H239.526C239.233 333.267 238.997 332.978 239 332.627C239 332.279 239.236 332 239.526 332H338.816C344.992 332 350 338.042 350 345.5C350 352.955 344.992 359 338.816 359H239.529C239.242 359 239.006 358.718 239.003 358.373C239.003 358.022 239.236 357.733 239.529 357.733H302.116C307.713 357.733 312.249 352.258 312.249 345.503L312.246 345.497Z" fill="#466EB6"/>
<g id="Group_6">
<path id="Vector_26" d="M252 339H258.478C259.872 339 261 339.411 261 339.919V340H252V339Z" fill="#184655"/>
<path id="Vector_27" d="M246.012 341.789C246.012 340.251 247.69 339 249.758 339H258C256.429 339 255.158 339.946 255.158 341.115L255.197 371L250.643 367.157L246 371L246.009 341.789H246.012Z" fill="#3C8F7C"/>
</g>
</g>
<g id="Group_7">
<g id="Group_8">
<path id="Vector_28" d="M143.053 153.464L134 151L140.138 235.627L151 236L145.521 156.537C145.42 155.072 144.428 153.837 143.056 153.464H143.053Z" fill="#184655"/>
<g id="Group_9">
<path id="Vector_29" d="M139.269 237.987C139.479 238.007 139.692 238.004 139.911 237.978C141.77 237.758 143.151 235.912 142.987 233.85L136.751 154.353C136.59 152.295 134.951 150.802 133.089 151.021C131.226 151.241 129.849 153.087 130.013 155.149L136.249 234.646C136.393 236.465 137.689 237.84 139.269 237.987Z" fill="#F7CC7F"/>
<path id="Vector_30" d="M222 242.322C221.997 242.382 221.994 242.442 221.987 242.501C221.703 245.781 219.288 248.234 216.588 247.982L140.403 240.812C137.703 240.559 135.746 237.691 136.027 234.412C136.039 234.272 136.055 234.136 136.074 234L221.997 242.322H222Z" fill="#F7CC7F"/>
</g>
</g>
<path id="Vector_31" d="M169.003 328.612C174.083 331.475 189.612 326.454 189.612 326C189.834 330.315 207 372.546 207 372.546L206.987 385.539C206.987 385.539 171.617 387.252 172.125 384.075C172.633 380.897 174.536 382.963 181.591 376.962C182.218 376.429 192.123 374.092 189.442 368.13C184.044 356.124 172.575 336.107 169 328.612H169.003Z" fill="#F7A491"/>
<path id="Vector_32" d="M207.913 385.99L169.438 386C168.048 385.851 167.725 384.651 168.214 383.923C169.224 382.422 176.598 378.888 181.554 376.54C190.187 377.611 205.363 374.091 206.753 372C210.408 377.191 208.686 385.817 207.91 385.986L207.913 385.99Z" fill="#3C8F7C"/>
<path id="Vector_33" d="M215.866 297.638C216.383 296.039 182.973 281.422 181.479 283.093C178.833 286.047 199.556 341.5 199.556 341.5L175.749 349C175.749 349 151 284.935 152.031 273.215C153.066 261.496 165.464 248.181 192.329 256.704C219.194 265.225 215.869 297.638 215.869 297.638H215.866Z" fill="#355389"/>
<path id="Vector_34" d="M146.625 335.482C152.27 334.41 159.586 334.106 165.441 334C164.752 339.432 161.399 367.294 162.012 369.004C164.494 375.938 170 379.184 170 379.184C170 379.184 144.038 403.592 142.469 400.773C140.901 397.955 143.628 398.332 145.324 389.032C145.473 388.205 149.229 375.227 149.461 368.224C149.905 354.872 146.819 342.896 146.625 335.482Z" fill="#F7A491"/>
<path id="Vector_35" d="M155.47 244.775C159.099 242.773 168.518 242.704 178.877 243.398C199.072 244.749 219.002 248.858 238.214 255.432L251.067 259.833L251.026 246.215C251.026 246.215 291.918 239.144 293.339 249.617C295.483 265.389 292.824 297.412 279.198 304.558C236.878 326.759 177.573 269.192 177.36 276.723C177.071 286.837 168.82 324.478 166.711 340.956C160.842 341.061 150.763 341.058 146.392 340.019C145.543 307.736 145.142 250.469 155.47 244.775Z" fill="#466EB6"/>
<path id="Vector_36" d="M170.969 379.675L142.147 403.653C141.006 404.44 140.056 403.758 140.003 402.899C139.89 401.126 143.414 393.713 145.8 388.756C152.981 383.962 162.453 371.456 162.284 369C165.322 371.671 171.462 379.051 170.972 379.678L170.969 379.675Z" fill="#3C8F7C"/>
<path id="Vector_37" d="M237.094 113.428C238.076 104.178 239.108 94.8952 246.539 88.1158C252.555 82.6308 260.199 81.7002 267.761 84.6361C289.183 92.9521 278.146 112.579 305.459 132.37C313.948 138.52 323.302 142.727 329.691 151.007C338.635 162.597 335.259 176.539 327.106 185.847C288.103 230.383 244.554 170.238 241.429 155.798C239.105 145.057 236.465 119.378 237.094 113.424V113.428Z" fill="#13375B"/>
<path id="Vector_38" d="M244.769 166.09C247.954 160.002 251.238 155.169 251.238 155.169C254.544 149.078 263.08 146 263.08 146C263.08 146 265.934 146.059 269.215 146.227C269.418 146.79 269.625 147.195 269.834 147.356C271.066 148.315 278.129 147.077 282.689 150.29C297.979 163.878 293.75 229.741 292.546 250.542L245.982 251C245.982 251 251.854 206.24 242.391 194.74C235.801 186.733 240.041 175.128 244.769 166.093V166.09Z" fill="#50BFA5"/>
<path id="Vector_39" d="M266.533 123.34C266.533 123.34 269.057 142.393 270.819 147.024C272.581 151.655 261.13 161.555 251.601 164.561C242.072 167.567 254.513 154.333 254.118 149.384C253.724 144.436 251.993 121 251.993 121L266.537 123.34H266.533Z" fill="#F7A491"/>
<path id="Vector_40" d="M251.504 127.744C251.213 123.854 251 121 251 121L266.192 123.349C266.192 123.349 266.575 125.595 267 128.774C260.843 132.405 255.303 131.259 251.507 127.747L251.504 127.744Z" fill="#F47458"/>
<path id="Vector_41" d="M261.595 89.1703C261.595 89.1703 267.426 90.5284 271.028 96.2007C274.629 101.873 277.097 118.578 265.241 126.374C253.382 134.171 244.16 123.142 244.007 112.386C243.854 101.63 246.087 87.2729 261.598 89.1703H261.595Z" fill="#F7A491"/>
<path id="Vector_42" d="M241.533 109.141C242.475 111.828 244.342 113.497 245.706 112.867C247.069 112.237 247.41 109.546 246.467 106.859C245.525 104.172 243.658 102.503 242.294 103.133C240.931 103.763 240.59 106.454 241.533 109.141Z" fill="#F7A491"/>
<path id="Vector_43" d="M260.003 88.0019C260.003 88.0019 267.289 105.244 273.691 106.785C280.094 108.326 280 117 280 117C280 117 279.856 96.9654 273.857 92.3684C267.857 87.7714 260 88.0019 260 88.0019H260.003Z" fill="#13375B"/>
<path id="Vector_44" d="M271.333 110.951C270.511 113.649 271.263 116.31 273.012 116.888C274.762 117.466 276.846 115.748 277.667 113.049C278.489 110.351 277.737 107.69 275.988 107.112C274.238 106.534 272.154 108.252 271.333 110.951Z" fill="#F7A491"/>
<path id="Vector_45" d="M187.64 235.37C190.429 234.32 194.578 234.188 194.508 233.805C194.229 232.253 181.91 237.232 183.574 234.967C184.499 233.706 193.719 229.239 195.96 229.979C198.134 230.695 212.412 234.868 212.412 234.868L251.43 225.343C251.43 225.343 261.277 202.031 262.241 182C270.383 183.146 275.923 185.242 283 189.333C279.587 208.489 271.296 239.537 262.127 245.361C258.269 247.811 212.222 242.429 212.222 242.429C212.222 242.429 202.073 241.683 200.416 241.019C199.158 240.514 195.922 238.616 194.159 238.097C190.157 236.915 183.022 239.88 183 239.065C182.984 238.47 184.794 236.45 187.643 235.377L187.64 235.37Z" fill="#F7A491"/>
<path id="Vector_46" d="M262.091 160.517C262.463 154.346 264.692 148.391 270.957 146.471C274.839 145.281 279.193 146.418 282.295 149.075C285.985 152.235 287.016 157.301 287 162.096C286.962 172.986 286.253 184.279 284.354 195C277.317 190.905 269.1 188.443 261 187.296C261.003 187.233 261.599 168.667 262.094 160.513L262.091 160.517Z" fill="#96D9C9"/>
</g>
<path id="Vector_47" d="M102 32.9882L112.696 36L115 22.6408L111.501 22L109.878 31.4098L102.936 29.4536L102 32.9882Z" fill="#50BFA5"/>
<g id="Group_10">
<path id="Vector_48" d="M433.997 212.025C431.368 211.816 427.328 212.943 425.519 214.136C425.246 214.382 423.163 215.188 421 218.672L421.489 219C423.774 216.677 425.31 216.156 427.138 215.625C430.153 214.873 433.193 215.435 433.444 215.566L434 212.028L433.997 212.025Z" fill="#355389"/>
<path id="Vector_49" d="M421.627 218.721C421.627 218.721 437.371 221.461 435.903 234.294C434.435 247.127 417.826 257.107 403.003 249.172C383.063 238.497 390.937 211.353 405.131 209.254C419.325 207.156 421.627 218.721 421.627 218.721Z" fill="#F47458"/>
<path id="Vector_50" d="M415.292 213.05C415.292 213.05 411.193 208.709 402.211 212.661C393.229 216.609 392.58 235.024 400.591 233.955C408.6 232.886 421.697 215.712 415.292 213.054V213.05Z" fill="#F48C7F"/>
</g>
<g id="Group_11">
<path id="Vector_51" d="M305.674 42.8128L370.631 66.7569C372.724 67.5293 375.027 66.4001 375.774 64.2368L387.765 29.5022C388.512 27.3389 387.42 24.9596 385.326 24.1872L320.369 0.24313C318.276 -0.529258 315.973 0.599862 315.226 2.7632L303.235 37.4945C302.488 39.6578 303.581 42.0372 305.674 42.8096V42.8128Z" fill="#86B1F2"/>
<path id="Vector_52" d="M348.759 33.9661C346.348 40.9853 349.872 48.7084 356.634 51.212C363.393 53.7155 370.83 50.0565 373.241 43.0339C375.652 36.0147 372.128 28.2916 365.366 25.788C358.607 23.2845 351.17 26.9435 348.759 33.9661Z" fill="white"/>
<path id="Vector_53" d="M358.233 31.6553C357.492 33.7341 358.577 36.023 360.655 36.7671C362.733 37.5078 365.022 36.4234 365.766 34.3447C366.51 32.2659 365.422 29.977 363.344 29.2329C361.265 28.4922 358.977 29.5766 358.233 31.6553Z" fill="#86B1F2"/>
<path id="Vector_54" d="M361.825 39.4613L358.915 38.3886C356.61 37.5391 354.067 38.7998 353.238 41.2033L352.783 42.5216L364.042 46.6717L364.497 45.3534C365.327 42.9498 364.13 40.3109 361.825 39.4613Z" fill="#86B1F2"/>
<path id="Vector_55" d="M347.342 27C348.043 27 348.67 26.5437 348.904 25.8625C349.211 24.9731 348.76 23.991 347.899 23.6736L319.214 13.0992C319.035 13.0331 318.846 13 318.658 13C317.957 13 317.33 13.4563 317.096 14.1375C316.789 15.0269 317.24 16.009 318.101 16.3264L346.786 26.9008C346.965 26.9669 347.154 27 347.342 27Z" fill="white"/>
<path id="Vector_56" d="M339.389 34C340.07 34 340.679 33.5314 340.906 32.8319C341.205 31.9185 340.766 30.91 339.93 30.584L318.152 22.1019C317.978 22.034 317.794 22 317.611 22C316.93 22 316.32 22.4686 316.093 23.1681C315.95 23.6095 315.972 24.0883 316.156 24.5127C316.339 24.9372 316.666 25.2598 317.07 25.416L338.848 33.8981C339.022 33.966 339.205 34 339.389 34Z" fill="white"/>
</g>
<path id="Vector_57" d="M204 306H361.162C366.043 306 370 310.098 370 315.152V322.848C370 327.902 366.043 332 361.162 332H204L204.083 331.911C210.807 324.665 210.769 313.203 204 306.003V306Z" fill="#F47458"/>
<path id="Vector_58" d="M207 310H291.148C296.037 310 300 314.03 300 319C300 323.97 296.037 328 291.148 328H207.003C210.096 322.429 210.093 315.571 207.003 310.003L207 310Z" fill="#FAE0B2"/>
<g id="Group_12">
<path id="Vector_59" d="M186.299 10C183.842 12.0148 179.57 18.4977 174.117 23.0475C170.928 25.7099 168.471 25.0329 164.399 25.5366C145.084 27.9341 150.317 31.9932 148 32.3923C148.659 33.9492 154.675 47.0915 155.799 49.7507C156.836 52.2006 158.628 53.2996 161.226 52.93C165.221 52.3641 169.25 51.9389 173.185 51.0656C183.266 48.8185 188.874 43.6375 196.1 37.3444C198.016 35.6762 198.487 33.5927 197.494 31.2344C192.869 20.2541 186.796 11.0107 186.296 10H186.299Z" fill="#466EB6"/>
<path id="Vector_60" d="M145.993 48.2892C146.079 52.5932 145.757 53.4592 147.572 52.8048C148.665 52.4109 149.722 51.8997 150.754 51.356C151.483 50.9718 151.512 50.4672 150.92 49.8617C150.061 48.9794 149.176 48.1231 148.313 47.2669C148.942 45.5772 148.22 43.614 146.671 42.6894C146.354 42.5006 146.584 42.901 143.884 36.5687C152.815 35.4455 159.113 34.6935 170.009 33.3293C172.924 32.9647 175.512 31.8122 177.764 29.8913C185.545 23.2563 193.326 16.6245 201.103 9.98289C202.158 9.08107 202.292 7.76252 201.455 6.74675C200.816 5.96865 199.966 5.93284 199.052 6.05004C196.566 6.3691 172.189 9.45222 169.712 9.74849C166.459 10.1359 163.596 11.3828 161.082 13.5283C153.438 20.0494 145.773 26.551 138.12 33.0591C137.069 33.9512 136.784 34.7716 137.155 35.7646C137.561 36.8552 138.446 37.3762 139.785 37.0831C140.75 36.8715 141.178 37.1678 141.51 38.0794C143.012 42.1978 144.06 43.1094 143.696 44.6135C143.415 45.7725 144.769 47.7845 145.993 48.2859V48.2892Z" fill="#86B1F2"/>
</g>
<g id="Group_13">
<path id="Vector_61" d="M54.4366 171.207L82.9775 144.752C84.8327 143.032 84.0589 139.494 81.4998 137.989L58.7209 124.592C57.2621 123.735 55.6195 123.814 54.5634 124.793L26.0225 151.248C24.1673 152.968 24.9411 156.506 27.5002 158.011L50.2791 171.408C51.7379 172.265 53.3805 172.186 54.4366 171.207Z" fill="#9BC1F9"/>
<path id="Vector_62" d="M55.6507 150.177L57.9901 129.921C58.0805 129.146 57.5441 128.316 56.7923 128.069C56.0406 127.823 55.3575 128.253 55.2701 129.028L53.1148 147.668L31.8264 153.085C31.134 153.263 30.8127 154.05 31.1121 154.845C31.4116 155.639 32.2194 156.142 32.915 155.964L55.6507 150.177Z" fill="white"/>
</g>
<g id="verticalLines">
<path id="Vector_63" d="M430.769 371.004L427.117 379.324C426.816 380.012 427.117 380.817 427.79 381.125L446.861 389.858C448.24 390.489 449.575 388.891 448.743 387.6L441.362 375.852C441.362 375.852 435.527 376.945 430.769 371V371.004Z" fill="#55769F"/>
<path id="Vector_64" d="M406.769 371.004L403.117 379.324C402.816 380.012 403.117 380.817 403.79 381.125L422.861 389.858C424.24 390.489 425.575 388.891 424.743 387.6L417.362 375.852C417.362 375.852 411.527 376.945 406.769 371V371.004Z" fill="#55769F"/>
<path id="Vector_65" d="M365.919 139.642L364.018 153L360 135.191C360 135.191 365.629 132.129 365.878 133.244C366.127 134.359 365.919 139.642 365.919 139.642Z" fill="#07085B"/>
<path id="Vector_66" d="M331.815 168L330 191L349 190.03L346.808 169.661L331.815 168Z" fill="#FFC0BB"/>
<path id="Vector_67" d="M348 178.828L346.935 169.585L331.641 168L331 175.598C334.039 178.626 339.508 181.761 348 178.828Z" fill="#F99893"/>
<g id="Group_14">
<path id="Vector_68" d="M360.578 152.196C359.434 154.771 360.042 157.667 361.931 158.661C363.82 159.659 366.278 158.378 367.422 155.803C368.566 153.227 367.958 150.331 366.069 149.337C364.18 148.343 361.722 149.62 360.578 152.196Z" fill="#F99893"/>
<path id="Vector_69" d="M363.04 154.155C363.142 153.509 363.276 152.871 363.425 152.238C364.023 149.672 364.184 146.923 363.767 144.056C362.43 134.835 355.241 127.482 346.293 126.207C334.239 124.486 323.624 133.703 322.873 145.904C321.634 145.084 320.202 144.816 318.892 145.319C316.387 146.282 315.302 149.688 316.47 152.924C317.638 156.16 320.615 158 323.124 157.037C323.47 156.903 323.789 156.717 324.08 156.497C324.465 166.949 332.217 175.504 342.109 175.979C346.946 176.214 351.449 174.472 354.942 171.423C359.693 167.818 362.096 160.168 363.036 154.159L363.04 154.155Z" fill="#FFC0BB"/>
<path id="Vector_70" d="M347.589 147.004C347.625 148.178 347.632 149.32 347.688 150.443C347.756 151.538 347.862 152.712 348.262 153.487C348.666 154.113 348.988 154.512 348.999 155.279C349.024 156.053 348.652 156.75 348.191 157.172C347.246 158.053 346.017 158.135 345 157.861C346.038 157.657 347.03 157.266 347.607 156.519C347.876 156.147 348.053 155.733 347.989 155.341C347.947 154.911 347.826 154.825 347.355 154.105C347.022 153.479 346.916 152.845 346.852 152.231C346.799 151.617 346.81 151.018 346.86 150.423C346.962 149.246 347.189 148.092 347.589 147V147.004Z" fill="#F99893"/>
<path id="Vector_71" d="M341.988 148.774C342.133 150.135 340.933 151.233 339.588 150.957C338.751 150.787 338.099 150.069 338.011 149.22C337.871 147.863 339.067 146.774 340.407 147.041C341.244 147.207 341.901 147.925 341.988 148.774Z" fill="#333333"/>
<path id="Vector_72" d="M356.989 150.779C357.129 152.137 355.933 153.227 354.593 152.959C353.756 152.793 353.104 152.075 353.012 151.226C352.867 149.865 354.067 148.77 355.412 149.042C356.249 149.212 356.901 149.93 356.993 150.779H356.989Z" fill="#333333"/>
<path id="Vector_73" d="M338.004 162C338.491 162.448 338.999 162.865 339.535 163.236C340.063 163.614 340.615 163.959 341.187 164.252C342.328 164.837 343.538 165.263 344.789 165.423C346.035 165.591 347.306 165.474 348.524 165.13C349.742 164.768 350.904 164.174 352 163.455C350.806 164.519 349.824 165.048 348.634 165.509C347.383 165.952 346.133 166.099 344.728 165.935C343.417 165.754 342.15 165.289 341.013 164.6C339.88 163.912 338.836 163.055 338 162H338.004Z" fill="#F99893"/>
<path id="Vector_74" d="M343.996 144.941C343.075 144.682 342.213 144.485 341.356 144.366C340.502 144.248 339.664 144.226 338.85 144.316C338.04 144.413 337.221 144.575 336.439 144.898C335.838 145.067 334.379 145.846 334 146C334.447 145.253 335.095 144.456 335.893 144.015C336.688 143.465 337.684 143.153 338.692 143.038C339.704 142.927 340.739 143.063 341.66 143.397C342.573 143.738 343.411 144.244 344 144.948L343.996 144.941Z" fill="#07085B"/>
<path id="Vector_75" d="M352 145.503C352.759 144.772 353.732 144.337 354.742 144.117C355.757 143.911 356.845 143.974 357.86 144.332C358.866 144.696 359.814 145.301 360.507 146.148C361.229 146.866 361.711 147.991 362 149C361.641 148.726 360.326 147.453 359.748 147.112C359.019 146.543 358.219 146.166 357.41 145.87C356.594 145.579 355.732 145.422 354.833 145.382C353.93 145.341 353.002 145.391 352.004 145.507L352 145.503Z" fill="#07085B"/>
</g>
<g id="Group_15">
<path id="Vector_76" d="M253.425 105.732C253.28 106.79 253.166 107.822 253.005 108.831C252.836 109.815 252.621 110.865 252.15 111.524C251.69 112.048 251.332 112.375 251.25 113.067C251.153 113.765 251.458 114.434 251.877 114.864C252.735 115.759 253.949 115.962 254.986 115.821C253.973 115.529 253.023 115.071 252.519 114.334C252.286 113.97 252.148 113.577 252.248 113.229C252.331 112.845 252.459 112.779 252.994 112.178C253.384 111.647 253.549 111.085 253.669 110.536C253.78 109.986 253.825 109.444 253.831 108.901C253.839 107.825 253.721 106.758 253.425 105.728L253.425 105.732Z" fill="#F99893"/>
<path id="Vector_77" d="M259.889 108.009C259.676 109.013 260.487 109.927 261.511 109.827C262.148 109.766 262.69 109.282 262.821 108.655C263.03 107.654 262.222 106.747 261.202 106.841C260.565 106.899 260.02 107.383 259.889 108.009Z" fill="#333333"/>
<path id="Vector_78" d="M245.888 108.014C245.679 109.015 246.487 109.922 247.507 109.829C248.144 109.77 248.686 109.286 248.82 108.66C249.032 107.655 248.222 106.745 247.198 106.841C246.561 106.903 246.019 107.387 245.885 108.013L245.888 108.014Z" fill="#333333"/>
<path id="Vector_79" d="M259.998 119C259.737 119.241 259.464 119.468 259.173 119.674C258.886 119.883 257.08 119.847 256.765 120.016C256.287 120.438 256.765 120.016 256.287 120.438C255.583 120.577 255.704 120.434 254.997 120.32C254.289 120.198 252.732 120.646 252.08 120.343C252.8 120.81 253.38 121.025 254.075 121.196C254.805 121.357 255.486 121.418 256.28 121.275C257.02 121.127 257.761 120.797 258.382 120.408C259.002 120.02 259.564 119.554 260 119L259.998 119Z" fill="#FF2B55"/>
<path id="Vector_80" d="M257.854 103.987C258.705 103.817 259.496 103.702 260.276 103.665C261.052 103.628 261.805 103.685 262.524 103.851C263.239 104.024 263.955 104.262 264.622 104.658C265.143 104.882 266.368 105.795 266.692 105.984C266.369 105.199 265.87 104.345 265.201 103.831C264.547 103.209 263.687 102.804 262.797 102.595C261.903 102.389 260.962 102.427 260.103 102.672C259.251 102.925 258.449 103.349 257.85 103.994L257.854 103.987Z" fill="#13375B"/>
<path id="Vector_81" d="M250.877 104.196C250.257 103.543 249.422 103.105 248.536 102.834C247.645 102.574 246.665 102.522 245.728 102.711C244.798 102.905 243.899 103.298 243.209 103.907C242.504 104.409 241.98 105.259 241.639 106.035C241.982 105.851 243.264 104.962 243.809 104.745C244.509 104.361 245.256 104.137 246.004 103.978C246.759 103.823 247.543 103.779 248.351 103.832C249.162 103.885 249.989 104.012 250.872 104.199L250.877 104.196Z" fill="#13375B"/>
</g>
<path id="Vector_82" d="M342.221 274.033C342.221 274.033 338.18 302.208 364.673 307.115C391.171 312.023 424.139 310.559 424.139 310.559L428.726 375.276L442.559 376C442.559 376 478.179 286.077 428.877 272.02L384.573 272.244L366.332 270.906C366.332 270.906 347.873 266.222 347.655 267.113C347.437 268.007 342.66 274.476 342.225 274.029L342.221 274.033Z" fill="#070852"/>
<path id="Vector_83" d="M318.221 274.033C318.221 274.033 314.18 302.208 340.674 307.115C367.171 312.023 400.14 310.559 400.14 310.559L404.727 375.276L418.56 376C418.56 376 454.177 286.077 404.878 272.02L360.574 272.244L342.332 270.906C342.332 270.906 323.873 266.222 323.655 267.113C323.437 268.007 318.66 274.476 318.225 274.029L318.221 274.033Z" fill="#10116B"/>
<path id="Vector_84" d="M351.395 181.788C351.395 181.788 369.562 184.17 374.177 188.041C378.793 191.913 401 248.808 401 248.808L382.541 271.15L343.319 271.447C343.319 271.447 313.902 287.83 295.444 272.339C276.985 256.848 286.504 202.934 297.174 191.319C307.844 179.704 326.878 180.001 326.878 180.001C326.878 180.001 344.182 192.511 351.391 181.788H351.395Z" fill="#FF5B7E"/>
<path id="Vector_85" d="M316.509 210.008C317.076 213.149 317.423 216.335 317.67 219.529C317.808 221.128 317.866 222.731 317.942 224.334C317.983 225.942 318.014 227.549 317.993 229.157C317.942 232.371 317.794 235.598 317.334 238.78C316.883 241.95 316.23 245.131 315 248C315.828 244.942 316.237 241.801 316.533 238.648C316.825 235.495 316.925 232.314 316.959 229.136C317.014 225.958 316.949 222.772 316.866 219.582C316.773 216.392 316.65 213.202 316.509 210V210.008Z" fill="white"/>
<path id="Vector_86" d="M371.004 208C371.828 212.572 372.698 217.133 373.581 221.681C374.483 226.225 375.42 230.761 376.485 235.265C377.54 239.769 378.707 244.24 380.12 248.627C380.831 250.818 381.619 252.981 382.549 255.08C383.462 257.182 384.548 259.22 386 261C384.345 259.402 383.13 257.38 382.033 255.342C380.967 253.276 380.05 251.129 379.257 248.942C378.449 246.758 377.754 244.535 377.098 242.303C376.466 240.063 375.884 237.807 375.341 235.547C374.826 233.279 374.33 231.003 373.885 228.723C373.456 226.435 373.034 224.151 372.679 221.85C371.945 217.258 371.371 212.637 371 208H371.004Z" fill="white"/>
<g id="Group_16">
<path id="Vector_87" d="M410 218.376C406.626 213.048 379 204 379 204V213.019L407.121 223L410 218.376Z" fill="#EDEDED"/>
<path id="Vector_88" d="M408 218.635L376 203V209.07L407.21 221L408 218.635Z" fill="white"/>
<path id="Vector_89" d="M406 218.621L372 205V215.526L405.658 221L406 218.621Z" fill="#EDEDED"/>
<path id="Vector_90" d="M410 216.701C410 216.701 416.385 201.214 419 198C419 208.188 415.029 221 415.029 221L410 216.701Z" fill="white"/>
<path id="Vector_91" d="M413 217.377L421 197V206.708L415.503 220L413 217.377Z" fill="#EDEDED"/>
<path id="Vector_92" d="M415 218L424 198V205.128L415 218Z" fill="white"/>
<path id="Vector_93" d="M415 280L426 260.707V199L415 218.293V280Z" fill="#26426E"/>
<path id="Vector_94" d="M365 270.684L404 280V218.316L365 209V270.684Z" fill="#55769F"/>
<path id="Vector_95" d="M404 218.056C407.511 216.365 414.857 216.963 416 218.056C415.398 221.623 404.893 222.324 404 218.056Z" fill="#E0E0E0"/>
<path id="Vector_96" d="M404 279.865C404 281.378 416 281.378 416 279.865V218C414.785 219.799 405.354 219.75 404 218V279.865Z" fill="#3A5782"/>
</g>
<path id="Vector_97" d="M380 257.834C379.886 256.905 372.984 255.873 370.45 255.736C368.527 255.636 355.791 255.2 351.459 255L351.777 256.137L351.71 261.156L351 264.482C354.802 264.726 364.093 265.098 366.028 265.49C368.613 266.011 373.094 268 373.094 268C373.094 268 374.958 267.568 372.588 266.523C370.685 265.687 369.351 264.39 368.786 263.741C368.46 263.369 368.814 262.709 369.049 262.773C375.5 264.498 376.163 264.782 376.163 264.782C376.163 264.782 383.743 264.738 376.206 263.001C371.686 261.96 370.065 261.352 369.665 260.836C369.492 260.615 369.798 259.867 370.073 259.847C373.989 259.599 381.016 261.016 379.09 260.087C377.52 259.331 372.576 258.502 370.654 258.186C370.536 258.166 370.344 257.437 370.87 257.389C374.597 257.073 380.102 258.686 379.996 257.826L380 257.834Z" fill="#FFC0BB"/>
<path id="Vector_98" d="M312 247C313.595 247.405 315.167 247.877 316.767 248.224C318.354 248.621 319.969 248.91 321.565 249.266C324.779 249.882 328.002 250.415 331.236 250.891C334.474 251.338 337.712 251.747 340.962 252.078C344.2 252.417 347.489 252.702 350.696 252.892L351.125 252.917L351.22 253.31C351.496 254.451 351.673 255.564 351.811 256.705C351.945 257.842 352.004 258.987 352 260.133C351.992 261.278 351.897 262.428 351.716 263.565C351.519 264.698 351.196 265.81 350.767 266.873L350.731 266.964L350.66 267.013L347.099 269.519C345.914 270.354 344.724 271.185 343.522 272C344.637 271.061 345.764 270.139 346.898 269.221L350.29 266.472L350.184 266.612C350.542 265.583 350.79 264.52 350.928 263.432C351.054 262.345 351.113 261.245 351.082 260.141C351.047 259.041 350.944 257.941 350.798 256.845C350.645 255.758 350.44 254.654 350.168 253.624L350.692 254.042C348.998 253.996 347.395 253.881 345.748 253.757C344.109 253.628 342.475 253.492 340.844 253.314C337.578 252.958 334.32 252.533 331.078 251.991C327.836 251.441 324.614 250.779 321.419 249.985C319.827 249.56 318.236 249.146 316.668 248.629C315.088 248.162 313.54 247.583 312 247.008V247Z" fill="white"/>
<path id="Vector_99" d="M366.205 127.648C366.205 127.648 372.261 127.85 365.905 122.49C359.55 117.129 342.492 110.84 331.557 116.886C331.557 116.886 329.37 112.016 326.21 113.18C323.049 114.343 328.267 117.69 328.267 117.69C328.267 117.69 324.232 117.554 322.998 119.63C322.088 121.161 324.559 121.231 325.91 121.161C323.613 121.569 314.802 127.396 319.223 146C320.796 145.637 329.752 132.039 329.752 132.039C329.752 132.039 350.231 143.957 348.205 134.482C348.205 134.482 369.424 148.348 366.414 136.896C366.414 136.896 374.618 137.528 366.209 127.652L366.205 127.648Z" fill="#07085B"/>
<path id="Vector_100" d="M319 145.889C319 145.889 320.695 145.283 322.52 146.756C324.345 148.229 324.144 153.411 324.144 153.411C324.144 153.411 332.851 159.13 331.932 134.931C330.955 109.186 324.668 136.994 324.668 136.994L319 145.885V145.889Z" fill="#07085B"/>
</g>
</g>
</svg>
