<svg xmlns="http://www.w3.org/2000/svg" width="58" height="58" viewBox="0 0 58 58" fill="none">
  <path d="M29 58C45.0163 58 58 45.0163 58 29C58 12.9837 45.0163 0 29 0C12.9837 0 0 12.9837 0 29C0 45.0163 12.9837 58 29 58Z" fill="#B9C4E1"/>
  <path d="M28.999 38.8337C35.2289 38.8337 40.2793 32.3038 40.2793 24.2487C40.2793 16.1935 35.2289 9.66357 28.999 9.66357C22.7691 9.66357 17.7188 16.1935 17.7188 24.2487C17.7188 32.3038 22.7691 38.8337 28.999 38.8337Z" fill="white"/>
  <path d="M28.9999 40.916C18.6108 40.916 9.86958 44.0104 7.28125 48.2108C12.5967 54.2114 20.3527 57.9999 28.9999 57.9999C37.6471 57.9999 45.4031 54.2114 50.7186 48.2108C48.1302 44.0104 39.3935 40.916 28.9999 40.916Z" fill="white"/>
  <path d="M29.7899 29H28.2181C25.8389 29 23.9102 30.9287 23.9102 33.3079V43.1104C23.9102 45.4896 25.8389 47.4183 28.2181 47.4183H29.7899C32.1691 47.4183 34.0978 45.4896 34.0978 43.1104V33.3079C34.0978 30.9287 32.1691 29 29.7899 29Z" fill="white"/>
  <path d="M19.4546 25.583C19.8531 27.5444 19.3561 29.3043 18.3396 29.5103C17.323 29.7163 16.1767 28.2923 15.7781 26.3309C15.3796 24.3695 15.8766 22.6096 16.8931 22.4036C17.9097 22.1976 19.0561 23.6216 19.4546 25.583Z" fill="white"/>
  <path d="M38.5515 25.583C38.153 27.5444 38.6501 29.3043 39.6666 29.5103C40.6831 29.7163 41.8295 28.2923 42.228 26.3309C42.6266 24.3695 42.1295 22.6096 41.113 22.4036C40.0965 22.1976 38.9501 23.6216 38.5515 25.583Z" fill="white"/>
  <path d="M43.0884 29.9495C42.8332 26.1879 43.0257 22.3278 41.8749 18.7319C40.621 14.8136 37.6745 11.5312 34.0248 9.65489C29.4796 7.52781 25.203 9.11753 24.2268 9.53399C20.4607 11.3834 17.4112 14.7241 16.1304 18.7319C14.9796 22.3234 15.1721 26.1835 14.9169 29.9495C14.6616 33.7156 13.8063 37.7011 11.1016 40.3297C11.836 40.7058 12.8301 40.4864 13.3361 39.8326C13.3451 40.1864 13.3496 40.5402 13.3585 40.8939C14.0481 41.0328 14.8005 40.5491 14.9661 39.8685C15.0826 40.464 15.6781 40.9253 16.2872 40.8895C16.8917 40.8536 17.4291 40.3252 17.4783 39.7207C17.3977 40.3118 18.1724 40.7193 18.7367 40.5312C19.3009 40.3431 19.6681 39.8102 19.995 39.3087C19.9816 40.1237 21.0787 40.7059 21.7459 40.2357C21.6653 40.6745 22.2027 40.988 22.6505 40.9656C23.0983 40.9432 23.5237 40.7327 23.9715 40.7685C24.8358 40.8402 25.6105 41.803 26.4031 41.4447C26.7479 41.288 27.0659 40.8895 27.4152 41.0328C27.6257 41.1178 27.7152 41.3641 27.8585 41.5432C28.1317 41.8746 28.5974 41.9149 29.0094 41.7672C29.4214 41.9194 29.8871 41.8791 30.1602 41.5432C30.3035 41.3686 30.3931 41.1223 30.6036 41.0328C30.9529 40.8895 31.2708 41.288 31.6156 41.4447C32.4082 41.7985 33.1829 40.8357 34.0472 40.7685C34.4905 40.7327 34.9204 40.9432 35.3682 40.9656C35.8161 40.988 36.3534 40.6745 36.2728 40.2357C36.94 40.7059 38.0417 40.1237 38.0237 39.3087C38.3462 39.8102 38.7134 40.3431 39.2821 40.5312C39.8463 40.7193 40.621 40.3118 40.5404 39.7207C40.5897 40.3252 41.127 40.8536 41.7316 40.8895C42.3361 40.9253 42.9317 40.464 43.0526 39.8685C43.2138 40.5536 43.9706 41.0328 44.6602 40.8939C44.6692 40.5402 44.6737 40.1864 44.6826 39.8326C45.1887 40.4864 46.1783 40.7058 46.9172 40.3297C44.208 37.7011 43.3571 33.7156 43.1019 29.9495H43.0884Z" fill="white"/>
</svg>